<svg width="1008" height="419" viewBox="0 0 1008 419" fill="none" xmlns="http://www.w3.org/2000/svg">
<rect x="0.378174" y="0.872437" width="238.464" height="238.464" rx="119.232" fill="white"/>
<path d="M28.8404 89.4708V101.795H30.725V96.7875H31.5749C32.4803 96.7875 33.6074 96.6582 34.5866 95.8267C35.6028 94.9583 35.7876 93.8497 35.7876 93.1292C35.7876 92.0021 35.2887 90.8196 34.2541 90.1359C33.3672 89.5447 32.314 89.4708 31.5565 89.4708H28.8404ZM30.725 91.2076H31.5565C33.6998 91.2076 33.9769 92.427 33.9769 93.1107C33.9769 94.2562 33.2009 95.0507 31.5749 95.0507H30.725V91.2076ZM43.4133 99.171C43.247 99.4666 43.0068 99.7807 42.6927 100.021C42.3231 100.298 41.9536 100.409 41.4547 100.409C41.0113 100.409 40.4939 100.335 40.069 99.9101C39.681 99.5221 39.4408 98.8939 39.4038 98.3396H44.9838V98.1178C44.9838 97.3049 44.8914 95.8637 43.8936 94.829C43.4317 94.3486 42.6372 93.8128 41.3993 93.8128C40.2907 93.8128 39.4408 94.2193 38.7941 94.866C37.9811 95.6974 37.5562 96.8614 37.5562 98.0624C37.5562 99.2264 37.9627 100.298 38.7017 101.037C39.4408 101.776 40.2907 102.035 41.3254 102.035C42.1568 102.035 42.9883 101.85 43.6165 101.444C44.1154 101.13 44.5958 100.612 44.9283 100.021L43.4133 99.171ZM39.5332 96.8614C39.6255 96.4734 39.8288 96.1039 40.0875 95.8637C40.3277 95.6235 40.7341 95.3648 41.3623 95.3648C41.9536 95.3648 42.3416 95.5865 42.5818 95.8083C42.859 96.0669 43.0622 96.4365 43.1361 96.8614H39.5332ZM47.4536 101.795H49.2643V95.6789H52.2205V94.016H47.4536V101.795ZM54.0936 94.016V102.386L59.4149 97.2679V101.795H61.2256V93.3139L55.9043 98.4319V94.016H54.0936ZM70.1131 94.3671C69.2816 93.9052 68.5795 93.8128 67.9883 93.8128C66.4547 93.8128 65.4755 94.3486 64.8657 94.9583C64.293 95.5311 63.6832 96.5104 63.6832 97.97C63.6832 99.3927 64.2375 100.317 64.7918 100.889C65.5309 101.665 66.4547 102.035 67.7481 102.035C68.9491 102.035 69.6697 101.702 70.1131 101.425V99.4112C69.4849 100.113 68.6165 100.409 67.8774 100.409C67.2123 100.409 66.6395 100.169 66.233 99.7807C65.8819 99.4297 65.5309 98.8199 65.5309 97.9146C65.5309 97.0462 65.8635 96.4549 66.196 96.1224C66.5286 95.7898 67.0644 95.4387 67.9144 95.4387C68.4687 95.4387 69.2816 95.5865 70.1131 96.3995V94.3671ZM77.9645 95.6789V94.016H71.6085V95.6789H73.8812V101.795H75.6919V95.6789H77.9645ZM81.6524 100.889C82.4654 101.887 83.5555 102.035 83.9805 102.035C85.8282 102.035 87.7497 100.483 87.7497 97.8592C87.7497 95.3833 86.0129 93.8128 83.962 93.8128C83.186 93.8128 82.3176 94.0715 81.6524 94.866V94.016H79.8417V106.026H81.6524V100.889ZM83.7403 95.4387C85.0521 95.4387 85.9021 96.5473 85.9021 97.9331C85.9021 99.2819 85.0521 100.409 83.7403 100.409C82.5948 100.409 81.5416 99.5775 81.5416 97.9515C81.5416 96.2517 82.5948 95.4387 83.7403 95.4387ZM95.9076 94.9214C95.1685 93.9606 94.1708 93.8128 93.598 93.8128C91.5471 93.8128 89.8103 95.3648 89.8103 97.8961C89.8103 100.039 91.1776 102.035 93.5795 102.035C94.1338 102.035 95.1131 101.906 95.9076 100.982V101.795H97.7183V94.016H95.9076V94.9214ZM93.8197 95.4387C94.9653 95.4387 96.0184 96.2517 96.0184 97.9515C96.0184 99.5775 94.9653 100.409 93.8197 100.409C92.5079 100.409 91.658 99.2819 91.658 97.9331C91.658 96.5473 92.5079 95.4387 93.8197 95.4387ZM100.592 101.795H106.911V104.012H108.574V100.132H107.28V94.016H105.47V100.132H102.403V94.016H100.592V101.795ZM110.444 94.016V102.386L115.765 97.2679V101.795H117.576V93.3139L112.254 98.4319V94.016H110.444ZM119.442 101.795H121.567L123.692 98.9308H124.061V101.795H125.872V94.016H122.971C122.177 94.016 121.382 94.0899 120.717 94.7181C120.107 95.2909 119.996 96.0115 119.996 96.5104C119.996 97.0647 120.144 97.6374 120.643 98.1178C120.939 98.395 121.364 98.6352 121.881 98.7091L119.442 101.795ZM124.061 97.4527H122.99C122.546 97.4527 122.213 97.4157 121.992 97.2679C121.807 97.1386 121.622 96.8984 121.622 96.5104C121.622 96.1593 121.825 95.8822 122.066 95.7344C122.324 95.5865 122.657 95.5681 123.008 95.5681H124.061V97.4527ZM133.63 94.016V101.795H135.44V98.8939L135.736 98.5982L138.323 101.795H140.614L137.029 97.4157L140.429 94.016H138.027L135.44 96.7875V94.016H133.63ZM145.951 93.8128C143.604 93.8128 141.794 95.5126 141.794 97.9146C141.794 100.298 143.604 102.035 145.951 102.035C148.298 102.035 150.108 100.298 150.108 97.9146C150.108 95.5126 148.298 93.8128 145.951 93.8128ZM145.951 100.409C144.528 100.409 143.641 99.4297 143.641 97.9331C143.641 96.1593 144.805 95.4387 145.951 95.4387C147.097 95.4387 148.261 96.1593 148.261 97.9331C148.261 99.4297 147.374 100.409 145.951 100.409ZM151.688 101.795H153.536L154.312 97.8961L156.788 102.386L159.264 97.8961L160.04 101.795H161.888L160.003 93.3139L156.788 99.2449L153.573 93.3139L151.688 101.795ZM163.871 94.016V101.795H165.681V95.6789H168.822V101.795H170.633V94.016H163.871ZM179.197 94.9214C178.458 93.9606 177.46 93.8128 176.887 93.8128C174.836 93.8128 173.099 95.3648 173.099 97.8961C173.099 100.039 174.467 102.035 176.869 102.035C177.423 102.035 178.402 101.906 179.197 100.982V101.795H181.007V94.016H179.197V94.9214ZM177.109 95.4387C178.254 95.4387 179.307 96.2517 179.307 97.9515C179.307 99.5775 178.254 100.409 177.109 100.409C175.797 100.409 174.947 99.2819 174.947 97.9331C174.947 96.5473 175.797 95.4387 177.109 95.4387ZM183.881 101.795H185.692V98.5613H188.907V101.795H190.717V94.016H188.907V96.8984H185.692V94.016H183.881V101.795ZM193.588 94.016V102.386L198.91 97.2679V101.795H200.72V93.3139L195.399 98.4319V94.016H193.588ZM203.584 94.016V102.386L208.906 97.2679V101.795H210.716V93.3139L205.395 98.4319V94.016H203.584ZM66.7331 116.016V123.795H70.373C70.724 123.795 71.5185 123.758 72.1652 123.277C72.5532 122.982 73.0151 122.446 73.0151 121.504C73.0151 120.801 72.7565 120.321 72.4054 120.007C72.1098 119.748 71.7218 119.564 71.3522 119.49C71.9805 119.176 72.2761 118.603 72.2761 117.975C72.2761 117.162 71.8326 116.7 71.5555 116.478C70.9642 116.035 70.2437 116.016 69.7817 116.016H66.7331ZM68.5438 119.046V117.494H69.4307C69.7078 117.494 69.985 117.476 70.2252 117.642C70.4099 117.771 70.5393 117.975 70.5393 118.252C70.5393 118.436 70.4838 118.695 70.1882 118.88C70.1328 118.917 69.8926 119.046 69.4676 119.046H68.5438ZM68.5438 122.317V120.524H69.948C70.2067 120.524 70.5762 120.543 70.8534 120.728C71.0381 120.838 71.2044 121.06 71.2044 121.411C71.2044 121.762 71.0012 121.984 70.8349 122.095C70.5578 122.28 70.1882 122.317 69.8926 122.317H68.5438ZM82.5912 111.471H80.7066V123.795H82.5912V118.695L82.9607 118.326L87.3582 123.795H89.871L84.2726 117.051L89.834 111.471H87.3582L82.5912 116.386V111.471ZM96.7105 116.921C95.9714 115.961 94.9737 115.813 94.4009 115.813C92.35 115.813 90.6132 117.365 90.6132 119.896C90.6132 122.039 91.9805 124.035 94.3825 124.035C94.9368 124.035 95.916 123.906 96.7105 122.982V123.795H98.5212V116.016H96.7105V116.921ZM94.6227 117.439C95.7682 117.439 96.8214 118.252 96.8214 119.952C96.8214 121.577 95.7682 122.409 94.6227 122.409C93.3108 122.409 92.4609 121.282 92.4609 119.933C92.4609 118.547 93.3108 117.439 94.6227 117.439ZM102.448 118.03C102.67 117.79 102.91 117.623 103.132 117.513C103.483 117.346 103.778 117.291 104.148 117.291C104.388 117.291 104.758 117.309 105.016 117.494C105.182 117.605 105.349 117.827 105.349 118.159C105.349 118.547 105.164 118.732 105.016 118.843C104.794 118.991 104.388 119.046 104.129 119.046H103.446V120.524H104.259C104.702 120.524 105.238 120.524 105.552 120.857C105.7 121.005 105.792 121.226 105.792 121.485C105.792 121.744 105.681 121.984 105.515 122.169C105.182 122.501 104.591 122.557 104.277 122.557C103.852 122.557 103.427 122.464 103.113 122.261C102.817 122.076 102.577 121.762 102.429 121.448L100.988 122.187C101.284 122.871 101.764 123.314 102.208 123.573C102.91 123.979 103.686 124.035 104.24 124.035C105.497 124.035 106.365 123.758 106.975 123.148C107.418 122.705 107.64 122.15 107.64 121.43C107.64 121.042 107.547 120.543 107.141 120.136C106.864 119.859 106.439 119.656 106.014 119.564C106.236 119.471 106.513 119.323 106.753 119.009C107.03 118.658 107.086 118.326 107.086 117.938C107.086 117.272 106.864 116.774 106.273 116.349C105.644 115.905 104.961 115.813 104.296 115.813C103.797 115.813 103.113 115.868 102.466 116.145C101.931 116.386 101.543 116.7 101.284 117.014L102.448 118.03ZM115.801 116.921C115.062 115.961 114.064 115.813 113.491 115.813C111.44 115.813 109.703 117.365 109.703 119.896C109.703 122.039 111.071 124.035 113.473 124.035C114.027 124.035 115.006 123.906 115.801 122.982V123.795H117.611V116.016H115.801V116.921ZM113.713 117.439C114.858 117.439 115.911 118.252 115.911 119.952C115.911 121.577 114.858 122.409 113.713 122.409C112.401 122.409 111.551 121.282 111.551 119.933C111.551 118.547 112.401 117.439 113.713 117.439ZM119.45 123.795H121.667L123.977 120.894L126.213 123.795H128.393L125.067 119.582L127.931 116.016H125.714L123.977 118.289L122.259 116.016H120.115L122.887 119.582L119.45 123.795ZM136.252 116.367C135.42 115.905 134.718 115.813 134.127 115.813C132.593 115.813 131.614 116.349 131.004 116.958C130.432 117.531 129.822 118.51 129.822 119.97C129.822 121.393 130.376 122.317 130.93 122.889C131.67 123.665 132.593 124.035 133.887 124.035C135.088 124.035 135.808 123.702 136.252 123.425V121.411C135.624 122.113 134.755 122.409 134.016 122.409C133.351 122.409 132.778 122.169 132.372 121.781C132.021 121.43 131.67 120.82 131.67 119.915C131.67 119.046 132.002 118.455 132.335 118.122C132.667 117.79 133.203 117.439 134.053 117.439C134.607 117.439 135.42 117.587 136.252 118.4V116.367ZM144.103 117.679V116.016H137.747V117.679H140.02V123.795H141.831V117.679H144.103ZM151.473 116.921C150.734 115.961 149.736 115.813 149.163 115.813C147.112 115.813 145.375 117.365 145.375 119.896C145.375 122.039 146.743 124.035 149.145 124.035C149.699 124.035 150.678 123.906 151.473 122.982V123.795H153.283V116.016H151.473V116.921ZM149.385 117.439C150.53 117.439 151.584 118.252 151.584 119.952C151.584 121.577 150.53 122.409 149.385 122.409C148.073 122.409 147.223 121.282 147.223 119.933C147.223 118.547 148.073 117.439 149.385 117.439ZM156.157 123.795H157.968V120.561H161.183V123.795H162.993V116.016H161.183V118.898H157.968V116.016H156.157V123.795ZM171.315 121.171C171.149 121.467 170.909 121.781 170.594 122.021C170.225 122.298 169.855 122.409 169.356 122.409C168.913 122.409 168.396 122.335 167.971 121.91C167.583 121.522 167.343 120.894 167.306 120.34H172.885V120.118C172.885 119.305 172.793 117.864 171.795 116.829C171.333 116.349 170.539 115.813 169.301 115.813C168.192 115.813 167.343 116.219 166.696 116.866C165.883 117.697 165.458 118.861 165.458 120.062C165.458 121.226 165.864 122.298 166.603 123.037C167.343 123.776 168.192 124.035 169.227 124.035C170.059 124.035 170.89 123.85 171.518 123.444C172.017 123.13 172.497 122.612 172.83 122.021L171.315 121.171ZM167.435 118.861C167.527 118.473 167.731 118.104 167.989 117.864C168.229 117.623 168.636 117.365 169.264 117.365C169.855 117.365 170.243 117.587 170.484 117.808C170.761 118.067 170.964 118.436 171.038 118.861H167.435Z" fill="black"/>
<path opacity="0.8" d="M86.1001 153.037C85.6382 151.947 85.2132 150.636 84.973 149.601C84.7698 148.677 84.5481 147.254 84.5481 145.24C84.5481 143.688 84.6959 142.062 84.9915 140.732C85.2132 139.716 85.6197 138.478 86.1001 137.388L84.4372 136.741C83.8644 137.942 83.5134 139.014 83.2178 140.344C82.8113 142.155 82.7004 143.522 82.7004 145.24C82.7004 146.903 82.7928 148.215 83.1808 149.952C83.4764 151.264 83.846 152.428 84.4372 153.684L86.1001 153.037ZM95.0884 137.868C91.3931 137.868 88.677 140.64 88.677 144.261C88.677 147.883 91.3931 150.654 95.0884 150.654C98.7837 150.654 101.5 147.883 101.5 144.261C101.5 140.64 98.7837 137.868 95.0884 137.868ZM95.0884 148.917C92.4462 148.917 90.5616 146.996 90.5616 144.261C90.5616 141.527 92.4462 139.605 95.0884 139.605C97.7305 139.605 99.6152 141.527 99.6152 144.261C99.6152 146.996 97.7305 148.917 95.0884 148.917ZM104.11 150.414H105.921V147.18H109.136V150.414H110.947V142.635H109.136V145.518H105.921V142.635H104.11V150.414ZM120.211 142.635H114.372V147.384C114.372 147.679 114.335 148.104 114.095 148.4C113.855 148.677 113.356 148.88 112.82 148.751V150.414C113.651 150.543 114.668 150.395 115.37 149.619C116.016 148.917 116.109 148.049 116.109 147.384V144.298H118.4V150.414H120.211V142.635ZM128.765 143.541C128.026 142.58 127.028 142.432 126.455 142.432C124.404 142.432 122.668 143.984 122.668 146.515C122.668 148.659 124.035 150.654 126.437 150.654C126.991 150.654 127.97 150.525 128.765 149.601V150.414H130.576V142.635H128.765V143.541ZM126.677 144.058C127.823 144.058 128.876 144.871 128.876 146.571C128.876 148.197 127.823 149.028 126.677 149.028C125.365 149.028 124.515 147.901 124.515 146.552C124.515 145.166 125.365 144.058 126.677 144.058ZM133.449 142.635V151.005L138.77 145.887V150.414H140.581V141.933L135.26 147.051V142.635H133.449ZM134.04 139.272C134.465 140.806 135.98 141.453 137.034 141.453C138.087 141.453 139.602 140.806 140.027 139.272L138.549 138.847C138.29 139.679 137.828 140.048 137.034 140.048C136.59 140.048 135.833 139.919 135.519 138.847L134.04 139.272ZM143.445 150.414H145.256V147.18H148.471V150.414H150.282V142.635H148.471V145.518H145.256V142.635H143.445V150.414ZM154.779 153.684C155.37 152.428 155.739 151.264 156.035 149.952C156.423 148.215 156.515 146.903 156.515 145.24C156.515 143.522 156.405 142.155 155.998 140.344C155.702 139.014 155.351 137.942 154.779 136.741L153.116 137.388C153.596 138.478 154.003 139.716 154.224 140.732C154.52 142.062 154.668 143.688 154.668 145.24C154.668 147.254 154.446 148.677 154.243 149.601C154.003 150.636 153.578 151.947 153.116 153.037L154.779 153.684Z" fill="black"/>
<rect x="384.923" y="0.872498" width="238.464" height="238.464" rx="119.232" fill="white"/>
<path d="M418.509 92.5187V104.843H420.394V99.8354H421.244C422.149 99.8354 423.276 99.7061 424.255 98.8746C425.272 98.0062 425.456 96.8977 425.456 96.1771C425.456 95.05 424.958 93.8675 423.923 93.1839C423.036 92.5926 421.983 92.5187 421.225 92.5187H418.509ZM420.394 94.2555H421.225C423.369 94.2555 423.646 95.475 423.646 96.1586C423.646 97.3041 422.87 98.0986 421.244 98.0986H420.394V94.2555ZM433.322 97.9693C432.583 97.0085 431.585 96.8607 431.013 96.8607C428.962 96.8607 427.225 98.4127 427.225 100.944C427.225 103.087 428.592 105.083 430.994 105.083C431.548 105.083 432.528 104.953 433.322 104.03V104.843H435.133V97.0639H433.322V97.9693ZM431.234 98.4866C432.38 98.4866 433.433 99.2996 433.433 100.999C433.433 102.625 432.38 103.457 431.234 103.457C429.923 103.457 429.073 102.33 429.073 100.981C429.073 99.5952 429.923 98.4866 431.234 98.4866ZM444.03 97.415C443.198 96.9531 442.496 96.8607 441.905 96.8607C440.372 96.8607 439.392 97.3965 438.783 98.0062C438.21 98.579 437.6 99.5583 437.6 101.018C437.6 102.441 438.154 103.364 438.709 103.937C439.448 104.713 440.372 105.083 441.665 105.083C442.866 105.083 443.586 104.75 444.03 104.473V102.459C443.402 103.161 442.533 103.457 441.794 103.457C441.129 103.457 440.556 103.217 440.15 102.829C439.799 102.478 439.448 101.868 439.448 100.963C439.448 100.094 439.78 99.5029 440.113 99.1703C440.445 98.8377 440.981 98.4866 441.831 98.4866C442.385 98.4866 443.198 98.6345 444.03 99.4474V97.415ZM452.366 97.415C451.535 96.9531 450.832 96.8607 450.241 96.8607C448.708 96.8607 447.728 97.3965 447.119 98.0062C446.546 98.579 445.936 99.5583 445.936 101.018C445.936 102.441 446.49 103.364 447.045 103.937C447.784 104.713 448.708 105.083 450.001 105.083C451.202 105.083 451.923 104.75 452.366 104.473V102.459C451.738 103.161 450.869 103.457 450.13 103.457C449.465 103.457 448.892 103.217 448.486 102.829C448.135 102.478 447.784 101.868 447.784 100.963C447.784 100.094 448.116 99.5029 448.449 99.1703C448.782 98.8377 449.317 98.4866 450.167 98.4866C450.722 98.4866 451.535 98.6345 452.366 99.4474V97.415ZM453.792 104.843H455.64L456.416 100.944L458.891 105.434L461.367 100.944L462.143 104.843H463.991L462.106 96.3618L458.891 102.293L455.676 96.3618L453.792 104.843ZM469.725 96.8607C467.378 96.8607 465.568 98.5605 465.568 100.963C465.568 103.346 467.378 105.083 469.725 105.083C472.071 105.083 473.882 103.346 473.882 100.963C473.882 98.5605 472.071 96.8607 469.725 96.8607ZM469.725 103.457C468.302 103.457 467.415 102.478 467.415 100.981C467.415 99.2072 468.579 98.4866 469.725 98.4866C470.87 98.4866 472.034 99.2072 472.034 100.981C472.034 102.478 471.147 103.457 469.725 103.457ZM481.707 98.7268V97.0639H475.351V98.7268H477.624V104.843H479.435V98.7268H481.707ZM485.395 103.937C486.208 104.935 487.298 105.083 487.723 105.083C489.571 105.083 491.492 103.531 491.492 100.907C491.492 98.4312 489.756 96.8607 487.705 96.8607C486.929 96.8607 486.06 97.1194 485.395 97.9139V97.0639H483.585V109.074H485.395V103.937ZM487.483 98.4866C488.795 98.4866 489.645 99.5952 489.645 100.981C489.645 102.33 488.795 103.457 487.483 103.457C486.338 103.457 485.284 102.625 485.284 100.999C485.284 99.2996 486.338 98.4866 487.483 98.4866ZM499.41 102.219C499.244 102.515 499.004 102.829 498.69 103.069C498.32 103.346 497.95 103.457 497.452 103.457C497.008 103.457 496.491 103.383 496.066 102.958C495.678 102.57 495.438 101.942 495.401 101.387H500.981V101.166C500.981 100.353 500.888 98.9116 499.891 97.8769C499.429 97.3965 498.634 96.8607 497.396 96.8607C496.288 96.8607 495.438 97.2672 494.791 97.9139C493.978 98.7453 493.553 99.9093 493.553 101.11C493.553 102.274 493.96 103.346 494.699 104.085C495.438 104.824 496.288 105.083 497.322 105.083C498.154 105.083 498.985 104.898 499.613 104.492C500.112 104.177 500.593 103.66 500.925 103.069L499.41 102.219ZM495.53 99.9093C495.622 99.5213 495.826 99.1518 496.084 98.9116C496.325 98.6714 496.731 98.4127 497.359 98.4127C497.95 98.4127 498.339 98.6345 498.579 98.8562C498.856 99.1148 499.059 99.4844 499.133 99.9093H495.53ZM503.45 104.843H505.261V101.609H508.476V104.843H510.287V97.0639H508.476V99.9463H505.261V97.0639H503.45V104.843ZM513.158 97.0639V105.434L518.479 100.316V104.843H520.29V96.3618L514.969 101.48V97.0639H513.158ZM528.605 102.219C528.438 102.515 528.198 102.829 527.884 103.069C527.515 103.346 527.145 103.457 526.646 103.457C526.203 103.457 525.685 103.383 525.26 102.958C524.872 102.57 524.632 101.942 524.595 101.387H530.175V101.166C530.175 100.353 530.083 98.9116 529.085 97.8769C528.623 97.3965 527.829 96.8607 526.591 96.8607C525.482 96.8607 524.632 97.2672 523.985 97.9139C523.173 98.7453 522.748 99.9093 522.748 101.11C522.748 102.274 523.154 103.346 523.893 104.085C524.632 104.824 525.482 105.083 526.517 105.083C527.348 105.083 528.18 104.898 528.808 104.492C529.307 104.177 529.787 103.66 530.12 103.069L528.605 102.219ZM524.725 99.9093C524.817 99.5213 525.02 99.1518 525.279 98.9116C525.519 98.6714 525.926 98.4127 526.554 98.4127C527.145 98.4127 527.533 98.6345 527.773 98.8562C528.05 99.1148 528.254 99.4844 528.327 99.9093H524.725ZM538.588 99.0779C538.81 98.8377 539.05 98.6714 539.272 98.5605C539.623 98.3943 539.918 98.3388 540.288 98.3388C540.528 98.3388 540.897 98.3573 541.156 98.5421C541.322 98.6529 541.489 98.8746 541.489 99.2072C541.489 99.5952 541.304 99.78 541.156 99.8909C540.934 100.039 540.528 100.094 540.269 100.094H539.586V101.572H540.399C540.842 101.572 541.378 101.572 541.692 101.905C541.84 102.053 541.932 102.274 541.932 102.533C541.932 102.792 541.821 103.032 541.655 103.217C541.322 103.549 540.731 103.605 540.417 103.605C539.992 103.605 539.567 103.512 539.253 103.309C538.957 103.124 538.717 102.81 538.569 102.496L537.128 103.235C537.424 103.919 537.904 104.362 538.348 104.621C539.05 105.027 539.826 105.083 540.38 105.083C541.637 105.083 542.505 104.806 543.115 104.196C543.558 103.752 543.78 103.198 543.78 102.478C543.78 102.09 543.687 101.591 543.281 101.184C543.004 100.907 542.579 100.704 542.154 100.611C542.376 100.519 542.653 100.371 542.893 100.057C543.17 99.7061 543.226 99.3735 543.226 98.9855C543.226 98.3204 543.004 97.8215 542.413 97.3965C541.784 96.9531 541.101 96.8607 540.436 96.8607C539.937 96.8607 539.253 96.9161 538.606 97.1933C538.071 97.4335 537.683 97.7476 537.424 98.0617L538.588 99.0779ZM551.941 97.9693C551.201 97.0085 550.204 96.8607 549.631 96.8607C547.58 96.8607 545.843 98.4127 545.843 100.944C545.843 103.087 547.211 105.083 549.613 105.083C550.167 105.083 551.146 104.953 551.941 104.03V104.843H553.751V97.0639H551.941V97.9693ZM549.853 98.4866C550.998 98.4866 552.051 99.2996 552.051 100.999C552.051 102.625 550.998 103.457 549.853 103.457C548.541 103.457 547.691 102.33 547.691 100.981C547.691 99.5952 548.541 98.4866 549.853 98.4866ZM555.627 104.843H557.752L559.877 101.979H560.246V104.843H562.057V97.0639H559.156C558.362 97.0639 557.567 97.1378 556.902 97.7661C556.292 98.3388 556.181 99.0594 556.181 99.5583C556.181 100.113 556.329 100.685 556.828 101.166C557.124 101.443 557.549 101.683 558.066 101.757L555.627 104.843ZM560.246 100.501H559.175C558.731 100.501 558.399 100.464 558.177 100.316C557.992 100.186 557.807 99.9463 557.807 99.5583C557.807 99.2072 558.011 98.9301 558.251 98.7823C558.509 98.6345 558.842 98.616 559.193 98.616H560.246V100.501ZM564.925 97.0639V104.843H568.565C568.916 104.843 569.71 104.806 570.357 104.325C570.745 104.03 571.207 103.494 571.207 102.551C571.207 101.849 570.948 101.369 570.597 101.055C570.302 100.796 569.914 100.611 569.544 100.538C570.172 100.223 570.468 99.6507 570.468 99.0225C570.468 98.2095 570.024 97.7476 569.747 97.5259C569.156 97.0824 568.435 97.0639 567.973 97.0639H564.925ZM566.736 100.094V98.5421H567.622C567.9 98.5421 568.177 98.5236 568.417 98.6899C568.602 98.8192 568.731 99.0225 568.731 99.2996C568.731 99.4844 568.676 99.743 568.38 99.9278C568.325 99.9648 568.084 100.094 567.659 100.094H566.736ZM566.736 103.364V101.572H568.14C568.398 101.572 568.768 101.591 569.045 101.775C569.23 101.886 569.396 102.108 569.396 102.459C569.396 102.81 569.193 103.032 569.027 103.143C568.75 103.328 568.38 103.364 568.084 103.364H566.736ZM573.676 97.0639V104.843H575.487V101.942L575.782 101.646L578.369 104.843H580.66L577.076 100.464L580.475 97.0639H578.073L575.487 99.8354V97.0639H573.676ZM582.427 97.0639V105.434L587.748 100.316V104.843H589.559V96.3618L584.238 101.48V97.0639H582.427ZM438.004 126.843H439.851L440.627 122.944L443.103 127.434L445.579 122.944L446.355 126.843H448.203L446.318 118.362L443.103 124.293L439.888 118.362L438.004 126.843ZM455.636 124.219C455.47 124.515 455.23 124.829 454.916 125.069C454.546 125.346 454.177 125.457 453.678 125.457C453.235 125.457 452.717 125.383 452.292 124.958C451.904 124.57 451.664 123.942 451.627 123.387H457.207V123.166C457.207 122.353 457.115 120.912 456.117 119.877C455.655 119.397 454.86 118.861 453.623 118.861C452.514 118.861 451.664 119.267 451.017 119.914C450.204 120.745 449.779 121.909 449.779 123.11C449.779 124.274 450.186 125.346 450.925 126.085C451.664 126.824 452.514 127.083 453.549 127.083C454.38 127.083 455.212 126.898 455.84 126.492C456.339 126.177 456.819 125.66 457.152 125.069L455.636 124.219ZM451.756 121.909C451.849 121.521 452.052 121.152 452.311 120.912C452.551 120.671 452.957 120.413 453.586 120.413C454.177 120.413 454.565 120.634 454.805 120.856C455.082 121.115 455.285 121.484 455.359 121.909H451.756ZM463.391 119.064V121.946L461.044 119.064H458.864L461.876 122.611L458.568 126.843H460.822L463.169 123.72L463.391 123.979V126.843H465.201V123.979L465.423 123.72L467.77 126.843H470.024L466.716 122.611L469.728 119.064H467.548L465.201 121.946V119.064H463.391ZM472.846 119.064V122.113C472.846 123.055 472.754 123.683 472.532 124.163C472.292 124.644 471.811 125.143 471.109 125.18V129.06H472.772V126.843H478.204V129.06H479.867V125.18H478.685V119.064H472.846ZM476.874 125.18H473.678C474.158 124.81 474.583 124.145 474.583 122.796V120.727H476.874V125.18ZM481.171 131.074H483.204L489.393 119.064H487.361L485.107 123.609L482.89 119.064H480.709L484.035 125.623L481.171 131.074ZM491.235 126.843H493.046V123.609H496.261V126.843H498.071V119.064H496.261V121.946H493.046V119.064H491.235V126.843ZM506.633 119.969C505.894 119.009 504.896 118.861 504.324 118.861C502.273 118.861 500.536 120.413 500.536 122.944C500.536 125.087 501.903 127.083 504.305 127.083C504.859 127.083 505.839 126.953 506.633 126.03V126.843H508.444V119.064H506.633V119.969ZM504.545 120.487C505.691 120.487 506.744 121.3 506.744 122.999C506.744 124.625 505.691 125.457 504.545 125.457C503.234 125.457 502.384 124.33 502.384 122.981C502.384 121.595 503.234 120.487 504.545 120.487ZM513.128 125.937C513.941 126.935 515.031 127.083 515.456 127.083C517.304 127.083 519.225 125.531 519.225 122.907C519.225 120.431 517.489 118.861 515.438 118.861C514.662 118.861 513.793 119.119 513.128 119.914V119.064H511.317V131.074H513.128V125.937ZM515.216 120.487C516.528 120.487 517.378 121.595 517.378 122.981C517.378 124.33 516.528 125.457 515.216 125.457C514.07 125.457 513.017 124.625 513.017 122.999C513.017 121.3 514.07 120.487 515.216 120.487ZM525.443 118.861C523.097 118.861 521.286 120.561 521.286 122.963C521.286 125.346 523.097 127.083 525.443 127.083C527.79 127.083 529.6 125.346 529.6 122.963C529.6 120.561 527.79 118.861 525.443 118.861ZM525.443 125.457C524.021 125.457 523.134 124.478 523.134 122.981C523.134 121.207 524.298 120.487 525.443 120.487C526.589 120.487 527.753 121.207 527.753 122.981C527.753 124.478 526.866 125.457 525.443 125.457ZM532.733 119.064V122.113C532.733 123.055 532.64 123.683 532.419 124.163C532.178 124.644 531.698 125.143 530.996 125.18V129.06H532.659V126.843H538.091V129.06H539.754V125.18H538.571V119.064H532.733ZM536.761 125.18H533.564C534.045 124.81 534.47 124.145 534.47 122.796V120.727H536.761V125.18ZM541.631 126.843H543.441V123.609H546.656V126.843H548.467V119.064H546.656V121.946H543.441V119.064H541.631V126.843ZM555.089 118.861C552.742 118.861 550.932 120.561 550.932 122.963C550.932 125.346 552.742 127.083 555.089 127.083C557.435 127.083 559.246 125.346 559.246 122.963C559.246 120.561 557.435 118.861 555.089 118.861ZM555.089 125.457C553.666 125.457 552.779 124.478 552.779 122.981C552.779 121.207 553.943 120.487 555.089 120.487C556.234 120.487 557.398 121.207 557.398 122.981C557.398 124.478 556.512 125.457 555.089 125.457ZM561.713 119.064V127.434L567.034 122.316V126.843H568.845V118.362L563.524 123.48V119.064H561.713ZM562.304 115.701C562.729 117.235 564.244 117.881 565.298 117.881C566.351 117.881 567.866 117.235 568.291 115.701L566.813 115.276C566.554 116.108 566.092 116.477 565.298 116.477C564.854 116.477 564.097 116.348 563.782 115.276L562.304 115.701ZM462.392 141.064V148.843H464.203V145.942L464.499 145.646L467.085 148.843H469.377L465.792 144.464L469.192 141.064H466.79L464.203 143.835V141.064H462.392ZM474.714 140.861C472.367 140.861 470.557 142.561 470.557 144.963C470.557 147.346 472.367 149.083 474.714 149.083C477.06 149.083 478.871 147.346 478.871 144.963C478.871 142.561 477.06 140.861 474.714 140.861ZM474.714 147.457C473.291 147.457 472.404 146.478 472.404 144.981C472.404 143.207 473.568 142.487 474.714 142.487C475.859 142.487 477.023 143.207 477.023 144.981C477.023 146.478 476.136 147.457 474.714 147.457ZM480.451 148.843H482.299L483.075 144.944L485.551 149.434L488.027 144.944L488.803 148.843H490.65L488.766 140.362L485.551 146.293L482.336 140.362L480.451 148.843ZM492.633 141.064V149.434L497.955 144.316V148.843H499.765V140.362L494.444 145.48V141.064H492.633ZM508.653 141.415C507.821 140.953 507.119 140.861 506.528 140.861C504.994 140.861 504.015 141.397 503.405 142.006C502.833 142.579 502.223 143.558 502.223 145.018C502.223 146.441 502.777 147.364 503.332 147.937C504.071 148.713 504.994 149.083 506.288 149.083C507.489 149.083 508.209 148.75 508.653 148.473V146.459C508.025 147.161 507.156 147.457 506.417 147.457C505.752 147.457 505.179 147.217 504.773 146.829C504.422 146.478 504.071 145.868 504.071 144.963C504.071 144.094 504.403 143.503 504.736 143.17C505.068 142.838 505.604 142.487 506.454 142.487C507.008 142.487 507.821 142.634 508.653 143.447V141.415ZM516.989 141.415C516.158 140.953 515.455 140.861 514.864 140.861C513.331 140.861 512.351 141.397 511.742 142.006C511.169 142.579 510.559 143.558 510.559 145.018C510.559 146.441 511.113 147.364 511.668 147.937C512.407 148.713 513.331 149.083 514.624 149.083C515.825 149.083 516.546 148.75 516.989 148.473V146.459C516.361 147.161 515.492 147.457 514.753 147.457C514.088 147.457 513.515 147.217 513.109 146.829C512.758 146.478 512.407 145.868 512.407 144.963C512.407 144.094 512.739 143.503 513.072 143.17C513.405 142.838 513.94 142.487 514.79 142.487C515.345 142.487 516.158 142.634 516.989 143.447V141.415ZM519.302 141.064V149.434L524.623 144.316V148.843H526.434V140.362L521.112 145.48V141.064H519.302ZM534.748 146.219C534.582 146.515 534.342 146.829 534.028 147.069C533.658 147.346 533.289 147.457 532.79 147.457C532.346 147.457 531.829 147.383 531.404 146.958C531.016 146.57 530.776 145.942 530.739 145.387H536.319V145.166C536.319 144.353 536.227 142.912 535.229 141.877C534.767 141.397 533.972 140.861 532.735 140.861C531.626 140.861 530.776 141.267 530.129 141.914C529.316 142.745 528.891 143.909 528.891 145.11C528.891 146.274 529.298 147.346 530.037 148.085C530.776 148.824 531.626 149.083 532.661 149.083C533.492 149.083 534.323 148.898 534.952 148.492C535.451 148.177 535.931 147.66 536.264 147.069L534.748 146.219ZM530.868 143.909C530.961 143.521 531.164 143.152 531.423 142.912C531.663 142.671 532.069 142.413 532.698 142.413C533.289 142.413 533.677 142.634 533.917 142.856C534.194 143.115 534.397 143.484 534.471 143.909H530.868ZM538.789 141.064V149.434L544.11 144.316V148.843H545.921V140.362L540.599 145.48V141.064H538.789ZM539.38 137.701C539.805 139.235 541.32 139.881 542.373 139.881C543.426 139.881 544.941 139.235 545.366 137.701L543.888 137.276C543.63 138.108 543.168 138.477 542.373 138.477C541.93 138.477 541.172 138.348 540.858 137.276L539.38 137.701ZM450.209 155.588C449.932 156.323 449.599 157.362 449.391 158.249C449.072 159.634 449.003 160.923 449.003 161.852C449.003 162.877 449.1 164.041 449.294 165.067C449.336 165.288 449.599 166.605 450.209 168.198L451.082 167.796C450.791 166.993 450.541 166.161 450.361 165.261C450.098 164.013 450.029 163.016 450.029 161.879C450.029 160.674 450.126 159.593 450.375 158.387C450.569 157.445 450.832 156.641 451.082 155.99L450.209 155.588ZM456.231 165.843H457.257V156.6H455.22L454.679 157.57H456.231V165.843ZM465.904 156.6H462.232L460.888 161.062C461.719 160.48 462.343 160.424 462.675 160.424C463.992 160.424 464.948 161.367 464.948 162.697C464.948 164 463.978 165.067 462.675 165.067C462.038 165.067 461.567 164.831 461.179 164.512C460.902 164.291 460.708 164.069 460.555 163.764L459.738 164.346C459.959 164.72 460.25 165.039 460.541 165.288C461.165 165.801 461.858 166.009 462.606 166.009C464.421 166.009 465.974 164.748 465.974 162.683C465.974 160.882 464.782 159.482 462.925 159.482C462.703 159.482 462.523 159.496 462.343 159.537L462.939 157.542H465.904V156.6ZM473.472 165.039C473.901 165.593 474.553 166.009 475.481 166.009C477.227 166.009 478.239 164.582 478.239 163.002C478.239 161.45 477.241 159.953 475.439 159.953C475.024 159.953 474.151 160.05 473.472 160.895V160.092H472.474V169.03H473.472V165.039ZM475.342 165.122C474.165 165.122 473.416 164.166 473.416 162.988C473.416 161.602 474.4 160.84 475.329 160.84C476.257 160.84 477.213 161.588 477.213 163.002C477.213 164.152 476.506 165.122 475.342 165.122ZM484.752 160.909C484.489 160.563 483.893 159.953 482.784 159.953C481.315 159.953 479.985 160.979 479.985 162.96C479.985 164.983 481.329 166.009 482.784 166.009C483.796 166.009 484.42 165.468 484.752 165.039V165.843H485.75V160.092H484.752V160.909ZM482.895 160.84C483.782 160.84 484.808 161.491 484.808 162.974C484.808 164.11 484.115 165.122 482.895 165.122C481.703 165.122 481.011 164.194 481.011 162.96C481.011 161.561 481.911 160.84 482.895 160.84ZM492.651 156.142C492.527 156.461 492.277 156.697 491.501 156.877C490.836 157.029 490.115 157.154 489.492 157.584C487.898 158.678 487.857 161.297 487.857 162.323C487.857 163.334 487.954 164.485 488.827 165.288C489.201 165.635 489.838 166.009 490.808 166.009C492.693 166.009 493.954 164.706 493.954 162.988C493.954 161.27 492.679 159.953 490.961 159.953C489.935 159.953 489.242 160.369 488.868 161.006H488.841C488.882 159.953 489.326 158.914 490.046 158.373C490.6 157.972 491.335 157.847 491.875 157.708C492.485 157.556 493.427 157.251 493.76 156.142H492.651ZM490.905 160.84C491.958 160.84 492.928 161.574 492.928 162.988C492.928 164.388 491.945 165.122 490.905 165.122C489.88 165.122 488.882 164.401 488.882 162.988C488.882 161.588 489.852 160.84 490.905 160.84ZM498.75 166.009C500.496 166.009 501.798 164.734 501.798 162.988C501.798 161.242 500.51 159.953 498.75 159.953C496.99 159.953 495.701 161.242 495.701 162.988C495.701 164.734 497.004 166.009 498.75 166.009ZM498.75 160.84C499.803 160.84 500.773 161.574 500.773 162.988C500.773 164.388 499.789 165.122 498.75 165.122C497.724 165.122 496.727 164.401 496.727 162.988C496.727 161.588 497.697 160.84 498.75 160.84ZM506.982 165.843H507.98V160.092H506.982V162.669C506.553 162.752 506.109 162.794 505.735 162.794C505.43 162.794 505.042 162.766 504.862 162.42C504.765 162.254 504.737 161.949 504.737 161.741V160.092H503.74V161.879C503.74 162.434 503.837 162.946 504.225 163.293C504.668 163.695 505.333 163.709 505.624 163.709C506.026 163.709 506.622 163.639 506.982 163.584V165.843ZM510.438 160.092V166.244L514.373 162.004V165.843H515.371V159.648L511.435 163.889V160.092H510.438ZM517.004 165.843H518.223L520.039 163.501L521.854 165.843H523.074L520.69 162.78L522.796 160.092H521.577L520.066 162.046L518.584 160.092H517.364L519.457 162.766L517.004 165.843ZM528.933 160.092V162.655C528.933 163.237 528.891 163.778 528.697 164.18C528.503 164.582 528.129 164.914 527.63 164.928V167.367H528.545V165.843H532.924V167.367H533.838V164.928H532.979V160.092H528.933ZM531.982 164.928H529.238C529.778 164.457 529.931 163.833 529.931 163.168V161.006H531.982V164.928ZM535.468 165.843H536.466V163.362H539.182V165.843H540.18V160.092H539.182V162.448H536.466V160.092H535.468V165.843ZM546.904 163.916C546.78 164.194 546.572 164.485 546.309 164.706C545.976 164.983 545.602 165.122 545.131 165.122C544.133 165.122 543.315 164.36 543.301 163.168H547.777C547.805 162.406 547.597 161.519 547.237 161.006C546.891 160.507 546.184 159.953 545.061 159.953C543.329 159.953 542.276 161.283 542.276 163.002C542.276 165.136 543.731 166.009 545.117 166.009C545.851 166.009 546.503 165.773 547.029 165.302C547.32 165.039 547.57 164.692 547.736 164.374L546.904 163.916ZM543.371 162.337C543.523 161.477 544.216 160.84 545.061 160.84C545.907 160.84 546.586 161.436 546.752 162.337H543.371ZM549.885 160.092V166.244L553.821 162.004V165.843H554.819V159.648L550.883 163.889V160.092H549.885ZM550.384 157.611C550.675 158.429 551.423 158.955 552.393 158.955C553.364 158.955 554.112 158.429 554.403 157.611L553.571 157.293C553.433 157.764 553.045 158.124 552.393 158.124C551.742 158.124 551.354 157.764 551.216 157.293L550.384 157.611ZM557.228 155.99C557.477 156.641 557.74 157.445 557.934 158.387C558.184 159.593 558.281 160.674 558.281 161.879C558.281 163.016 558.212 164.013 557.948 165.261C557.768 166.161 557.519 166.993 557.228 167.796L558.101 168.198C558.71 166.605 558.974 165.288 559.015 165.067C559.209 164.041 559.306 162.877 559.306 161.852C559.306 160.923 559.237 159.634 558.918 158.249C558.71 157.362 558.378 156.323 558.101 155.588L557.228 155.99Z" fill="black"/>
<rect x="769.284" y="0.872498" width="238.464" height="238.464" rx="119.232" fill="#91BC55"/>
<path d="M845.346 100.519V112.843H847.23V102.292H852.514V112.843H854.399V100.519H845.346ZM861.358 104.861C859.012 104.861 857.201 106.561 857.201 108.963C857.201 111.346 859.012 113.083 861.358 113.083C863.705 113.083 865.515 111.346 865.515 108.963C865.515 106.561 863.705 104.861 861.358 104.861ZM861.358 111.457C859.935 111.457 859.049 110.478 859.049 108.981C859.049 107.207 860.213 106.487 861.358 106.487C862.504 106.487 863.668 107.207 863.668 108.981C863.668 110.478 862.781 111.457 861.358 111.457ZM874.375 105.064H868.537V109.812C868.537 110.108 868.5 110.533 868.26 110.829C868.019 111.106 867.521 111.309 866.985 111.18V112.843C867.816 112.972 868.832 112.824 869.534 112.048C870.181 111.346 870.274 110.478 870.274 109.812V106.727H872.565V112.843H874.375V105.064ZM876.666 117.074H878.698L884.888 105.064H882.856L880.602 109.609L878.384 105.064H876.204L879.53 111.623L876.666 117.074ZM890.942 112.843H892.753V105.064H890.942V108.242C890.591 108.371 890.203 108.445 889.723 108.445C889.538 108.445 889.095 108.427 888.818 108.26C888.448 108.039 888.356 107.651 888.356 107.189V105.064H886.545V107.558C886.545 108.076 886.582 108.852 887.302 109.424C887.931 109.923 888.744 109.997 889.353 109.997C889.612 109.997 890.203 109.979 890.942 109.831V112.843ZM901.076 110.219C900.909 110.515 900.669 110.829 900.355 111.069C899.986 111.346 899.616 111.457 899.117 111.457C898.674 111.457 898.156 111.383 897.731 110.958C897.343 110.57 897.103 109.942 897.066 109.387H902.646V109.166C902.646 108.353 902.554 106.912 901.556 105.877C901.094 105.397 900.3 104.861 899.062 104.861C897.953 104.861 897.103 105.267 896.457 105.914C895.644 106.745 895.219 107.909 895.219 109.11C895.219 110.274 895.625 111.346 896.364 112.085C897.103 112.824 897.953 113.083 898.988 113.083C899.819 113.083 900.651 112.898 901.279 112.492C901.778 112.177 902.258 111.66 902.591 111.069L901.076 110.219ZM897.196 107.909C897.288 107.521 897.491 107.152 897.75 106.912C897.99 106.671 898.397 106.413 899.025 106.413C899.616 106.413 900.004 106.634 900.244 106.856C900.521 107.115 900.725 107.484 900.799 107.909H897.196ZM905.116 112.843H906.927V109.609H910.142V112.843H911.952V105.064H910.142V107.946H906.927V105.064H905.116V112.843ZM914.823 105.064V113.434L920.145 108.316V112.843H921.955V104.362L916.634 109.48V105.064H914.823ZM930.27 110.219C930.104 110.515 929.864 110.829 929.55 111.069C929.18 111.346 928.811 111.457 928.312 111.457C927.868 111.457 927.351 111.383 926.926 110.958C926.538 110.57 926.298 109.942 926.261 109.387H931.841V109.166C931.841 108.353 931.748 106.912 930.751 105.877C930.289 105.397 929.494 104.861 928.256 104.861C927.148 104.861 926.298 105.267 925.651 105.914C924.838 106.745 924.413 107.909 924.413 109.11C924.413 110.274 924.82 111.346 925.559 112.085C926.298 112.824 927.148 113.083 928.182 113.083C929.014 113.083 929.845 112.898 930.473 112.492C930.972 112.177 931.453 111.66 931.785 111.069L930.27 110.219ZM926.39 107.909C926.483 107.521 926.686 107.152 926.944 106.912C927.185 106.671 927.591 106.413 928.219 106.413C928.811 106.413 929.199 106.634 929.439 106.856C929.716 107.115 929.919 107.484 929.993 107.909H926.39ZM838.298 127.415C837.466 126.953 836.764 126.861 836.173 126.861C834.639 126.861 833.66 127.397 833.05 128.006C832.477 128.579 831.868 129.558 831.868 131.018C831.868 132.441 832.422 133.364 832.976 133.937C833.715 134.713 834.639 135.083 835.933 135.083C837.134 135.083 837.854 134.75 838.298 134.473V132.459C837.669 133.161 836.801 133.457 836.062 133.457C835.397 133.457 834.824 133.217 834.418 132.829C834.066 132.478 833.715 131.868 833.715 130.963C833.715 130.094 834.048 129.503 834.381 129.17C834.713 128.838 835.249 128.487 836.099 128.487C836.653 128.487 837.466 128.634 838.298 129.447V127.415ZM840.61 127.064V134.843H844.25C844.601 134.843 845.396 134.806 846.042 134.325C846.43 134.03 846.892 133.494 846.892 132.551C846.892 131.849 846.634 131.369 846.283 131.055C845.987 130.796 845.599 130.611 845.229 130.538C845.858 130.223 846.153 129.651 846.153 129.022C846.153 128.209 845.71 127.748 845.433 127.526C844.841 127.082 844.121 127.064 843.659 127.064H840.61ZM842.421 130.094V128.542H843.308C843.585 128.542 843.862 128.524 844.102 128.69C844.287 128.819 844.417 129.022 844.417 129.3C844.417 129.484 844.361 129.743 844.065 129.928C844.01 129.965 843.77 130.094 843.345 130.094H842.421ZM842.421 133.364V131.572H843.825C844.084 131.572 844.453 131.591 844.731 131.775C844.915 131.886 845.082 132.108 845.082 132.459C845.082 132.81 844.878 133.032 844.712 133.143C844.435 133.328 844.065 133.364 843.77 133.364H842.421ZM849.361 127.064V135.434L854.683 130.316V134.843H856.493V126.362L851.172 131.48V127.064H849.361ZM860.023 127.064V130.113C860.023 131.055 859.93 131.683 859.709 132.163C859.468 132.644 858.988 133.143 858.286 133.18V137.06H859.949V134.843H865.381V137.06H867.044V133.18H865.861V127.064H860.023ZM864.051 133.18H860.854C861.335 132.81 861.76 132.145 861.76 130.796V128.727H864.051V133.18ZM874.371 132.219C874.205 132.515 873.965 132.829 873.651 133.069C873.281 133.346 872.912 133.457 872.413 133.457C871.969 133.457 871.452 133.383 871.027 132.958C870.639 132.57 870.399 131.942 870.362 131.387H875.942V131.166C875.942 130.353 875.849 128.912 874.852 127.877C874.39 127.397 873.595 126.861 872.357 126.861C871.249 126.861 870.399 127.267 869.752 127.914C868.939 128.745 868.514 129.909 868.514 131.11C868.514 132.274 868.921 133.346 869.66 134.085C870.399 134.824 871.249 135.083 872.283 135.083C873.115 135.083 873.946 134.898 874.575 134.492C875.073 134.177 875.554 133.66 875.886 133.069L874.371 132.219ZM870.491 129.909C870.584 129.521 870.787 129.152 871.045 128.912C871.286 128.671 871.692 128.413 872.32 128.413C872.912 128.413 873.3 128.634 873.54 128.856C873.817 129.115 874.02 129.484 874.094 129.909H870.491ZM883.77 128.727V127.064H877.414V128.727H879.686V134.843H881.497V128.727H883.77ZM890.899 132.219C890.733 132.515 890.493 132.829 890.179 133.069C889.809 133.346 889.44 133.457 888.941 133.457C888.497 133.457 887.98 133.383 887.555 132.958C887.167 132.57 886.927 131.942 886.89 131.387H892.47V131.166C892.47 130.353 892.377 128.912 891.38 127.877C890.918 127.397 890.123 126.861 888.885 126.861C887.777 126.861 886.927 127.267 886.28 127.914C885.467 128.745 885.042 129.909 885.042 131.11C885.042 132.274 885.449 133.346 886.188 134.085C886.927 134.824 887.777 135.083 888.811 135.083C889.643 135.083 890.474 134.898 891.102 134.492C891.601 134.177 892.082 133.66 892.414 133.069L890.899 132.219ZM887.019 129.909C887.111 129.521 887.315 129.152 887.573 128.912C887.814 128.671 888.22 128.413 888.848 128.413C889.44 128.413 889.828 128.634 890.068 128.856C890.345 129.115 890.548 129.484 890.622 129.909H887.019ZM901.332 127.064H895.494V131.812C895.494 132.108 895.457 132.533 895.217 132.829C894.976 133.106 894.478 133.309 893.942 133.18V134.843C894.773 134.972 895.789 134.824 896.492 134.048C897.138 133.346 897.231 132.478 897.231 131.812V128.727H899.522V134.843H901.332V127.064ZM904.196 134.843H907.023C907.799 134.843 908.612 134.843 909.295 134.177C909.646 133.826 909.997 133.217 909.997 132.311C909.997 131.849 909.905 131.184 909.388 130.611C908.686 129.835 907.799 129.817 907.041 129.817H906.007V127.064H904.196V134.843ZM906.007 133.291V131.369H906.856C907.134 131.369 907.503 131.369 907.799 131.554C908.02 131.702 908.187 131.942 908.187 132.33C908.187 132.81 907.91 133.032 907.78 133.124C907.54 133.272 907.189 133.291 906.838 133.291H906.007ZM918.194 127.415C917.363 126.953 916.661 126.861 916.07 126.861C914.536 126.861 913.557 127.397 912.947 128.006C912.374 128.579 911.765 129.558 911.765 131.018C911.765 132.441 912.319 133.364 912.873 133.937C913.612 134.713 914.536 135.083 915.829 135.083C917.03 135.083 917.751 134.75 918.194 134.473V132.459C917.566 133.161 916.698 133.457 915.959 133.457C915.294 133.457 914.721 133.217 914.314 132.829C913.963 132.478 913.612 131.868 913.612 130.963C913.612 130.094 913.945 129.503 914.277 129.17C914.61 128.838 915.146 128.487 915.996 128.487C916.55 128.487 917.363 128.634 918.194 129.447V127.415ZM926.046 128.727V127.064H919.69V128.727H921.963V134.843H923.773V128.727H926.046ZM927.923 127.064V134.843H931.563C931.914 134.843 932.709 134.806 933.355 134.325C933.743 134.03 934.205 133.494 934.205 132.551C934.205 131.849 933.946 131.369 933.595 131.055C933.3 130.796 932.912 130.611 932.542 130.538C933.17 130.223 933.466 129.651 933.466 129.022C933.466 128.209 933.023 127.748 932.745 127.526C932.154 127.082 931.434 127.064 930.972 127.064H927.923ZM929.734 130.094V128.542H930.621C930.898 128.542 931.175 128.524 931.415 128.69C931.6 128.819 931.729 129.022 931.729 129.3C931.729 129.484 931.674 129.743 931.378 129.928C931.323 129.965 931.083 130.094 930.658 130.094H929.734ZM929.734 133.364V131.572H931.138C931.397 131.572 931.766 131.591 932.043 131.775C932.228 131.886 932.394 132.108 932.394 132.459C932.394 132.81 932.191 133.032 932.025 133.143C931.748 133.328 931.378 133.364 931.083 133.364H929.734ZM942.365 127.969C941.626 127.009 940.628 126.861 940.055 126.861C938.005 126.861 936.268 128.413 936.268 130.944C936.268 133.087 937.635 135.083 940.037 135.083C940.591 135.083 941.571 134.953 942.365 134.03V134.843H944.176V127.064H942.365V127.969ZM940.277 128.487C941.423 128.487 942.476 129.3 942.476 130.999C942.476 132.625 941.423 133.457 940.277 133.457C938.965 133.457 938.115 132.33 938.115 130.981C938.115 129.595 938.965 128.487 940.277 128.487ZM798.925 161.074H800.958L807.147 149.064H805.115L802.861 153.609L800.644 149.064H798.463L801.789 155.623L798.925 161.074ZM813.202 156.843H815.012V149.064H813.202V152.242C812.851 152.371 812.463 152.445 811.982 152.445C811.797 152.445 811.354 152.427 811.077 152.26C810.707 152.039 810.615 151.651 810.615 151.189V149.064H808.804V151.558C808.804 152.076 808.841 152.852 809.562 153.424C810.19 153.923 811.003 153.997 811.613 153.997C811.871 153.997 812.463 153.979 813.202 153.831V156.843ZM823.575 149.969C822.836 149.009 821.838 148.861 821.266 148.861C819.215 148.861 817.478 150.413 817.478 152.944C817.478 155.087 818.845 157.083 821.247 157.083C821.802 157.083 822.781 156.953 823.575 156.03V156.843H825.386V149.064H823.575V149.969ZM821.487 150.487C822.633 150.487 823.686 151.3 823.686 152.999C823.686 154.625 822.633 155.457 821.487 155.457C820.176 155.457 819.326 154.33 819.326 152.981C819.326 151.595 820.176 150.487 821.487 150.487ZM834.283 149.415C833.451 148.953 832.749 148.861 832.158 148.861C830.625 148.861 829.645 149.397 829.036 150.006C828.463 150.579 827.853 151.558 827.853 153.018C827.853 154.441 828.407 155.364 828.962 155.937C829.701 156.713 830.625 157.083 831.918 157.083C833.119 157.083 833.839 156.75 834.283 156.473V154.459C833.655 155.161 832.786 155.457 832.047 155.457C831.382 155.457 830.809 155.217 830.403 154.829C830.052 154.478 829.701 153.868 829.701 152.963C829.701 152.094 830.033 151.503 830.366 151.17C830.698 150.838 831.234 150.487 832.084 150.487C832.638 150.487 833.451 150.634 834.283 151.447V149.415ZM842.134 150.727V149.064H835.778V150.727H838.051V156.843H839.862V150.727H842.134ZM844.012 156.843H845.822V153.609H849.037V156.843H850.848V149.064H849.037V151.946H845.822V149.064H844.012V156.843ZM853.719 149.064V157.434L859.04 152.316V156.843H860.851V148.362L855.53 153.48V149.064H853.719ZM863.715 149.064V156.843H865.526V153.942L865.821 153.646L868.408 156.843H870.699L867.115 152.464L870.515 149.064H868.113L865.526 151.835V149.064H863.715ZM878.157 149.969C877.418 149.009 876.42 148.861 875.847 148.861C873.797 148.861 872.06 150.413 872.06 152.944C872.06 155.087 873.427 157.083 875.829 157.083C876.383 157.083 877.363 156.953 878.157 156.03V156.843H879.968V149.064H878.157V149.969ZM876.069 150.487C877.215 150.487 878.268 151.3 878.268 152.999C878.268 154.625 877.215 155.457 876.069 155.457C874.757 155.457 873.907 154.33 873.907 152.981C873.907 151.595 874.757 150.487 876.069 150.487ZM896.6 156.843H898.632L892.794 143.798L886.659 156.843H888.692L890.041 153.868H895.306L896.6 156.843ZM890.817 152.094L892.72 147.918L894.549 152.094H890.817ZM905.182 150.228C904.905 149.729 904.554 149.433 904.295 149.267C903.852 148.972 903.408 148.861 902.854 148.861C901.893 148.861 901.302 149.23 900.951 149.6C900.545 150.025 900.304 150.634 900.304 151.263C900.304 151.762 900.452 152.186 900.859 152.574C901.154 152.87 901.579 153.073 901.93 153.24L902.596 153.554C902.891 153.683 903.15 153.812 903.372 154.034C903.538 154.219 903.612 154.404 903.612 154.625C903.612 154.847 903.501 155.087 903.353 155.235C903.187 155.401 902.891 155.494 902.614 155.494C902.189 155.494 901.93 155.309 901.819 155.198C901.653 155.05 901.487 154.718 901.395 154.459L899.916 155.161C900.101 155.716 900.471 156.251 900.914 156.584C901.468 157.009 902.097 157.083 902.596 157.083C903.408 157.083 904.166 156.88 904.776 156.214C905.201 155.752 905.459 155.143 905.459 154.441C905.459 153.905 905.312 153.424 904.887 152.999C904.591 152.685 904.203 152.482 903.796 152.279L902.873 151.817C902.485 151.614 902.374 151.577 902.263 151.503C902.097 151.392 902.004 151.263 902.004 151.059C902.004 150.893 902.078 150.745 902.171 150.653C902.281 150.542 902.466 150.45 902.725 150.45C903.298 150.45 903.649 150.819 903.833 151.115L905.182 150.228ZM910.921 150.727V149.064H909.535V146.219H907.725V149.064H906.967V150.727H907.725V156.843H909.535V150.727H910.921ZM918.412 149.969C917.673 149.009 916.675 148.861 916.103 148.861C914.052 148.861 912.315 150.413 912.315 152.944C912.315 155.087 913.682 157.083 916.084 157.083C916.638 157.083 917.618 156.953 918.412 156.03V156.843H920.223V149.064H918.412V149.969ZM916.324 150.487C917.47 150.487 918.523 151.3 918.523 152.999C918.523 154.625 917.47 155.457 916.324 155.457C915.013 155.457 914.163 154.33 914.163 152.981C914.163 151.595 915.013 150.487 916.324 150.487ZM923.078 156.843H924.889V153.11C924.889 150.597 925.72 150.487 926.533 150.487C927.217 150.487 927.956 150.542 927.956 152.519V156.843H929.766V152.076C929.766 150.875 929.582 150.339 929.286 149.914C929.046 149.581 928.436 148.861 926.995 148.861C926.552 148.861 925.665 148.916 924.889 149.785V149.064H923.078V156.843ZM938.332 149.969C937.593 149.009 936.595 148.861 936.023 148.861C933.972 148.861 932.235 150.413 932.235 152.944C932.235 155.087 933.602 157.083 936.004 157.083C936.559 157.083 937.538 156.953 938.332 156.03V156.843H940.143V149.064H938.332V149.969ZM936.244 150.487C937.39 150.487 938.443 151.3 938.443 152.999C938.443 154.625 937.39 155.457 936.244 155.457C934.933 155.457 934.083 154.33 934.083 152.981C934.083 151.595 934.933 150.487 936.244 150.487ZM950.124 144.519H948.239V156.843H950.124V151.17H955.408V156.843H957.292V144.519H955.408V149.397H950.124V144.519ZM960.501 149.064V153.572C960.501 154.57 960.612 155.401 961.332 156.122C962.034 156.843 962.995 157.083 963.79 157.083C964.658 157.083 965.619 156.824 966.321 156.122C967.041 155.401 967.152 154.57 967.152 153.572V149.064H965.342V153.517C965.342 153.979 965.323 154.515 965.009 154.921C964.769 155.235 964.344 155.457 963.827 155.457C963.309 155.457 962.884 155.235 962.644 154.921C962.33 154.515 962.311 153.979 962.311 153.517V149.064H960.501ZM971.838 143.373H970.028V156.843H971.838V156.03C972.633 156.953 973.612 157.083 974.166 157.083C976.568 157.083 977.936 155.087 977.936 152.944C977.936 150.413 976.199 148.861 974.148 148.861C973.575 148.861 972.577 149.009 971.838 149.969V143.373ZM973.926 150.487C975.238 150.487 976.088 151.595 976.088 152.981C976.088 154.33 975.238 155.457 973.926 155.457C972.781 155.457 971.728 154.625 971.728 152.999C971.728 151.3 972.781 150.487 973.926 150.487Z" fill="black"/>
<rect x="577.194" y="180.442" width="238.464" height="238.464" rx="119.232" fill="white"/>
<path d="M608.289 286.569C608.399 286.421 608.75 285.978 609.305 285.664C609.785 285.386 610.229 285.312 610.801 285.312C611.245 285.312 611.799 285.349 612.224 285.682C612.538 285.922 612.815 286.347 612.815 286.957C612.815 287.493 612.575 287.955 612.261 288.213C611.818 288.583 611.023 288.712 610.487 288.712H609.49V290.486H610.598C611.226 290.486 612.15 290.486 612.834 290.966C613.351 291.317 613.554 291.798 613.554 292.407C613.554 293.054 613.296 293.59 612.963 293.923C612.372 294.514 611.54 294.588 611.079 294.588C610.339 294.588 609.674 294.458 609.046 294.015C608.677 293.756 608.196 293.294 607.901 292.518L606.238 293.368C606.644 294.237 607.217 294.902 607.808 295.364C608.787 296.103 609.748 296.325 610.838 296.325C611.836 296.325 613.129 296.14 614.164 295.253C615.051 294.477 615.402 293.535 615.402 292.5C615.402 291.705 615.254 291.022 614.774 290.412C614.423 289.969 613.887 289.525 613.111 289.322C613.499 289.1 613.905 288.786 614.22 288.25C614.534 287.751 614.626 287.271 614.626 286.717C614.626 285.83 614.33 285.128 613.739 284.555C612.852 283.705 611.762 283.576 610.875 283.576C610.118 283.576 609.379 283.668 608.64 284.038C608.362 284.167 607.66 284.555 607.051 285.368L608.289 286.569ZM623.708 289.229C622.969 288.269 621.972 288.121 621.399 288.121C619.348 288.121 617.611 289.673 617.611 292.204C617.611 294.348 618.978 296.343 621.38 296.343C621.935 296.343 622.914 296.214 623.708 295.29V296.103H625.519V288.324H623.708V289.229ZM621.621 289.747C622.766 289.747 623.819 290.56 623.819 292.26C623.819 293.886 622.766 294.717 621.621 294.717C620.309 294.717 619.459 293.59 619.459 292.241C619.459 290.855 620.309 289.747 621.621 289.747ZM628.393 288.324V296.103H630.203V293.202L630.499 292.906L633.086 296.103H635.377L631.792 291.724L635.192 288.324H632.79L630.203 291.096V288.324H628.393ZM643.717 288.324H637.879V293.073C637.879 293.368 637.842 293.793 637.601 294.089C637.361 294.366 636.862 294.569 636.327 294.44V296.103C637.158 296.232 638.174 296.084 638.876 295.308C639.523 294.606 639.615 293.738 639.615 293.073V289.987H641.906V296.103H643.717V288.324ZM648.391 291.206V288.324H646.581V296.103H648.391V292.869H649.592C649.685 293.923 650.147 294.662 650.553 295.105C650.996 295.585 651.92 296.343 653.546 296.343C655.856 296.343 657.63 294.606 657.63 292.223C657.63 289.821 655.837 288.121 653.546 288.121C652.142 288.121 651.218 288.694 650.645 289.266C649.98 289.95 649.722 290.671 649.629 291.206H648.391ZM653.546 289.747C654.673 289.747 655.782 290.467 655.782 292.241C655.782 294.015 654.673 294.717 653.546 294.717C652.419 294.717 651.311 294.015 651.311 292.241C651.311 290.467 652.419 289.747 653.546 289.747ZM663.911 296.103H665.722V288.324H663.911V291.502C663.56 291.631 663.172 291.705 662.691 291.705C662.507 291.705 662.063 291.687 661.786 291.521C661.417 291.299 661.324 290.911 661.324 290.449V288.324H659.513V290.818C659.513 291.336 659.55 292.112 660.271 292.685C660.899 293.183 661.712 293.257 662.322 293.257C662.581 293.257 663.172 293.239 663.911 293.091V296.103ZM674.044 293.479C673.878 293.775 673.638 294.089 673.324 294.329C672.954 294.606 672.585 294.717 672.086 294.717C671.642 294.717 671.125 294.643 670.7 294.218C670.312 293.83 670.072 293.202 670.035 292.648H675.615V292.426C675.615 291.613 675.522 290.172 674.525 289.137C674.063 288.657 673.268 288.121 672.03 288.121C670.922 288.121 670.072 288.527 669.425 289.174C668.612 290.006 668.187 291.17 668.187 292.371C668.187 293.535 668.594 294.606 669.333 295.345C670.072 296.084 670.922 296.343 671.956 296.343C672.788 296.343 673.619 296.158 674.248 295.752C674.746 295.438 675.227 294.92 675.559 294.329L674.044 293.479ZM670.164 291.17C670.257 290.782 670.46 290.412 670.719 290.172C670.959 289.932 671.365 289.673 671.993 289.673C672.585 289.673 672.973 289.895 673.213 290.116C673.49 290.375 673.693 290.745 673.767 291.17H670.164ZM678.085 296.103H679.895V292.869H683.11V296.103H684.921V288.324H683.11V291.206H679.895V288.324H678.085V296.103ZM687.792 288.324V296.694L693.113 291.576V296.103H694.924V287.622L689.603 292.74V288.324H687.792ZM703.239 293.479C703.072 293.775 702.832 294.089 702.518 294.329C702.149 294.606 701.779 294.717 701.28 294.717C700.837 294.717 700.319 294.643 699.895 294.218C699.507 293.83 699.266 293.202 699.229 292.648H704.809V292.426C704.809 291.613 704.717 290.172 703.719 289.137C703.257 288.657 702.463 288.121 701.225 288.121C700.116 288.121 699.266 288.527 698.62 289.174C697.807 290.006 697.382 291.17 697.382 292.371C697.382 293.535 697.788 294.606 698.527 295.345C699.266 296.084 700.116 296.343 701.151 296.343C701.982 296.343 702.814 296.158 703.442 295.752C703.941 295.438 704.421 294.92 704.754 294.329L703.239 293.479ZM699.359 291.17C699.451 290.782 699.654 290.412 699.913 290.172C700.153 289.932 700.56 289.673 701.188 289.673C701.779 289.673 702.167 289.895 702.407 290.116C702.684 290.375 702.888 290.745 702.962 291.17H699.359ZM712.834 288.324V291.373C712.834 292.315 712.742 292.943 712.52 293.424C712.28 293.904 711.799 294.403 711.097 294.44V298.32H712.76V296.103H718.192V298.32H719.855V294.44H718.673V288.324H712.834ZM716.862 294.44H713.665C714.146 294.07 714.571 293.405 714.571 292.056V289.987H716.862V294.44ZM725.483 288.121C723.136 288.121 721.325 289.821 721.325 292.223C721.325 294.606 723.136 296.343 725.483 296.343C727.829 296.343 729.64 294.606 729.64 292.223C729.64 289.821 727.829 288.121 725.483 288.121ZM725.483 294.717C724.06 294.717 723.173 293.738 723.173 292.241C723.173 290.467 724.337 289.747 725.483 289.747C726.628 289.747 727.792 290.467 727.792 292.241C727.792 293.738 726.905 294.717 725.483 294.717ZM732.107 296.103H733.918V289.987H736.874V288.324H732.107V296.103ZM742.317 288.121C739.971 288.121 738.16 289.821 738.16 292.223C738.16 294.606 739.971 296.343 742.317 296.343C744.664 296.343 746.475 294.606 746.475 292.223C746.475 289.821 744.664 288.121 742.317 288.121ZM742.317 294.717C740.895 294.717 740.008 293.738 740.008 292.241C740.008 290.467 741.172 289.747 742.317 289.747C743.463 289.747 744.627 290.467 744.627 292.241C744.627 293.738 743.74 294.717 742.317 294.717ZM748.942 288.324V296.103H752.582C752.933 296.103 753.727 296.066 754.374 295.585C754.762 295.29 755.224 294.754 755.224 293.812C755.224 293.11 754.965 292.629 754.614 292.315C754.318 292.056 753.93 291.872 753.561 291.798C754.189 291.484 754.485 290.911 754.485 290.283C754.485 289.47 754.041 289.008 753.764 288.786C753.173 288.343 752.452 288.324 751.99 288.324H748.942ZM750.752 291.354V289.802H751.639C751.916 289.802 752.194 289.784 752.434 289.95C752.619 290.079 752.748 290.283 752.748 290.56C752.748 290.745 752.692 291.003 752.397 291.188C752.341 291.225 752.101 291.354 751.676 291.354H750.752ZM750.752 294.625V292.832H752.157C752.415 292.832 752.785 292.851 753.062 293.036C753.247 293.147 753.413 293.368 753.413 293.719C753.413 294.07 753.21 294.292 753.043 294.403C752.766 294.588 752.397 294.625 752.101 294.625H750.752ZM761.444 288.121C759.097 288.121 757.286 289.821 757.286 292.223C757.286 294.606 759.097 296.343 761.444 296.343C763.79 296.343 765.601 294.606 765.601 292.223C765.601 289.821 763.79 288.121 761.444 288.121ZM761.444 294.717C760.021 294.717 759.134 293.738 759.134 292.241C759.134 290.467 760.298 289.747 761.444 289.747C762.589 289.747 763.753 290.467 763.753 292.241C763.753 293.738 762.866 294.717 761.444 294.717ZM769.879 295.197C770.691 296.195 771.782 296.343 772.207 296.343C774.054 296.343 775.976 294.791 775.976 292.167C775.976 289.691 774.239 288.121 772.188 288.121C771.412 288.121 770.544 288.38 769.879 289.174V288.324H768.068V300.334H769.879V295.197ZM771.966 289.747C773.278 289.747 774.128 290.855 774.128 292.241C774.128 293.59 773.278 294.717 771.966 294.717C770.821 294.717 769.768 293.886 769.768 292.26C769.768 290.56 770.821 289.747 771.966 289.747ZM784.134 289.229C783.395 288.269 782.397 288.121 781.824 288.121C779.773 288.121 778.036 289.673 778.036 292.204C778.036 294.348 779.404 296.343 781.806 296.343C782.36 296.343 783.339 296.214 784.134 295.29V296.103H785.944V288.324H784.134V289.229ZM782.046 289.747C783.191 289.747 784.245 290.56 784.245 292.26C784.245 293.886 783.191 294.717 782.046 294.717C780.734 294.717 779.884 293.59 779.884 292.241C779.884 290.855 780.734 289.747 782.046 289.747Z" fill="black"/>
<path opacity="0.8" d="M662.916 336.346C662.454 335.255 662.029 333.944 661.789 332.909C661.586 331.985 661.364 330.562 661.364 328.548C661.364 326.996 661.512 325.371 661.808 324.04C662.029 323.024 662.436 321.786 662.916 320.696L661.253 320.049C660.681 321.25 660.33 322.322 660.034 323.652C659.627 325.463 659.517 326.83 659.517 328.548C659.517 330.211 659.609 331.523 659.997 333.26C660.293 334.572 660.662 335.736 661.253 336.992L662.916 336.346ZM671.905 321.176C668.209 321.176 665.493 323.948 665.493 327.569C665.493 331.191 668.209 333.962 671.905 333.962C675.6 333.962 678.316 331.191 678.316 327.569C678.316 323.948 675.6 321.176 671.905 321.176ZM671.905 332.225C669.262 332.225 667.378 330.304 667.378 327.569C667.378 324.835 669.262 322.913 671.905 322.913C674.547 322.913 676.431 324.835 676.431 327.569C676.431 330.304 674.547 332.225 671.905 332.225ZM680.926 333.722H682.737V330.489H685.952V333.722H687.763V325.943H685.952V328.826H682.737V325.943H680.926V333.722ZM697.027 325.943H691.188V330.692C691.188 330.987 691.151 331.412 690.911 331.708C690.671 331.985 690.172 332.188 689.636 332.059V333.722C690.468 333.851 691.484 333.703 692.186 332.927C692.833 332.225 692.925 331.357 692.925 330.692V327.606H695.216V333.722H697.027V325.943ZM705.581 326.849C704.842 325.888 703.844 325.74 703.271 325.74C701.221 325.74 699.484 327.292 699.484 329.823C699.484 331.967 700.851 333.962 703.253 333.962C703.807 333.962 704.787 333.833 705.581 332.909V333.722H707.392V325.943H705.581V326.849ZM703.493 327.366C704.639 327.366 705.692 328.179 705.692 329.879C705.692 331.505 704.639 332.336 703.493 332.336C702.181 332.336 701.331 331.209 701.331 329.86C701.331 328.475 702.181 327.366 703.493 327.366ZM710.265 325.943V334.313L715.587 329.195V333.722H717.397V325.241L712.076 330.359V325.943H710.265ZM710.857 322.581C711.282 324.114 712.797 324.761 713.85 324.761C714.903 324.761 716.418 324.114 716.843 322.581L715.365 322.156C715.106 322.987 714.644 323.357 713.85 323.357C713.406 323.357 712.649 323.227 712.335 322.156L710.857 322.581ZM720.261 333.722H722.072V330.489H725.287V333.722H727.098V325.943H725.287V328.826H722.072V325.943H720.261V333.722ZM731.595 336.992C732.186 335.736 732.556 334.572 732.851 333.26C733.239 331.523 733.332 330.211 733.332 328.548C733.332 326.83 733.221 325.463 732.814 323.652C732.519 322.322 732.168 321.25 731.595 320.049L729.932 320.696C730.412 321.786 730.819 323.024 731.04 324.04C731.336 325.371 731.484 326.996 731.484 328.548C731.484 330.562 731.262 331.985 731.059 332.909C730.819 333.944 730.394 335.255 729.932 336.346L731.595 336.992Z" fill="black"/>
<rect x="192.65" y="180.442" width="238.464" height="238.464" rx="119.232" fill="white"/>
<path d="M245.769 269.588V281.912H247.654V271.362H252.938V281.912H254.823V269.588H245.769ZM261.782 273.93C259.435 273.93 257.624 275.63 257.624 278.032C257.624 280.416 259.435 282.153 261.782 282.153C264.128 282.153 265.939 280.416 265.939 278.032C265.939 275.63 264.128 273.93 261.782 273.93ZM261.782 280.527C260.359 280.527 259.472 279.547 259.472 278.051C259.472 276.277 260.636 275.556 261.782 275.556C262.927 275.556 264.091 276.277 264.091 278.051C264.091 279.547 263.204 280.527 261.782 280.527ZM269.071 274.134V277.182C269.071 278.125 268.979 278.753 268.757 279.233C268.517 279.714 268.036 280.213 267.334 280.249V284.13H268.997V281.912H274.429V284.13H276.092V280.249H274.91V274.134H269.071ZM273.099 280.249H269.903C270.383 279.88 270.808 279.215 270.808 277.866V275.797H273.099V280.249ZM283.66 275.039C282.921 274.078 281.923 273.93 281.35 273.93C279.299 273.93 277.563 275.482 277.563 278.014C277.563 280.157 278.93 282.153 281.332 282.153C281.886 282.153 282.865 282.023 283.66 281.099V281.912H285.471V274.134H283.66V275.039ZM281.572 275.556C282.718 275.556 283.771 276.369 283.771 278.069C283.771 279.695 282.718 280.527 281.572 280.527C280.26 280.527 279.41 279.4 279.41 278.051C279.41 276.665 280.26 275.556 281.572 275.556ZM292.557 281.912H294.368V274.134H292.557V277.312C292.206 277.441 291.818 277.515 291.337 277.515C291.153 277.515 290.709 277.496 290.432 277.33C290.062 277.108 289.97 276.72 289.97 276.259V274.134H288.159V276.628C288.159 277.145 288.196 277.921 288.917 278.494C289.545 278.993 290.358 279.067 290.968 279.067C291.226 279.067 291.818 279.048 292.557 278.901V281.912ZM302.93 275.039C302.191 274.078 301.194 273.93 300.621 273.93C298.57 273.93 296.833 275.482 296.833 278.014C296.833 280.157 298.2 282.153 300.602 282.153C301.157 282.153 302.136 282.023 302.93 281.099V281.912H304.741V274.134H302.93V275.039ZM300.843 275.556C301.988 275.556 303.041 276.369 303.041 278.069C303.041 279.695 301.988 280.527 300.843 280.527C299.531 280.527 298.681 279.4 298.681 278.051C298.681 276.665 299.531 275.556 300.843 275.556ZM313.558 276.148C313.779 275.907 314.02 275.741 314.241 275.63C314.592 275.464 314.888 275.409 315.257 275.409C315.498 275.409 315.867 275.427 316.126 275.612C316.292 275.723 316.458 275.944 316.458 276.277C316.458 276.665 316.274 276.85 316.126 276.961C315.904 277.108 315.498 277.164 315.239 277.164H314.555V278.642H315.368C315.812 278.642 316.348 278.642 316.662 278.975C316.809 279.122 316.902 279.344 316.902 279.603C316.902 279.861 316.791 280.102 316.625 280.286C316.292 280.619 315.701 280.674 315.387 280.674C314.962 280.674 314.537 280.582 314.223 280.379C313.927 280.194 313.687 279.88 313.539 279.566L312.098 280.305C312.394 280.989 312.874 281.432 313.317 281.691C314.02 282.097 314.796 282.153 315.35 282.153C316.606 282.153 317.475 281.875 318.084 281.266C318.528 280.822 318.75 280.268 318.75 279.547C318.75 279.159 318.657 278.66 318.251 278.254C317.974 277.977 317.549 277.774 317.124 277.681C317.345 277.589 317.622 277.441 317.863 277.127C318.14 276.776 318.195 276.443 318.195 276.055C318.195 275.39 317.974 274.891 317.382 274.466C316.754 274.023 316.07 273.93 315.405 273.93C314.906 273.93 314.223 273.986 313.576 274.263C313.04 274.503 312.652 274.817 312.394 275.131L313.558 276.148ZM326.91 275.039C326.171 274.078 325.173 273.93 324.601 273.93C322.55 273.93 320.813 275.482 320.813 278.014C320.813 280.157 322.18 282.153 324.582 282.153C325.137 282.153 326.116 282.023 326.91 281.099V281.912H328.721V274.134H326.91V275.039ZM324.822 275.556C325.968 275.556 327.021 276.369 327.021 278.069C327.021 279.695 325.968 280.527 324.822 280.527C323.511 280.527 322.661 279.4 322.661 278.051C322.661 276.665 323.511 275.556 324.822 275.556ZM330.597 281.912H332.722L334.846 279.048H335.216V281.912H337.027V274.134H334.126C333.331 274.134 332.537 274.208 331.872 274.836C331.262 275.409 331.151 276.129 331.151 276.628C331.151 277.182 331.299 277.755 331.798 278.236C332.093 278.513 332.518 278.753 333.036 278.827L330.597 281.912ZM335.216 277.57H334.144C333.701 277.57 333.368 277.533 333.147 277.386C332.962 277.256 332.777 277.016 332.777 276.628C332.777 276.277 332.98 276 333.22 275.852C333.479 275.704 333.812 275.686 334.163 275.686H335.216V277.57ZM339.895 274.134V281.912H343.534C343.886 281.912 344.68 281.875 345.327 281.395C345.715 281.099 346.177 280.564 346.177 279.621C346.177 278.919 345.918 278.439 345.567 278.125C345.271 277.866 344.883 277.681 344.514 277.607C345.142 277.293 345.438 276.72 345.438 276.092C345.438 275.279 344.994 274.817 344.717 274.596C344.126 274.152 343.405 274.134 342.943 274.134H339.895ZM341.705 277.164V275.612H342.592C342.869 275.612 343.146 275.593 343.387 275.76C343.571 275.889 343.701 276.092 343.701 276.369C343.701 276.554 343.645 276.813 343.35 276.998C343.294 277.035 343.054 277.164 342.629 277.164H341.705ZM341.705 280.434V278.642H343.109C343.368 278.642 343.738 278.66 344.015 278.845C344.2 278.956 344.366 279.178 344.366 279.529C344.366 279.88 344.163 280.102 343.996 280.213C343.719 280.397 343.35 280.434 343.054 280.434H341.705ZM348.646 274.134V281.912H350.456V279.012L350.752 278.716L353.339 281.912H355.63L352.045 277.533L355.445 274.134H353.043L350.456 276.905V274.134H348.646ZM357.397 274.134V282.504L362.718 277.386V281.912H364.529V273.432L359.208 278.55V274.134H357.397ZM378.306 274.485C377.475 274.023 376.773 273.93 376.181 273.93C374.648 273.93 373.669 274.466 373.059 275.076C372.486 275.649 371.876 276.628 371.876 278.088C371.876 279.51 372.431 280.434 372.985 281.007C373.724 281.783 374.648 282.153 375.941 282.153C377.142 282.153 377.863 281.82 378.306 281.543V279.529C377.678 280.231 376.81 280.527 376.07 280.527C375.405 280.527 374.833 280.286 374.426 279.898C374.075 279.547 373.724 278.938 373.724 278.032C373.724 277.164 374.057 276.573 374.389 276.24C374.722 275.907 375.257 275.556 376.107 275.556C376.662 275.556 377.475 275.704 378.306 276.517V274.485ZM217.198 296.134V303.912H219.009V297.797H222.15V303.912H223.961V296.134H217.198ZM232.524 297.039C231.785 296.078 230.788 295.93 230.215 295.93C228.164 295.93 226.427 297.482 226.427 300.014C226.427 302.157 227.794 304.153 230.196 304.153C230.751 304.153 231.73 304.023 232.524 303.099V303.912H234.335V296.134H232.524V297.039ZM230.437 297.556C231.582 297.556 232.635 298.369 232.635 300.069C232.635 301.695 231.582 302.527 230.437 302.527C229.125 302.527 228.275 301.4 228.275 300.051C228.275 298.665 229.125 297.556 230.437 297.556ZM237.209 296.134V303.912H239.019V301.012L239.315 300.716L241.902 303.912H244.193L240.608 299.533L244.008 296.134H241.606L239.019 298.905V296.134H237.209ZM251.41 301.289C251.244 301.584 251.004 301.898 250.69 302.139C250.32 302.416 249.951 302.527 249.452 302.527C249.008 302.527 248.491 302.453 248.066 302.028C247.678 301.64 247.438 301.012 247.401 300.457H252.981V300.236C252.981 299.423 252.889 297.981 251.891 296.947C251.429 296.466 250.634 295.93 249.396 295.93C248.288 295.93 247.438 296.337 246.791 296.984C245.978 297.815 245.553 298.979 245.553 300.18C245.553 301.344 245.96 302.416 246.699 303.155C247.438 303.894 248.288 304.153 249.323 304.153C250.154 304.153 250.985 303.968 251.614 303.561C252.113 303.247 252.593 302.73 252.926 302.139L251.41 301.289ZM247.53 298.979C247.623 298.591 247.826 298.222 248.085 297.981C248.325 297.741 248.731 297.482 249.36 297.482C249.951 297.482 250.339 297.704 250.579 297.926C250.856 298.185 251.059 298.554 251.133 298.979H247.53ZM260.809 297.797V296.134H254.453V297.797H256.726V303.912H258.536V297.797H260.809ZM266.238 295.93C263.892 295.93 262.081 297.63 262.081 300.032C262.081 302.416 263.892 304.153 266.238 304.153C268.585 304.153 270.396 302.416 270.396 300.032C270.396 297.63 268.585 295.93 266.238 295.93ZM266.238 302.527C264.816 302.527 263.929 301.547 263.929 300.051C263.929 298.277 265.093 297.556 266.238 297.556C267.384 297.556 268.548 298.277 268.548 300.051C268.548 301.547 267.661 302.527 266.238 302.527ZM271.976 303.912H273.824L274.6 300.014L277.075 304.504L279.551 300.014L280.327 303.912H282.175L280.29 295.432L277.075 301.363L273.86 295.432L271.976 303.912ZM289.713 296.134V299.182C289.713 300.125 289.621 300.753 289.399 301.233C289.159 301.714 288.678 302.213 287.976 302.249V306.13H289.639V303.912H295.071V306.13H296.734V302.249H295.552V296.134H289.713ZM293.741 302.249H290.544C291.025 301.88 291.45 301.215 291.45 299.866V297.797H293.741V302.249ZM302.362 295.93C300.015 295.93 298.204 297.63 298.204 300.032C298.204 302.416 300.015 304.153 302.362 304.153C304.708 304.153 306.519 302.416 306.519 300.032C306.519 297.63 304.708 295.93 302.362 295.93ZM302.362 302.527C300.939 302.527 300.052 301.547 300.052 300.051C300.052 298.277 301.216 297.556 302.362 297.556C303.507 297.556 304.671 298.277 304.671 300.051C304.671 301.547 303.784 302.527 302.362 302.527ZM308.986 296.134V303.912H310.797V301.012L311.092 300.716L313.679 303.912H315.97L312.386 299.533L315.785 296.134H313.383L310.797 298.905V296.134H308.986ZM317.164 308.143H319.197L325.386 296.134H323.354L321.1 300.679L318.883 296.134H316.702L320.028 302.693L317.164 308.143ZM326.341 303.912H328.189L328.965 300.014L331.441 304.504L333.917 300.014L334.693 303.912H336.54L334.656 295.432L331.441 301.363L328.226 295.432L326.341 303.912ZM343.974 301.289C343.808 301.584 343.567 301.898 343.253 302.139C342.884 302.416 342.514 302.527 342.015 302.527C341.572 302.527 341.055 302.453 340.63 302.028C340.242 301.64 340.001 301.012 339.964 300.457H345.544V300.236C345.544 299.423 345.452 297.981 344.454 296.947C343.992 296.466 343.198 295.93 341.96 295.93C340.851 295.93 340.001 296.337 339.355 296.984C338.542 297.815 338.117 298.979 338.117 300.18C338.117 301.344 338.523 302.416 339.262 303.155C340.001 303.894 340.851 304.153 341.886 304.153C342.717 304.153 343.549 303.968 344.177 303.561C344.676 303.247 345.156 302.73 345.489 302.139L343.974 301.289ZM340.094 298.979C340.186 298.591 340.389 298.222 340.648 297.981C340.888 297.741 341.295 297.482 341.923 297.482C342.514 297.482 342.902 297.704 343.142 297.926C343.42 298.185 343.623 298.554 343.697 298.979H340.094ZM348.014 303.912H349.825V300.679H353.04V303.912H354.851V296.134H353.04V299.016H349.825V296.134H348.014V303.912ZM363.08 297.797V296.134H356.724V297.797H358.996V303.912H360.807V297.797H363.08ZM368.509 295.93C366.163 295.93 364.352 297.63 364.352 300.032C364.352 302.416 366.163 304.153 368.509 304.153C370.856 304.153 372.667 302.416 372.667 300.032C372.667 297.63 370.856 295.93 368.509 295.93ZM368.509 302.527C367.087 302.527 366.2 301.547 366.2 300.051C366.2 298.277 367.364 297.556 368.509 297.556C369.655 297.556 370.819 298.277 370.819 300.051C370.819 301.547 369.932 302.527 368.509 302.527ZM375.134 296.134V303.912H378.774C379.125 303.912 379.919 303.875 380.566 303.395C380.954 303.099 381.416 302.564 381.416 301.621C381.416 300.919 381.157 300.439 380.806 300.125C380.51 299.866 380.122 299.681 379.753 299.607C380.381 299.293 380.677 298.72 380.677 298.092C380.677 297.279 380.233 296.817 379.956 296.596C379.365 296.152 378.644 296.134 378.182 296.134H375.134ZM376.944 299.164V297.612H377.831C378.108 297.612 378.385 297.593 378.626 297.76C378.81 297.889 378.94 298.092 378.94 298.369C378.94 298.554 378.884 298.813 378.589 298.998C378.533 299.035 378.293 299.164 377.868 299.164H376.944ZM376.944 302.434V300.642H378.349C378.607 300.642 378.977 300.66 379.254 300.845C379.439 300.956 379.605 301.178 379.605 301.529C379.605 301.88 379.402 302.102 379.235 302.213C378.958 302.397 378.589 302.434 378.293 302.434H376.944ZM388.775 303.912H390.585V300.679H393.8V303.912H395.611V296.134H393.8V299.016H390.585V296.134H388.775V303.912ZM404.173 297.039C403.434 296.078 402.436 295.93 401.863 295.93C399.812 295.93 398.075 297.482 398.075 300.014C398.075 302.157 399.443 304.153 401.845 304.153C402.399 304.153 403.378 304.023 404.173 303.099V303.912H405.983V296.134H404.173V297.039ZM402.085 297.556C403.23 297.556 404.284 298.369 404.284 300.069C404.284 301.695 403.23 302.527 402.085 302.527C400.773 302.527 399.923 301.4 399.923 300.051C399.923 298.665 400.773 297.556 402.085 297.556ZM267.63 318.134V325.912H269.441V319.797H272.582V325.912H274.393V318.134H267.63ZM283.658 318.134H277.82V322.882C277.82 323.178 277.783 323.603 277.543 323.898C277.302 324.176 276.803 324.379 276.268 324.249V325.912C277.099 326.042 278.115 325.894 278.817 325.118C279.464 324.416 279.556 323.547 279.556 322.882V319.797H281.848V325.912H283.658V318.134ZM292.213 319.039C291.473 318.078 290.476 317.93 289.903 317.93C287.852 317.93 286.115 319.482 286.115 322.014C286.115 324.157 287.483 326.153 289.884 326.153C290.439 326.153 291.418 326.023 292.213 325.099V325.912H294.023V318.134H292.213V319.039ZM290.125 319.556C291.27 319.556 292.323 320.369 292.323 322.069C292.323 323.695 291.27 324.527 290.125 324.527C288.813 324.527 287.963 323.4 287.963 322.051C287.963 320.665 288.813 319.556 290.125 319.556ZM302.255 319.797V318.134H295.899V319.797H298.172V325.912H299.982V319.797H302.255ZM308.073 330.143H309.883V326.042C311.343 326.06 312.396 325.617 313.08 325.025C313.782 324.434 314.392 323.51 314.392 322.014C314.392 320.388 313.616 319.464 313.098 319.021C312.156 318.208 310.899 318.004 309.883 318.004V313.588H308.073V318.004C307.056 318.004 305.8 318.208 304.858 319.021C304.34 319.464 303.564 320.388 303.564 322.014C303.564 323.51 304.174 324.434 304.876 325.025C305.56 325.617 306.613 326.06 308.073 326.042V330.143ZM308.073 324.416C307.444 324.434 306.761 324.268 306.317 323.954C305.966 323.714 305.412 323.159 305.412 322.014C305.412 320.757 306.096 320.203 306.373 320.037C306.853 319.723 307.592 319.63 308.073 319.63V324.416ZM309.883 319.63C310.364 319.63 311.103 319.723 311.583 320.037C311.86 320.203 312.544 320.757 312.544 322.014C312.544 323.159 311.99 323.714 311.639 323.954C311.195 324.268 310.511 324.434 309.883 324.416V319.63ZM320.64 317.93C318.293 317.93 316.483 319.63 316.483 322.032C316.483 324.416 318.293 326.153 320.64 326.153C322.986 326.153 324.797 324.416 324.797 322.032C324.797 319.63 322.986 317.93 320.64 317.93ZM320.64 324.527C319.217 324.527 318.33 323.547 318.33 322.051C318.33 320.277 319.494 319.556 320.64 319.556C321.785 319.556 322.949 320.277 322.949 322.051C322.949 323.547 322.062 324.527 320.64 324.527ZM329.075 325.007C329.888 326.005 330.978 326.153 331.403 326.153C333.25 326.153 335.172 324.601 335.172 321.977C335.172 319.501 333.435 317.93 331.384 317.93C330.608 317.93 329.74 318.189 329.075 318.984V318.134H327.264V330.143H329.075V325.007ZM331.163 319.556C332.474 319.556 333.324 320.665 333.324 322.051C333.324 323.4 332.474 324.527 331.163 324.527C330.017 324.527 328.964 323.695 328.964 322.069C328.964 320.369 330.017 319.556 331.163 319.556ZM336.752 325.912H338.6L339.376 322.014L341.852 326.504L344.328 322.014L345.104 325.912H346.951L345.067 317.432L341.852 323.363L338.637 317.432L336.752 325.912ZM354.385 323.289C354.219 323.584 353.978 323.898 353.664 324.139C353.295 324.416 352.925 324.527 352.426 324.527C351.983 324.527 351.466 324.453 351.041 324.028C350.653 323.64 350.413 323.012 350.376 322.457H355.955V322.236C355.955 321.423 355.863 319.981 354.865 318.947C354.403 318.466 353.609 317.93 352.371 317.93C351.262 317.93 350.413 318.337 349.766 318.984C348.953 319.815 348.528 320.979 348.528 322.18C348.528 323.344 348.934 324.416 349.673 325.155C350.413 325.894 351.262 326.153 352.297 326.153C353.129 326.153 353.96 325.968 354.588 325.561C355.087 325.247 355.567 324.73 355.9 324.139L354.385 323.289ZM350.505 320.979C350.597 320.591 350.801 320.222 351.059 319.981C351.299 319.741 351.706 319.482 352.334 319.482C352.925 319.482 353.313 319.704 353.554 319.926C353.831 320.185 354.034 320.554 354.108 320.979H350.505ZM259.148 341.039C258.409 340.078 257.411 339.93 256.838 339.93C254.787 339.93 253.05 341.482 253.05 344.014C253.05 346.157 254.418 348.153 256.82 348.153C257.374 348.153 258.353 348.023 259.148 347.099V347.912H260.958V340.134H259.148V341.039ZM257.06 341.556C258.205 341.556 259.259 342.369 259.259 344.069C259.259 345.695 258.205 346.527 257.06 346.527C255.748 346.527 254.898 345.4 254.898 344.051C254.898 342.665 255.748 341.556 257.06 341.556ZM268.58 341.298C268.303 340.799 267.952 340.503 267.694 340.337C267.25 340.041 266.807 339.93 266.252 339.93C265.292 339.93 264.7 340.3 264.349 340.67C263.943 341.094 263.703 341.704 263.703 342.332C263.703 342.831 263.85 343.256 264.257 343.644C264.553 343.94 264.978 344.143 265.329 344.309L265.994 344.624C266.289 344.753 266.548 344.882 266.77 345.104C266.936 345.289 267.01 345.473 267.01 345.695C267.01 345.917 266.899 346.157 266.751 346.305C266.585 346.471 266.289 346.564 266.012 346.564C265.587 346.564 265.329 346.379 265.218 346.268C265.051 346.12 264.885 345.788 264.793 345.529L263.315 346.231C263.499 346.785 263.869 347.321 264.312 347.654C264.867 348.079 265.495 348.153 265.994 348.153C266.807 348.153 267.564 347.949 268.174 347.284C268.599 346.822 268.858 346.213 268.858 345.51C268.858 344.975 268.71 344.494 268.285 344.069C267.989 343.755 267.601 343.552 267.195 343.349L266.271 342.887C265.883 342.683 265.772 342.647 265.661 342.573C265.495 342.462 265.402 342.332 265.402 342.129C265.402 341.963 265.476 341.815 265.569 341.723C265.68 341.612 265.864 341.519 266.123 341.519C266.696 341.519 267.047 341.889 267.232 342.185L268.58 341.298ZM274.319 341.797V340.134H272.934V337.288H271.123V340.134H270.365V341.797H271.123V347.912H272.934V341.797H274.319ZM281.81 341.039C281.071 340.078 280.074 339.93 279.501 339.93C277.45 339.93 275.713 341.482 275.713 344.014C275.713 346.157 277.08 348.153 279.482 348.153C280.037 348.153 281.016 348.023 281.81 347.099V347.912H283.621V340.134H281.81V341.039ZM279.723 341.556C280.868 341.556 281.921 342.369 281.921 344.069C281.921 345.695 280.868 346.527 279.723 346.527C278.411 346.527 277.561 345.4 277.561 344.051C277.561 342.665 278.411 341.556 279.723 341.556ZM286.476 347.912H288.287V344.18C288.287 341.667 289.118 341.556 289.931 341.556C290.615 341.556 291.354 341.612 291.354 343.589V347.912H293.165V343.145C293.165 341.944 292.98 341.409 292.684 340.984C292.444 340.651 291.834 339.93 290.393 339.93C289.95 339.93 289.063 339.986 288.287 340.854V340.134H286.476V347.912ZM301.731 341.039C300.991 340.078 299.994 339.93 299.421 339.93C297.37 339.93 295.633 341.482 295.633 344.014C295.633 346.157 297 348.153 299.402 348.153C299.957 348.153 300.936 348.023 301.731 347.099V347.912H303.541V340.134H301.731V341.039ZM299.643 341.556C300.788 341.556 301.841 342.369 301.841 344.069C301.841 345.695 300.788 346.527 299.643 346.527C298.331 346.527 297.481 345.4 297.481 344.051C297.481 342.665 298.331 341.556 299.643 341.556ZM306.415 347.912H308.225V344.162C308.225 343.164 308.336 342.573 308.595 342.203C308.835 341.852 309.316 341.556 309.925 341.556C310.387 341.556 310.738 341.741 310.942 341.963C311.293 342.351 311.293 342.85 311.293 343.312V347.912H313.103V343.145C313.103 342.591 313.085 341.686 312.604 340.984C312.383 340.67 311.736 339.93 310.313 339.93C309.851 339.93 309.001 340.004 308.225 340.799V334.443H306.415V347.912ZM315.779 340.134V344.642C315.779 345.64 315.89 346.471 316.611 347.192C317.313 347.912 318.274 348.153 319.068 348.153C319.937 348.153 320.897 347.894 321.599 347.192C322.32 346.471 322.431 345.64 322.431 344.642V340.134H320.62V344.587C320.62 345.048 320.602 345.584 320.288 345.991C320.047 346.305 319.622 346.527 319.105 346.527C318.588 346.527 318.163 346.305 317.923 345.991C317.609 345.584 317.59 345.048 317.59 344.587V340.134H315.779ZM327.117 334.443H325.306V347.912H327.117V347.099C327.912 348.023 328.891 348.153 329.445 348.153C331.847 348.153 333.214 346.157 333.214 344.014C333.214 341.482 331.478 339.93 329.427 339.93C328.854 339.93 327.856 340.078 327.117 341.039V334.443ZM329.205 341.556C330.517 341.556 331.367 342.665 331.367 344.051C331.367 345.4 330.517 346.527 329.205 346.527C328.059 346.527 327.006 345.695 327.006 344.069C327.006 342.369 328.059 341.556 329.205 341.556ZM335.755 347.025C335.755 347.635 336.254 348.134 336.864 348.134C337.474 348.134 337.972 347.635 337.972 347.025C337.972 346.416 337.474 345.917 336.864 345.917C336.254 345.917 335.755 346.416 335.755 347.025ZM346.937 340.485C346.106 340.023 345.404 339.93 344.813 339.93C343.279 339.93 342.3 340.466 341.69 341.076C341.117 341.649 340.508 342.628 340.508 344.088C340.508 345.51 341.062 346.434 341.616 347.007C342.355 347.783 343.279 348.153 344.572 348.153C345.773 348.153 346.494 347.82 346.937 347.543V345.529C346.309 346.231 345.441 346.527 344.702 346.527C344.037 346.527 343.464 346.286 343.057 345.898C342.706 345.547 342.355 344.938 342.355 344.032C342.355 343.164 342.688 342.573 343.02 342.24C343.353 341.907 343.889 341.556 344.739 341.556C345.293 341.556 346.106 341.704 346.937 342.517V340.485ZM353.001 339.93C350.654 339.93 348.844 341.63 348.844 344.032C348.844 346.416 350.654 348.153 353.001 348.153C355.347 348.153 357.158 346.416 357.158 344.032C357.158 341.63 355.347 339.93 353.001 339.93ZM353.001 346.527C351.578 346.527 350.691 345.547 350.691 344.051C350.691 342.277 351.855 341.556 353.001 341.556C354.146 341.556 355.31 342.277 355.31 344.051C355.31 345.547 354.424 346.527 353.001 346.527ZM359.625 347.912H361.436V343.903C361.436 343.238 361.473 342.573 361.787 342.129C362.027 341.797 362.415 341.556 362.859 341.556C363.505 341.556 363.782 341.944 363.893 342.24C363.967 342.406 364.06 342.757 364.06 343.626V347.912H365.87V343.903C365.87 343.238 365.907 342.573 366.221 342.129C366.462 341.797 366.85 341.556 367.293 341.556C367.94 341.556 368.217 341.944 368.328 342.24C368.402 342.406 368.494 342.757 368.494 343.626V347.912H370.305V343.108C370.305 341.981 370.046 341.409 369.898 341.15C369.455 340.374 368.623 339.93 367.681 339.93C366.997 339.93 366.018 340.152 365.371 341.076C364.928 340.318 364.17 339.93 363.357 339.93C362.766 339.93 362.046 340.115 361.436 340.854V340.134H359.625V347.912Z" fill="black"/>
<path opacity="0.2" d="M107.365 32.9261L119.302 28.7088H127.088V74.125H118.135V38.1814L109.57 40.5819L107.365 32.9261Z" fill="black"/>
<path opacity="0.2" d="M327.173 256.125H296.809V249.442L312.315 233.482C315.776 229.805 317.506 226.778 317.506 224.399C317.506 222.625 316.944 221.198 315.819 220.116C314.738 219.035 313.332 218.494 311.602 218.494C308.142 218.494 305.611 220.268 304.011 223.815L296.485 219.403C297.869 216.332 299.88 213.974 302.519 212.331C305.2 210.644 308.185 209.801 311.472 209.801C315.581 209.801 319.106 211.098 322.048 213.693C324.989 216.245 326.459 219.706 326.459 224.074C326.459 228.789 323.972 233.633 318.998 238.607L310.11 247.496H327.173V256.125Z" fill="black"/>
<path opacity="0.2" d="M517.434 37.1052L508.934 48.1348C512.092 49.0431 514.601 50.6435 516.46 52.936C518.364 55.2284 519.315 57.9534 519.315 61.1109C519.315 65.7822 517.736 69.4372 514.579 72.0756C511.508 74.7141 507.68 76.0333 503.095 76.0333C499.505 76.0333 496.326 75.2115 493.558 73.5679C490.79 71.881 488.778 69.502 487.524 66.431L495.18 62.0192C496.261 65.5227 498.9 67.2745 503.095 67.2745C505.388 67.2745 507.161 66.7338 508.415 65.6525C509.713 64.5279 510.362 63.014 510.362 61.1109C510.362 59.251 509.713 57.7587 508.415 56.6341C507.161 55.5095 505.388 54.9472 503.095 54.9472H501.149L497.71 49.7568L506.664 38.0784H488.886V29.7088H517.434V37.1052Z" fill="black"/>
<path opacity="0.2" d="M884.545 44.2533H889.216C893.628 44.2533 897.305 45.5725 900.246 48.211C903.231 50.8062 904.723 54.4395 904.723 59.1109C904.723 63.7822 903.144 67.4372 899.987 70.0756C896.916 72.7141 893.088 74.0333 888.503 74.0333C884.783 74.0333 881.517 73.2115 878.706 71.5679C875.938 69.881 873.926 67.4588 872.672 64.3013L880.328 59.8246C881.409 63.4578 884.134 65.2745 888.503 65.2745C890.795 65.2745 892.569 64.7338 893.823 63.6525C895.121 62.5279 895.769 61.014 895.769 59.1109C895.769 57.251 895.142 55.7587 893.888 54.6341C892.634 53.5095 890.925 52.9472 888.762 52.9472H875.008L876.824 27.7088H902.582V36.0784H885.129L884.545 44.2533Z" fill="black"/>
<path opacity="0.2" d="M709.581 241.1H714.447V249.404H709.581V257.125H700.563V249.404H679.087V241.1L694.204 211.709H703.807L688.755 241.1H700.563V230.329H709.581V241.1Z" fill="black"/>
<path d="M228.2 216.818L223.2 208.157L218.199 216.818L228.2 216.818ZM203.765 203.71L221.016 213.67L221.882 212.17L204.631 202.21L203.765 203.71Z" fill="#1A1919"/>
<path d="M420.472 202.961L410.471 202.961L415.472 211.621L420.472 202.961ZM396.903 217.568L414.155 207.608L413.288 206.108L396.037 216.068L396.903 217.568Z" fill="#1A1919"/>
<path d="M612.167 216.818L607.166 208.157L602.166 216.818L612.167 216.818ZM587.732 203.71L604.983 213.67L605.849 212.17L588.598 202.21L587.732 203.71Z" fill="#1A1919"/>
<path d="M805.593 202.961L795.593 202.961L800.593 211.621L805.593 202.961ZM782.025 217.568L799.276 207.608L798.41 206.108L781.159 216.068L782.025 217.568Z" fill="#1A1919"/>
</svg>
