<svg width="1008" height="419" viewBox="0 0 1008 419" fill="none" xmlns="http://www.w3.org/2000/svg">
<rect x="0.378143" y="0.872437" width="238.464" height="238.464" rx="119.232" fill="white"/>
<path d="M72.2162 89.4708H70.3316V101.795H72.2162V96.6951L72.5857 96.3256L76.9831 101.795H79.496L73.8975 95.0507L79.459 89.4708H76.9831L72.2162 94.3856V89.4708ZM84.5759 93.8128C82.2293 93.8128 80.4186 95.5126 80.4186 97.9146C80.4186 100.298 82.2293 102.035 84.5759 102.035C86.9224 102.035 88.7331 100.298 88.7331 97.9146C88.7331 95.5126 86.9224 93.8128 84.5759 93.8128ZM84.5759 100.409C83.1532 100.409 82.2663 99.4297 82.2663 97.9331C82.2663 96.1593 83.4303 95.4387 84.5759 95.4387C85.7214 95.4387 86.8854 96.1593 86.8854 97.9331C86.8854 99.4297 85.9986 100.409 84.5759 100.409ZM90.3133 101.795H92.1609L92.937 97.8961L95.4128 102.386L97.8887 97.8961L98.6647 101.795H100.512L98.6278 93.3139L95.4128 99.2449L92.1979 93.3139L90.3133 101.795ZM102.495 94.016V101.795H104.306V95.6789H107.447V101.795H109.258V94.016H102.495ZM117.821 94.9214C117.082 93.9606 116.085 93.8128 115.512 93.8128C113.461 93.8128 111.724 95.3648 111.724 97.8961C111.724 100.039 113.091 102.035 115.493 102.035C116.048 102.035 117.027 101.906 117.821 100.982V101.795H119.632V94.016H117.821V94.9214ZM115.734 95.4387C116.879 95.4387 117.932 96.2517 117.932 97.9515C117.932 99.5775 116.879 100.409 115.734 100.409C114.422 100.409 113.572 99.2819 113.572 97.9331C113.572 96.5473 114.422 95.4387 115.734 95.4387ZM122.506 101.795H124.316V98.5613H127.531V101.795H129.342V94.016H127.531V96.8984H124.316V94.016H122.506V101.795ZM132.213 94.016V102.386L137.534 97.2679V101.795H139.345V93.3139L134.024 98.4319V94.016H132.213ZM141.212 101.795H143.336L145.461 98.9308H145.831V101.795H147.641V94.016H144.741C143.946 94.016 143.152 94.0899 142.486 94.7181C141.877 95.2909 141.766 96.0115 141.766 96.5104C141.766 97.0647 141.914 97.6374 142.413 98.1178C142.708 98.395 143.133 98.6352 143.65 98.7091L141.212 101.795ZM145.831 97.4527H144.759C144.316 97.4527 143.983 97.4157 143.761 97.2679C143.577 97.1386 143.392 96.8984 143.392 96.5104C143.392 96.1593 143.595 95.8822 143.835 95.7344C144.094 95.5865 144.426 95.5681 144.778 95.5681H145.831V97.4527ZM150.509 101.795H152.32V98.5613H155.535V101.795H157.346V94.016H155.535V96.8984H152.32V94.016H150.509V101.795ZM160.217 101.795H163.044C163.82 101.795 164.633 101.795 165.316 101.13C165.667 100.778 166.018 100.169 166.018 99.2634C166.018 98.8015 165.926 98.1363 165.409 97.5635C164.707 96.7875 163.82 96.769 163.062 96.769H162.027V94.016H160.217V101.795ZM162.027 100.243V98.3211H162.877C163.155 98.3211 163.524 98.3211 163.82 98.5058C164.041 98.6537 164.208 98.8939 164.208 99.2819C164.208 99.7623 163.931 99.984 163.801 100.076C163.561 100.224 163.21 100.243 162.859 100.243H162.027ZM166.831 101.795H168.642V94.016H166.831V101.795ZM41.6152 111.471V123.795H43.4999V118.695L43.8694 118.326L48.2668 123.795H49.0059V126.566H50.7796V122.021H49.3015L45.1812 117.051L50.7427 111.471H48.2668L43.4999 116.386V111.471H41.6152ZM57.6913 116.921C56.9523 115.961 55.9545 115.813 55.3818 115.813C53.3309 115.813 51.5941 117.365 51.5941 119.896C51.5941 122.039 52.9613 124.035 55.3633 124.035C55.9176 124.035 56.8968 123.906 57.6913 122.982V123.795H59.502V116.016H57.6913V116.921ZM55.6035 117.439C56.749 117.439 57.8022 118.252 57.8022 119.952C57.8022 121.577 56.749 122.409 55.6035 122.409C54.2916 122.409 53.4417 121.282 53.4417 119.933C53.4417 118.547 54.2916 117.439 55.6035 117.439ZM63.4287 118.03C63.6505 117.79 63.8907 117.623 64.1124 117.513C64.4634 117.346 64.7591 117.291 65.1286 117.291C65.3688 117.291 65.7383 117.309 65.997 117.494C66.1633 117.605 66.3296 117.827 66.3296 118.159C66.3296 118.547 66.1448 118.732 65.997 118.843C65.7753 118.991 65.3688 119.046 65.1101 119.046H64.4265V120.524H65.2395C65.6829 120.524 66.2187 120.524 66.5328 120.857C66.6806 121.005 66.773 121.226 66.773 121.485C66.773 121.744 66.6622 121.984 66.4959 122.169C66.1633 122.501 65.572 122.557 65.2579 122.557C64.833 122.557 64.408 122.464 64.0939 122.261C63.7983 122.076 63.5581 121.762 63.4103 121.448L61.9691 122.187C62.2647 122.871 62.7451 123.314 63.1885 123.573C63.8907 123.979 64.6667 124.035 65.221 124.035C66.4774 124.035 67.3458 123.758 67.9555 123.148C68.399 122.705 68.6207 122.15 68.6207 121.43C68.6207 121.042 68.5283 120.543 68.1218 120.136C67.8447 119.859 67.4197 119.656 66.9947 119.564C67.2164 119.471 67.4936 119.323 67.7338 119.009C68.0109 118.658 68.0664 118.326 68.0664 117.938C68.0664 117.272 67.8447 116.774 67.2534 116.349C66.6252 115.905 65.9416 115.813 65.2764 115.813C64.7775 115.813 64.0939 115.868 63.4472 116.145C62.9114 116.386 62.5234 116.7 62.2647 117.014L63.4287 118.03ZM76.7814 116.921C76.0423 115.961 75.0446 115.813 74.4718 115.813C72.4209 115.813 70.6841 117.365 70.6841 119.896C70.6841 122.039 72.0514 124.035 74.4534 124.035C75.0077 124.035 75.9869 123.906 76.7814 122.982V123.795H78.5921V116.016H76.7814V116.921ZM74.6936 117.439C75.8391 117.439 76.8923 118.252 76.8923 119.952C76.8923 121.577 75.8391 122.409 74.6936 122.409C73.3817 122.409 72.5318 121.282 72.5318 119.933C72.5318 118.547 73.3817 117.439 74.6936 117.439ZM81.4657 116.016V123.795H83.2764V120.894L83.572 120.598L86.1587 123.795H86.7869V126.012H88.4498V122.132H87.101L84.8654 119.416L88.265 116.016H85.8631L83.2764 118.788V116.016H81.4657ZM96.3484 116.367C95.517 115.905 94.8149 115.813 94.2236 115.813C92.69 115.813 91.7108 116.349 91.1011 116.958C90.5283 117.531 89.9186 118.51 89.9186 119.97C89.9186 121.393 90.4729 122.317 91.0271 122.889C91.7662 123.665 92.69 124.035 93.9834 124.035C95.1844 124.035 95.905 123.702 96.3484 123.425V121.411C95.7202 122.113 94.8518 122.409 94.1127 122.409C93.4476 122.409 92.8748 122.169 92.4683 121.781C92.1173 121.43 91.7662 120.82 91.7662 119.915C91.7662 119.046 92.0988 118.455 92.4314 118.122C92.7639 117.79 93.2998 117.439 94.1497 117.439C94.704 117.439 95.517 117.587 96.3484 118.4V116.367ZM104.2 117.679V116.016H97.8439V117.679H100.116V123.795H101.927V117.679H104.2ZM111.569 116.921C110.83 115.961 109.833 115.813 109.26 115.813C107.209 115.813 105.472 117.365 105.472 119.896C105.472 122.039 106.839 124.035 109.241 124.035C109.796 124.035 110.775 123.906 111.569 122.982V123.795H113.38V116.016H111.569V116.921ZM109.482 117.439C110.627 117.439 111.68 118.252 111.68 119.952C111.68 121.577 110.627 122.409 109.482 122.409C108.17 122.409 107.32 121.282 107.32 119.933C107.32 118.547 108.17 117.439 109.482 117.439ZM116.254 123.795H118.064V120.561H121.279V123.795H123.09V116.016H121.279V118.898H118.064V116.016H116.254V123.795ZM126.626 116.016V119.065C126.626 120.007 126.534 120.635 126.312 121.116C126.072 121.596 125.592 122.095 124.889 122.132V126.012H126.552V123.795H131.984V126.012H133.647V122.132H132.465V116.016H126.626ZM130.654 122.132H127.458C127.938 121.762 128.363 121.097 128.363 119.748V117.679H130.654V122.132ZM141.215 116.921C140.476 115.961 139.478 115.813 138.905 115.813C136.854 115.813 135.118 117.365 135.118 119.896C135.118 122.039 136.485 124.035 138.887 124.035C139.441 124.035 140.42 123.906 141.215 122.982V123.795H143.026V116.016H141.215V116.921ZM139.127 117.439C140.273 117.439 141.326 118.252 141.326 119.952C141.326 121.577 140.273 122.409 139.127 122.409C137.815 122.409 136.965 121.282 136.965 119.933C136.965 118.547 137.815 117.439 139.127 117.439ZM156.147 117.679V116.016H149.791V117.679H152.064V123.795H153.875V117.679H156.147ZM158.024 116.016V123.795H159.835V116.016H158.024ZM157.766 112.801C157.766 113.466 158.265 113.965 158.93 113.965C159.595 113.965 160.094 113.466 160.094 112.801C160.094 112.136 159.595 111.637 158.93 111.637C158.265 111.637 157.766 112.136 157.766 112.801ZM164.508 122.889C165.321 123.887 166.412 124.035 166.836 124.035C168.684 124.035 170.606 122.483 170.606 119.859C170.606 117.383 168.869 115.813 166.818 115.813C166.042 115.813 165.174 116.071 164.508 116.866V116.016H162.698V128.026H164.508V122.889ZM166.596 117.439C167.908 117.439 168.758 118.547 168.758 119.933C168.758 121.282 167.908 122.409 166.596 122.409C165.451 122.409 164.398 121.577 164.398 119.952C164.398 118.252 165.451 117.439 166.596 117.439ZM173.073 116.016V123.795H174.883V120.894L175.179 120.598L177.766 123.795H180.057L176.472 119.416L179.872 116.016H177.47L174.883 118.788V116.016H173.073ZM187.275 121.171C187.108 121.467 186.868 121.781 186.554 122.021C186.184 122.298 185.815 122.409 185.316 122.409C184.873 122.409 184.355 122.335 183.93 121.91C183.542 121.522 183.302 120.894 183.265 120.34H188.845V120.118C188.845 119.305 188.753 117.864 187.755 116.829C187.293 116.349 186.498 115.813 185.261 115.813C184.152 115.813 183.302 116.219 182.655 116.866C181.842 117.697 181.417 118.861 181.417 120.062C181.417 121.226 181.824 122.298 182.563 123.037C183.302 123.776 184.152 124.035 185.187 124.035C186.018 124.035 186.85 123.85 187.478 123.444C187.977 123.13 188.457 122.612 188.79 122.021L187.275 121.171ZM183.394 118.861C183.487 118.473 183.69 118.104 183.949 117.864C184.189 117.623 184.595 117.365 185.224 117.365C185.815 117.365 186.203 117.587 186.443 117.808C186.72 118.067 186.923 118.436 186.997 118.861H183.394ZM190.742 128.026H192.774L198.964 116.016H196.932L194.678 120.561L192.46 116.016H190.28L193.606 122.575L190.742 128.026Z" fill="black"/>
<path opacity="0.8" d="M86.1001 153.037C85.6382 151.947 85.2132 150.636 84.973 149.601C84.7698 148.677 84.5481 147.254 84.5481 145.24C84.5481 143.688 84.6959 142.062 84.9915 140.732C85.2132 139.716 85.6197 138.478 86.1001 137.388L84.4372 136.741C83.8644 137.942 83.5134 139.014 83.2178 140.344C82.8113 142.155 82.7004 143.522 82.7004 145.24C82.7004 146.903 82.7928 148.215 83.1808 149.952C83.4764 151.264 83.846 152.428 84.4372 153.684L86.1001 153.037ZM95.0884 137.868C91.3931 137.868 88.677 140.64 88.677 144.261C88.677 147.883 91.3931 150.654 95.0884 150.654C98.7837 150.654 101.5 147.883 101.5 144.261C101.5 140.64 98.7837 137.868 95.0884 137.868ZM95.0884 148.917C92.4462 148.917 90.5616 146.996 90.5616 144.261C90.5616 141.527 92.4462 139.605 95.0884 139.605C97.7305 139.605 99.6152 141.527 99.6152 144.261C99.6152 146.996 97.7305 148.917 95.0884 148.917ZM104.11 150.414H105.921V147.18H109.136V150.414H110.947V142.635H109.136V145.518H105.921V142.635H104.11V150.414ZM120.211 142.635H114.372V147.384C114.372 147.679 114.335 148.104 114.095 148.4C113.855 148.677 113.356 148.88 112.82 148.751V150.414C113.651 150.543 114.668 150.395 115.37 149.619C116.016 148.917 116.109 148.049 116.109 147.384V144.298H118.4V150.414H120.211V142.635ZM128.765 143.541C128.026 142.58 127.028 142.432 126.455 142.432C124.404 142.432 122.668 143.984 122.668 146.515C122.668 148.659 124.035 150.654 126.437 150.654C126.991 150.654 127.97 150.525 128.765 149.601V150.414H130.576V142.635H128.765V143.541ZM126.677 144.058C127.823 144.058 128.876 144.871 128.876 146.571C128.876 148.197 127.823 149.028 126.677 149.028C125.365 149.028 124.515 147.901 124.515 146.552C124.515 145.166 125.365 144.058 126.677 144.058ZM133.449 142.635V151.005L138.77 145.887V150.414H140.581V141.933L135.26 147.051V142.635H133.449ZM134.04 139.272C134.465 140.806 135.98 141.453 137.034 141.453C138.087 141.453 139.602 140.806 140.027 139.272L138.549 138.847C138.29 139.679 137.828 140.048 137.034 140.048C136.59 140.048 135.833 139.919 135.519 138.847L134.04 139.272ZM143.445 150.414H145.256V147.18H148.471V150.414H150.282V142.635H148.471V145.518H145.256V142.635H143.445V150.414ZM154.779 153.684C155.37 152.428 155.739 151.264 156.035 149.952C156.423 148.215 156.515 146.903 156.515 145.24C156.515 143.522 156.405 142.155 155.998 140.344C155.702 139.014 155.351 137.942 154.779 136.741L153.116 137.388C153.596 138.478 154.003 139.716 154.224 140.732C154.52 142.062 154.668 143.688 154.668 145.24C154.668 147.254 154.446 148.677 154.243 149.601C154.003 150.636 153.578 151.947 153.116 153.037L154.779 153.684Z" fill="black"/>
<rect x="384.923" y="0.872498" width="238.464" height="238.464" rx="119.232" fill="white"/>
<path d="M448.846 104.843H450.953L453.761 100.131L456.459 104.843H458.565L454.851 98.4127L458.399 92.5187H456.292L453.835 96.6944L451.433 92.5187H449.327L452.726 98.4127L448.846 104.843ZM466.162 97.9693C465.423 97.0085 464.425 96.8607 463.852 96.8607C461.801 96.8607 460.064 98.4127 460.064 100.944C460.064 103.087 461.432 105.083 463.834 105.083C464.388 105.083 465.367 104.953 466.162 104.03V104.843H467.972V97.0639H466.162V97.9693ZM464.074 98.4866C465.219 98.4866 466.272 99.2996 466.272 100.999C466.272 102.625 465.219 103.457 464.074 103.457C462.762 103.457 461.912 102.33 461.912 100.981C461.912 99.5952 462.762 98.4866 464.074 98.4866ZM477.239 97.0639H471.4V101.812C471.4 102.108 471.363 102.533 471.123 102.829C470.883 103.106 470.384 103.309 469.848 103.18V104.843C470.68 104.972 471.696 104.824 472.398 104.048C473.045 103.346 473.137 102.478 473.137 101.812V98.7268H475.428V104.843H477.239V97.0639ZM480.102 104.843H482.929C483.705 104.843 484.518 104.843 485.202 104.177C485.553 103.826 485.904 103.217 485.904 102.311C485.904 101.849 485.811 101.184 485.294 100.611C484.592 99.8354 483.705 99.817 482.948 99.817H481.913V97.0639H480.102V104.843ZM481.913 103.291V101.369H482.763C483.04 101.369 483.409 101.369 483.705 101.554C483.927 101.702 484.093 101.942 484.093 102.33C484.093 102.81 483.816 103.032 483.687 103.124C483.446 103.272 483.095 103.291 482.744 103.291H481.913ZM486.717 104.843H488.527V97.0639H486.717V104.843ZM491.397 97.0639V104.843H493.208V101.942L493.504 101.646L496.09 104.843H496.719V107.06H498.382V103.18H497.033L494.797 100.464L498.197 97.0639H495.795L493.208 99.8354V97.0639H491.397ZM505.948 97.9693C505.209 97.0085 504.211 96.8607 503.638 96.8607C501.587 96.8607 499.85 98.4127 499.85 100.944C499.85 103.087 501.218 105.083 503.62 105.083C504.174 105.083 505.153 104.953 505.948 104.03V104.843H507.758V97.0639H505.948V97.9693ZM503.86 98.4866C505.005 98.4866 506.058 99.2996 506.058 100.999C506.058 102.625 505.005 103.457 503.86 103.457C502.548 103.457 501.698 102.33 501.698 100.981C501.698 99.5952 502.548 98.4866 503.86 98.4866ZM512.443 103.937C513.256 104.935 514.346 105.083 514.771 105.083C516.618 105.083 518.54 103.531 518.54 100.907C518.54 98.4312 516.803 96.8607 514.752 96.8607C513.976 96.8607 513.108 97.1194 512.443 97.9139V97.0639H510.632V109.074H512.443V103.937ZM514.53 98.4866C515.842 98.4866 516.692 99.5952 516.692 100.981C516.692 102.33 515.842 103.457 514.53 103.457C513.385 103.457 512.332 102.625 512.332 100.999C512.332 99.2996 513.385 98.4866 514.53 98.4866ZM526.698 97.9693C525.959 97.0085 524.961 96.8607 524.388 96.8607C522.337 96.8607 520.6 98.4127 520.6 100.944C520.6 103.087 521.968 105.083 524.37 105.083C524.924 105.083 525.903 104.953 526.698 104.03V104.843H528.508V97.0639H526.698V97.9693ZM524.61 98.4866C525.755 98.4866 526.809 99.2996 526.809 100.999C526.809 102.625 525.755 103.457 524.61 103.457C523.298 103.457 522.448 102.33 522.448 100.981C522.448 99.5952 523.298 98.4866 524.61 98.4866ZM537.775 97.0639H531.936V101.812C531.936 102.108 531.899 102.533 531.659 102.829C531.419 103.106 530.92 103.309 530.384 103.18V104.843C531.216 104.972 532.232 104.824 532.934 104.048C533.581 103.346 533.673 102.478 533.673 101.812V98.7268H535.964V104.843H537.775V97.0639ZM540.638 104.843H543.465C544.241 104.843 545.054 104.843 545.738 104.177C546.089 103.826 546.44 103.217 546.44 102.311C546.44 101.849 546.348 101.184 545.83 100.611C545.128 99.8354 544.241 99.817 543.484 99.817H542.449V97.0639H540.638V104.843ZM542.449 103.291V101.369H543.299C543.576 101.369 543.946 101.369 544.241 101.554C544.463 101.702 544.629 101.942 544.629 102.33C544.629 102.81 544.352 103.032 544.223 103.124C543.983 103.272 543.631 103.291 543.28 103.291H542.449ZM547.253 104.843H549.064V97.0639H547.253V104.843ZM551.934 97.0639V104.843H553.744V101.942L554.04 101.646L556.627 104.843H557.255V107.06H558.918V103.18H557.569L555.333 100.464L558.733 97.0639H556.331L553.744 99.8354V97.0639H551.934ZM418.556 119.064V126.843H420.366V123.942L420.662 123.646L423.249 126.843H425.54L421.955 122.464L425.355 119.064H422.953L420.366 121.835V119.064H418.556ZM430.877 118.861C428.531 118.861 426.72 120.561 426.72 122.963C426.72 125.346 428.531 127.083 430.877 127.083C433.224 127.083 435.034 125.346 435.034 122.963C435.034 120.561 433.224 118.861 430.877 118.861ZM430.877 125.457C429.454 125.457 428.567 124.478 428.567 122.981C428.567 121.207 429.731 120.487 430.877 120.487C432.023 120.487 433.187 121.207 433.187 122.981C433.187 124.478 432.3 125.457 430.877 125.457ZM436.614 126.843H438.462L439.238 122.944L441.714 127.434L444.19 122.944L444.966 126.843H446.814L444.929 118.362L441.714 124.293L438.499 118.362L436.614 126.843ZM448.797 119.064V127.434L454.118 122.316V126.843H455.929V118.362L450.607 123.48V119.064H448.797ZM464.816 119.415C463.985 118.953 463.283 118.861 462.691 118.861C461.158 118.861 460.178 119.397 459.569 120.006C458.996 120.579 458.386 121.558 458.386 123.018C458.386 124.441 458.941 125.364 459.495 125.937C460.234 126.713 461.158 127.083 462.451 127.083C463.652 127.083 464.373 126.75 464.816 126.473V124.459C464.188 125.161 463.319 125.457 462.58 125.457C461.915 125.457 461.343 125.217 460.936 124.829C460.585 124.478 460.234 123.868 460.234 122.963C460.234 122.094 460.566 121.503 460.899 121.17C461.232 120.838 461.767 120.487 462.617 120.487C463.172 120.487 463.985 120.634 464.816 121.447V119.415ZM473.152 119.415C472.321 118.953 471.619 118.861 471.027 118.861C469.494 118.861 468.515 119.397 467.905 120.006C467.332 120.579 466.722 121.558 466.722 123.018C466.722 124.441 467.277 125.364 467.831 125.937C468.57 126.713 469.494 127.083 470.787 127.083C471.988 127.083 472.709 126.75 473.152 126.473V124.459C472.524 125.161 471.656 125.457 470.917 125.457C470.251 125.457 469.679 125.217 469.272 124.829C468.921 124.478 468.57 123.868 468.57 122.963C468.57 122.094 468.903 121.503 469.235 121.17C469.568 120.838 470.104 120.487 470.954 120.487C471.508 120.487 472.321 120.634 473.152 121.447V119.415ZM475.465 119.064V127.434L480.786 122.316V126.843H482.597V118.362L477.276 123.48V119.064H475.465ZM484.463 126.843H486.588L488.713 123.979H489.083V126.843H490.893V119.064H487.992C487.198 119.064 486.403 119.138 485.738 119.766C485.129 120.339 485.018 121.059 485.018 121.558C485.018 122.113 485.165 122.685 485.664 123.166C485.96 123.443 486.385 123.683 486.902 123.757L484.463 126.843ZM489.083 122.501H488.011C487.567 122.501 487.235 122.464 487.013 122.316C486.828 122.186 486.644 121.946 486.644 121.558C486.644 121.207 486.847 120.93 487.087 120.782C487.346 120.634 487.678 120.616 488.029 120.616H489.083V122.501ZM493.761 126.843H495.572V123.609H498.787V126.843H500.597V119.064H498.787V121.946H495.572V119.064H493.761V126.843ZM503.469 126.843H506.295C507.072 126.843 507.884 126.843 508.568 126.177C508.919 125.826 509.27 125.217 509.27 124.311C509.27 123.849 509.178 123.184 508.66 122.611C507.958 121.835 507.072 121.817 506.314 121.817H505.279V119.064H503.469V126.843ZM505.279 125.291V123.369H506.129C506.406 123.369 506.776 123.369 507.072 123.554C507.293 123.702 507.46 123.942 507.46 124.33C507.46 124.81 507.182 125.032 507.053 125.124C506.813 125.272 506.462 125.291 506.111 125.291H505.279ZM510.083 126.843H511.894V119.064H510.083V126.843ZM514.764 126.843H516.575V123.609H519.789V126.843H521.231V129.06H522.894V125.18H521.6V119.064H519.789V121.946H516.575V119.064H514.764V126.843ZM533.401 118.861C531.054 118.861 529.243 120.561 529.243 122.963C529.243 125.346 531.054 127.083 533.401 127.083C535.747 127.083 537.558 125.346 537.558 122.963C537.558 120.561 535.747 118.861 533.401 118.861ZM535.636 123.646C535.433 124.847 534.491 125.457 533.401 125.457C532.31 125.457 531.368 124.847 531.165 123.646H535.636ZM531.165 122.168C531.387 121.207 532.163 120.487 533.401 120.487C534.638 120.487 535.414 121.207 535.636 122.168H531.165ZM545.383 120.727V119.064H539.027V120.727H541.3V126.843H543.11V120.727H545.383ZM547.26 119.064V126.843H549.071V119.064H547.26ZM547.002 115.849C547.002 116.514 547.5 117.013 548.166 117.013C548.831 117.013 549.33 116.514 549.33 115.849C549.33 115.184 548.831 114.685 548.166 114.685C547.5 114.685 547.002 115.184 547.002 115.849ZM551.934 126.843H553.744V123.609H556.959V126.843H558.77V119.064H556.959V121.946H553.744V119.064H551.934V126.843ZM561.641 119.064V126.843H563.452V119.064H561.641ZM561.382 115.849C561.382 116.514 561.881 117.013 562.546 117.013C563.211 117.013 563.71 116.514 563.71 115.849C563.71 115.184 563.211 114.685 562.546 114.685C561.881 114.685 561.382 115.184 561.382 115.849ZM565.427 126.843H567.275L568.051 122.944L570.527 127.434L573.003 122.944L573.779 126.843H575.626L573.742 118.362L570.527 124.293L567.312 118.362L565.427 126.843ZM578.473 119.064V122.113C578.473 123.055 578.381 123.683 578.159 124.163C577.919 124.644 577.438 125.143 576.736 125.18V129.06H578.399V126.843H583.831V129.06H585.494V125.18H584.312V119.064H578.473ZM582.501 125.18H579.305C579.785 124.81 580.21 124.145 580.21 122.796V120.727H582.501V125.18ZM587.371 119.064V126.843H589.182V119.064H587.371ZM587.112 115.849C587.112 116.514 587.611 117.013 588.276 117.013C588.942 117.013 589.44 116.514 589.44 115.849C589.44 115.184 588.942 114.685 588.276 114.685C587.611 114.685 587.112 115.184 587.112 115.849ZM475.203 141.064V148.843H477.014V145.942L477.31 145.646L479.896 148.843H480.525V151.06H482.187V147.18H480.839L478.603 144.464L482.003 141.064H479.601L477.014 143.835V141.064H475.203ZM489.754 141.969C489.014 141.009 488.017 140.861 487.444 140.861C485.393 140.861 483.656 142.413 483.656 144.944C483.656 147.087 485.024 149.083 487.425 149.083C487.98 149.083 488.959 148.953 489.754 148.03V148.843H491.564V141.064H489.754V141.969ZM487.666 142.487C488.811 142.487 489.864 143.3 489.864 144.999C489.864 146.625 488.811 147.457 487.666 147.457C486.354 147.457 485.504 146.33 485.504 144.981C485.504 143.595 486.354 142.487 487.666 142.487ZM496.248 147.937C497.061 148.935 498.152 149.083 498.577 149.083C500.424 149.083 502.346 147.531 502.346 144.907C502.346 142.431 500.609 140.861 498.558 140.861C497.782 140.861 496.914 141.119 496.248 141.914V141.064H494.438V153.074H496.248V147.937ZM498.336 142.487C499.648 142.487 500.498 143.595 500.498 144.981C500.498 146.33 499.648 147.457 498.336 147.457C497.191 147.457 496.138 146.625 496.138 144.999C496.138 143.3 497.191 142.487 498.336 142.487ZM510.504 141.969C509.765 141.009 508.767 140.861 508.194 140.861C506.143 140.861 504.406 142.413 504.406 144.944C504.406 147.087 505.774 149.083 508.176 149.083C508.73 149.083 509.709 148.953 510.504 148.03V148.843H512.314V141.064H510.504V141.969ZM508.416 142.487C509.561 142.487 510.614 143.3 510.614 144.999C510.614 146.625 509.561 147.457 508.416 147.457C507.104 147.457 506.254 146.33 506.254 144.981C506.254 143.595 507.104 142.487 508.416 142.487ZM514.615 153.074H516.648L522.837 141.064H520.805L518.551 145.609L516.333 141.064H514.153L517.479 147.623L514.615 153.074ZM524.679 148.843H527.506C528.282 148.843 529.095 148.843 529.778 148.177C530.129 147.826 530.48 147.217 530.48 146.311C530.48 145.849 530.388 145.184 529.871 144.611C529.169 143.835 528.282 143.817 527.524 143.817H526.489V141.064H524.679V148.843ZM526.489 147.291V145.369H527.339C527.617 145.369 527.986 145.369 528.282 145.554C528.503 145.702 528.67 145.942 528.67 146.33C528.67 146.81 528.393 147.032 528.263 147.124C528.023 147.272 527.672 147.291 527.321 147.291H526.489ZM531.293 148.843H533.104V141.064H531.293V148.843ZM459.501 155.588C459.224 156.323 458.892 157.362 458.684 158.249C458.365 159.634 458.296 160.923 458.296 161.852C458.296 162.877 458.393 164.041 458.587 165.067C458.628 165.288 458.892 166.605 459.501 168.198L460.374 167.796C460.083 166.993 459.834 166.161 459.654 165.261C459.39 164.013 459.321 163.016 459.321 161.879C459.321 160.674 459.418 159.593 459.668 158.387C459.862 157.445 460.125 156.641 460.374 155.99L459.501 155.588ZM465.524 165.843H466.549V156.6H464.512L463.972 157.57H465.524V165.843ZM475.197 156.6H471.525L470.18 161.062C471.012 160.48 471.635 160.424 471.968 160.424C473.284 160.424 474.241 161.367 474.241 162.697C474.241 164 473.271 165.067 471.968 165.067C471.331 165.067 470.859 164.831 470.471 164.512C470.194 164.291 470 164.069 469.848 163.764L469.03 164.346C469.252 164.72 469.543 165.039 469.834 165.288C470.457 165.801 471.15 166.009 471.899 166.009C473.714 166.009 475.266 164.748 475.266 162.683C475.266 160.882 474.074 159.482 472.217 159.482C471.996 159.482 471.816 159.496 471.635 159.537L472.231 157.542H475.197V156.6ZM484.455 160.092V162.448L482.293 160.092H481.129L483.623 162.752L480.88 165.843H482.127L484.261 163.418L484.455 163.612V165.843H485.453V163.612L485.647 163.418L487.781 165.843H489.028L486.284 162.752L488.778 160.092H487.614L485.453 162.448V160.092H484.455ZM489.767 160.092L492.095 165.136V165.843H490.432V166.757H492.095V169.03H493.093V166.757H494.756V165.843H493.093V165.136L495.421 160.092H494.313L492.594 163.972L490.876 160.092H489.767ZM496.384 165.843H497.41L498.144 162.281L500.126 166.244L502.08 162.281L502.842 165.843H503.867L502.481 159.648L500.153 164.332L497.77 159.648L496.384 165.843ZM505.665 165.843H507.674C508.243 165.843 508.866 165.829 509.365 165.358C509.614 165.122 509.878 164.692 509.878 164.069C509.878 163.487 509.656 163.085 509.434 162.863C508.922 162.337 508.201 162.295 507.688 162.295H506.663V160.092H505.665V165.843ZM506.663 164.956V163.182H507.605C507.924 163.182 508.243 163.182 508.492 163.348C508.783 163.528 508.852 163.819 508.852 164.069C508.852 164.512 508.603 164.72 508.478 164.803C508.243 164.942 507.924 164.956 507.591 164.956H506.663ZM510.571 165.843H511.568V160.092H510.571V165.843ZM518.527 160.507C518.25 160.313 517.654 159.953 516.74 159.953C514.966 159.953 513.664 161.242 513.664 163.002C513.664 164.734 514.952 166.009 516.74 166.009C517.28 166.009 517.945 165.87 518.569 165.413V164.221C518.042 164.859 517.308 165.122 516.712 165.122C515.687 165.122 514.689 164.388 514.689 162.988C514.689 161.588 515.659 160.84 516.726 160.84C517.239 160.84 518.001 161.034 518.527 161.699V160.507ZM524.489 160.092V165.843H525.487V163.612L525.792 163.321L528.037 165.843H529.339L526.54 162.655L529.034 160.092H527.815L525.487 162.448V160.092H524.489ZM530.081 160.092L532.409 165.136V169.03H533.407V165.136L535.735 160.092H534.626L532.908 163.972L531.19 160.092H530.081ZM537.363 165.843H538.361V163.362H541.077V165.843H542.075V160.092H541.077V162.448H538.361V160.092H537.363V165.843ZM544.531 160.092V165.843H545.529V160.092H544.531ZM544.323 157.916C544.323 158.304 544.642 158.623 545.03 158.623C545.418 158.623 545.737 158.304 545.737 157.916C545.737 157.528 545.418 157.209 545.03 157.209C544.642 157.209 544.323 157.528 544.323 157.916ZM547.935 155.99C548.185 156.641 548.448 157.445 548.642 158.387C548.892 159.593 548.989 160.674 548.989 161.879C548.989 163.016 548.919 164.013 548.656 165.261C548.476 166.161 548.226 166.993 547.935 167.796L548.808 168.198C549.418 166.605 549.681 165.288 549.723 165.067C549.917 164.041 550.014 162.877 550.014 161.852C550.014 160.923 549.945 159.634 549.626 158.249C549.418 157.362 549.086 156.323 548.808 155.588L547.935 155.99Z" fill="black"/>
<rect x="769.284" y="0.872498" width="238.464" height="238.464" rx="119.232" fill="#91BC55"/>
<path d="M852.195 112.843H854.227L848.388 99.7981L842.254 112.843H844.287L845.635 109.868H850.901L852.195 112.843ZM846.411 108.094L848.315 103.918L850.144 108.094H846.411ZM860.777 106.228C860.5 105.729 860.149 105.433 859.89 105.267C859.447 104.972 859.003 104.861 858.449 104.861C857.488 104.861 856.897 105.23 856.546 105.6C856.139 106.025 855.899 106.634 855.899 107.263C855.899 107.762 856.047 108.186 856.454 108.574C856.749 108.87 857.174 109.073 857.525 109.24L858.19 109.554C858.486 109.683 858.745 109.812 858.966 110.034C859.133 110.219 859.207 110.404 859.207 110.625C859.207 110.847 859.096 111.087 858.948 111.235C858.782 111.401 858.486 111.494 858.209 111.494C857.784 111.494 857.525 111.309 857.414 111.198C857.248 111.05 857.082 110.718 856.989 110.459L855.511 111.161C855.696 111.716 856.066 112.251 856.509 112.584C857.063 113.009 857.691 113.083 858.19 113.083C859.003 113.083 859.761 112.88 860.371 112.214C860.796 111.752 861.054 111.143 861.054 110.441C861.054 109.905 860.906 109.424 860.481 108.999C860.186 108.685 859.798 108.482 859.391 108.279L858.467 107.817C858.079 107.614 857.969 107.577 857.858 107.503C857.691 107.392 857.599 107.263 857.599 107.059C857.599 106.893 857.673 106.745 857.765 106.653C857.876 106.542 858.061 106.45 858.32 106.45C858.892 106.45 859.243 106.819 859.428 107.115L860.777 106.228ZM866.516 106.727V105.064H865.13V102.219H863.319V105.064H862.562V106.727H863.319V112.843H865.13V106.727H866.516ZM874.007 105.969C873.268 105.009 872.27 104.861 871.697 104.861C869.647 104.861 867.91 106.413 867.91 108.944C867.91 111.087 869.277 113.083 871.679 113.083C872.233 113.083 873.213 112.953 874.007 112.03V112.843H875.818V105.064H874.007V105.969ZM871.919 106.487C873.065 106.487 874.118 107.3 874.118 108.999C874.118 110.625 873.065 111.457 871.919 111.457C870.607 111.457 869.757 110.33 869.757 108.981C869.757 107.595 870.607 106.487 871.919 106.487ZM878.673 112.843H880.483V109.11C880.483 106.597 881.315 106.487 882.128 106.487C882.812 106.487 883.551 106.542 883.551 108.519V112.843H885.361V108.076C885.361 106.875 885.177 106.339 884.881 105.914C884.641 105.581 884.031 104.861 882.59 104.861C882.146 104.861 881.26 104.916 880.483 105.785V105.064H878.673V112.843ZM893.927 105.969C893.188 105.009 892.19 104.861 891.618 104.861C889.567 104.861 887.83 106.413 887.83 108.944C887.83 111.087 889.197 113.083 891.599 113.083C892.153 113.083 893.133 112.953 893.927 112.03V112.843H895.738V105.064H893.927V105.969ZM891.839 106.487C892.985 106.487 894.038 107.3 894.038 108.999C894.038 110.625 892.985 111.457 891.839 111.457C890.527 111.457 889.677 110.33 889.677 108.981C889.677 107.595 890.527 106.487 891.839 106.487ZM905.718 100.519H903.834V112.843H905.718V107.17H911.003V112.843H912.887V100.519H911.003V105.397H905.718V100.519ZM916.096 105.064V109.572C916.096 110.57 916.206 111.401 916.927 112.122C917.629 112.843 918.59 113.083 919.384 113.083C920.253 113.083 921.214 112.824 921.916 112.122C922.636 111.401 922.747 110.57 922.747 109.572V105.064H920.936V109.517C920.936 109.979 920.918 110.515 920.604 110.921C920.364 111.235 919.939 111.457 919.421 111.457C918.904 111.457 918.479 111.235 918.239 110.921C917.925 110.515 917.906 109.979 917.906 109.517V105.064H916.096ZM927.433 99.3731H925.623V112.843H927.433V112.03C928.228 112.953 929.207 113.083 929.761 113.083C932.163 113.083 933.531 111.087 933.531 108.944C933.531 106.413 931.794 104.861 929.743 104.861C929.17 104.861 928.172 105.009 927.433 105.969V99.3731ZM929.521 106.487C930.833 106.487 931.683 107.595 931.683 108.981C931.683 110.33 930.833 111.457 929.521 111.457C928.376 111.457 927.322 110.625 927.322 108.999C927.322 107.3 928.376 106.487 929.521 106.487ZM790.521 127.064V134.843H792.332V131.942L792.628 131.646L795.214 134.843H795.843V137.06H797.506V133.18H796.157L793.921 130.464L797.321 127.064H794.919L792.332 129.835V127.064H790.521ZM805.072 127.969C804.333 127.009 803.335 126.861 802.762 126.861C800.711 126.861 798.974 128.413 798.974 130.944C798.974 133.087 800.342 135.083 802.744 135.083C803.298 135.083 804.277 134.953 805.072 134.03V134.843H806.882V127.064H805.072V127.969ZM802.984 128.487C804.129 128.487 805.182 129.3 805.182 130.999C805.182 132.625 804.129 133.457 802.984 133.457C801.672 133.457 800.822 132.33 800.822 130.981C800.822 129.595 801.672 128.487 802.984 128.487ZM815.114 128.727V127.064H808.758V128.727H811.031V134.843H812.841V128.727H815.114ZM816.991 134.843H819.818C820.594 134.843 821.407 134.843 822.091 134.177C822.442 133.826 822.793 133.217 822.793 132.311C822.793 131.849 822.701 131.184 822.183 130.611C821.481 129.835 820.594 129.817 819.837 129.817H818.802V127.064H816.991V134.843ZM818.802 133.291V131.369H819.652C819.929 131.369 820.299 131.369 820.594 131.554C820.816 131.702 820.982 131.942 820.982 132.33C820.982 132.81 820.705 133.032 820.576 133.124C820.336 133.272 819.985 133.291 819.633 133.291H818.802ZM823.606 134.843H825.417V127.064H823.606V134.843ZM834.31 127.415C833.479 126.953 832.776 126.861 832.185 126.861C830.652 126.861 829.672 127.397 829.063 128.006C828.49 128.579 827.88 129.558 827.88 131.018C827.88 132.441 828.434 133.364 828.989 133.937C829.728 134.713 830.652 135.083 831.945 135.083C833.146 135.083 833.867 134.75 834.31 134.473V132.459C833.682 133.161 832.813 133.457 832.074 133.457C831.409 133.457 830.836 133.217 830.43 132.829C830.079 132.478 829.728 131.868 829.728 130.963C829.728 130.094 830.06 129.503 830.393 129.17C830.726 128.838 831.261 128.487 832.111 128.487C832.666 128.487 833.479 128.634 834.31 129.447V127.415ZM836.05 139.074H838.082L844.272 127.064H842.24L839.985 131.609L837.768 127.064H835.588L838.914 133.623L836.05 139.074ZM846.114 134.843H856.719V127.064H854.908V133.18H852.322V127.064H850.511V133.18H847.924V127.064H846.114V134.843ZM859.592 134.843H862.419C863.195 134.843 864.008 134.843 864.692 134.177C865.043 133.826 865.394 133.217 865.394 132.311C865.394 131.849 865.301 131.184 864.784 130.611C864.082 129.835 863.195 129.817 862.438 129.817H861.403V127.064H859.592V134.843ZM861.403 133.291V131.369H862.253C862.53 131.369 862.899 131.369 863.195 131.554C863.417 131.702 863.583 131.942 863.583 132.33C863.583 132.81 863.306 133.032 863.177 133.124C862.936 133.272 862.585 133.291 862.234 133.291H861.403ZM866.207 134.843H868.017V127.064H866.207V134.843ZM876.911 127.415C876.079 126.953 875.377 126.861 874.786 126.861C873.252 126.861 872.273 127.397 871.663 128.006C871.091 128.579 870.481 129.558 870.481 131.018C870.481 132.441 871.035 133.364 871.59 133.937C872.329 134.713 873.252 135.083 874.546 135.083C875.747 135.083 876.467 134.75 876.911 134.473V132.459C876.283 133.161 875.414 133.457 874.675 133.457C874.01 133.457 873.437 133.217 873.031 132.829C872.68 132.478 872.329 131.868 872.329 130.963C872.329 130.094 872.661 129.503 872.994 129.17C873.326 128.838 873.862 128.487 874.712 128.487C875.266 128.487 876.079 128.634 876.911 129.447V127.415ZM879.224 134.843H882.05C882.826 134.843 883.639 134.843 884.323 134.177C884.674 133.826 885.025 133.217 885.025 132.311C885.025 131.849 884.933 131.184 884.415 130.611C883.713 129.835 882.826 129.817 882.069 129.817H881.034V127.064H879.224V134.843ZM881.034 133.291V131.369H881.884C882.161 131.369 882.531 131.369 882.826 131.554C883.048 131.702 883.214 131.942 883.214 132.33C883.214 132.81 882.937 133.032 882.808 133.124C882.568 133.272 882.217 133.291 881.866 133.291H881.034ZM885.838 134.843H887.649V127.064H885.838V134.843ZM890.519 134.843H892.33V131.609H895.544V134.843H897.355V127.064H895.544V129.946H892.33V127.064H890.519V134.843ZM900.226 134.843H903.053C903.829 134.843 904.642 134.843 905.326 134.177C905.677 133.826 906.028 133.217 906.028 132.311C906.028 131.849 905.936 131.184 905.418 130.611C904.716 129.835 903.829 129.817 903.072 129.817H902.037V127.064H900.226V134.843ZM902.037 133.291V131.369H902.887C903.164 131.369 903.534 131.369 903.829 131.554C904.051 131.702 904.217 131.942 904.217 132.33C904.217 132.81 903.94 133.032 903.811 133.124C903.571 133.272 903.219 133.291 902.868 133.291H902.037ZM906.841 134.843H908.652V127.064H906.841V134.843ZM911.522 134.843H913.332V131.609H916.547V134.843H917.988V137.06H919.651V133.18H918.358V127.064H916.547V129.946H913.332V127.064H911.522V134.843ZM926.407 127.064V134.843H928.218V131.942L928.514 131.646L931.101 134.843H933.392L929.807 130.464L933.207 127.064H930.805L928.218 129.835V127.064H926.407ZM934.586 139.074H936.618L942.808 127.064H940.775L938.521 131.609L936.304 127.064H934.124L937.45 133.623L934.586 139.074ZM945.564 129.447C945.749 129.189 945.989 128.93 946.248 128.782C946.507 128.616 946.895 128.487 947.412 128.487C948.04 128.487 948.539 128.671 948.853 128.967C949.186 129.263 949.444 129.817 949.5 130.371H943.846V130.833C943.846 132.256 944.363 133.457 945.084 134.159C945.842 134.898 946.728 135.083 947.578 135.083C948.558 135.083 949.426 134.861 950.202 134.104C950.923 133.401 951.384 132.404 951.384 131.036C951.384 129.577 950.867 128.468 950.184 127.821C949.629 127.304 948.761 126.861 947.43 126.861C946.673 126.861 945.952 127.009 945.269 127.415C944.567 127.84 944.16 128.394 943.92 128.893L945.564 129.447ZM949.371 131.849C949.315 132.348 949.075 132.773 948.798 133.05C948.558 133.291 948.17 133.531 947.541 133.531C947.061 133.531 946.599 133.383 946.322 133.106C946.026 132.829 945.823 132.293 945.768 131.849H949.371ZM960.245 127.064H954.406V131.812C954.406 132.108 954.369 132.533 954.129 132.829C953.889 133.106 953.39 133.309 952.854 133.18V134.843C953.685 134.972 954.702 134.824 955.404 134.048C956.05 133.346 956.143 132.478 956.143 131.812V128.727H958.434V134.843H960.245V127.064ZM963.108 127.064V134.843H964.919V127.064H963.108ZM962.849 123.849C962.849 124.514 963.348 125.013 964.013 125.013C964.679 125.013 965.177 124.514 965.177 123.849C965.177 123.184 964.679 122.685 964.013 122.685C963.348 122.685 962.849 123.184 962.849 123.849ZM967.781 134.843H969.592V128.727H972.548V127.064H967.781V134.843ZM974.421 127.064V134.843H976.232V127.064H974.421ZM974.163 123.849C974.163 124.514 974.662 125.013 975.327 125.013C975.992 125.013 976.491 124.514 976.491 123.849C976.491 123.184 975.992 122.685 975.327 122.685C974.662 122.685 974.163 123.184 974.163 123.849ZM979.095 134.843H980.905V131.609H984.12V134.843H985.931V127.064H984.12V129.946H980.905V127.064H979.095V134.843ZM881.08 149.969C880.341 149.009 879.343 148.861 878.771 148.861C876.72 148.861 874.983 150.413 874.983 152.944C874.983 155.087 876.35 157.083 878.752 157.083C879.306 157.083 880.286 156.953 881.08 156.03V156.843H882.891V149.064H881.08V149.969ZM878.992 150.487C880.138 150.487 881.191 151.3 881.191 152.999C881.191 154.625 880.138 155.457 878.992 155.457C877.68 155.457 876.83 154.33 876.83 152.981C876.83 151.595 877.68 150.487 878.992 150.487ZM892.157 149.064H886.319V153.812C886.319 154.108 886.282 154.533 886.041 154.829C885.801 155.106 885.302 155.309 884.767 155.18V156.843C885.598 156.972 886.614 156.824 887.316 156.048C887.963 155.346 888.055 154.478 888.055 153.812V150.727H890.347V156.843H892.157V149.064ZM894.448 161.074H896.48L902.67 149.064H900.638L898.383 153.609L896.166 149.064H893.986L897.312 155.623L894.448 161.074Z" fill="black"/>
<rect x="577.194" y="180.442" width="238.464" height="238.464" rx="119.232" fill="white"/>
<path d="M643.286 296.103H657.661V283.779H655.777V294.329H651.416V283.779H649.531V294.329H645.171V283.779H643.286V296.103ZM666.562 289.229C665.823 288.269 664.825 288.121 664.252 288.121C662.201 288.121 660.465 289.673 660.465 292.204C660.465 294.348 661.832 296.343 664.234 296.343C664.788 296.343 665.767 296.214 666.562 295.29V296.103H668.373V288.324H666.562V289.229ZM664.474 289.747C665.62 289.747 666.673 290.56 666.673 292.26C666.673 293.886 665.62 294.717 664.474 294.717C663.162 294.717 662.312 293.59 662.312 292.241C662.312 290.855 663.162 289.747 664.474 289.747ZM673.057 295.197C673.87 296.195 674.96 296.343 675.385 296.343C677.233 296.343 679.154 294.791 679.154 292.167C679.154 289.691 677.417 288.121 675.366 288.121C674.59 288.121 673.722 288.38 673.057 289.174V288.324H671.246V300.334H673.057V295.197ZM675.145 289.747C676.457 289.747 677.306 290.855 677.306 292.241C677.306 293.59 676.457 294.717 675.145 294.717C673.999 294.717 672.946 293.886 672.946 292.26C672.946 290.56 673.999 289.747 675.145 289.747ZM686.979 289.987V288.324H680.623V289.987H682.896V296.103H684.707V289.987H686.979ZM697.46 288.324V291.206L695.114 288.324H692.933L695.945 291.872L692.638 296.103H694.892L697.239 292.98L697.46 293.239V296.103H699.271V293.239L699.493 292.98L701.839 296.103H704.093L700.786 291.872L703.798 288.324H701.617L699.271 291.206V288.324H697.46ZM711.544 289.229C710.805 288.269 709.808 288.121 709.235 288.121C707.184 288.121 705.447 289.673 705.447 292.204C705.447 294.348 706.814 296.343 709.216 296.343C709.771 296.343 710.75 296.214 711.544 295.29V296.103H713.355V288.324H711.544V289.229ZM709.457 289.747C710.602 289.747 711.655 290.56 711.655 292.26C711.655 293.886 710.602 294.717 709.457 294.717C708.145 294.717 707.295 293.59 707.295 292.241C707.295 290.855 708.145 289.747 709.457 289.747ZM722.252 288.675C721.421 288.213 720.719 288.121 720.127 288.121C718.594 288.121 717.614 288.657 717.005 289.266C716.432 289.839 715.822 290.818 715.822 292.278C715.822 293.701 716.377 294.625 716.931 295.197C717.67 295.973 718.594 296.343 719.887 296.343C721.088 296.343 721.809 296.01 722.252 295.733V293.719C721.624 294.421 720.755 294.717 720.016 294.717C719.351 294.717 718.778 294.477 718.372 294.089C718.021 293.738 717.67 293.128 717.67 292.223C717.67 291.354 718.002 290.763 718.335 290.43C718.668 290.098 719.203 289.747 720.053 289.747C720.608 289.747 721.421 289.895 722.252 290.708V288.675ZM730.256 289.229C729.517 288.269 728.519 288.121 727.946 288.121C725.895 288.121 724.158 289.673 724.158 292.204C724.158 294.348 725.526 296.343 727.928 296.343C728.482 296.343 729.461 296.214 730.256 295.29V296.103H732.066V288.324H730.256V289.229ZM728.168 289.747C729.313 289.747 730.366 290.56 730.366 292.26C730.366 293.886 729.313 294.717 728.168 294.717C726.856 294.717 726.006 293.59 726.006 292.241C726.006 290.855 726.856 289.747 728.168 289.747ZM740.963 288.675C740.132 288.213 739.43 288.121 738.838 288.121C737.305 288.121 736.326 288.657 735.716 289.266C735.143 289.839 734.533 290.818 734.533 292.278C734.533 293.701 735.088 294.625 735.642 295.197C736.381 295.973 737.305 296.343 738.598 296.343C739.799 296.343 740.52 296.01 740.963 295.733V293.719C740.335 294.421 739.467 294.717 738.728 294.717C738.062 294.717 737.49 294.477 737.083 294.089C736.732 293.738 736.381 293.128 736.381 292.223C736.381 291.354 736.714 290.763 737.046 290.43C737.379 290.098 737.915 289.747 738.765 289.747C739.319 289.747 740.132 289.895 740.963 290.708V288.675ZM742.703 300.334H744.736L750.925 288.324H748.893L746.639 292.869L744.422 288.324H742.241L745.567 294.883L742.703 300.334Z" fill="black"/>
<path opacity="0.8" d="M662.916 336.346C662.454 335.255 662.029 333.944 661.789 332.909C661.586 331.985 661.364 330.562 661.364 328.548C661.364 326.996 661.512 325.371 661.808 324.04C662.029 323.024 662.436 321.786 662.916 320.696L661.253 320.049C660.681 321.25 660.33 322.322 660.034 323.652C659.627 325.463 659.517 326.83 659.517 328.548C659.517 330.211 659.609 331.523 659.997 333.26C660.293 334.572 660.662 335.736 661.253 336.992L662.916 336.346ZM671.905 321.176C668.209 321.176 665.493 323.948 665.493 327.569C665.493 331.191 668.209 333.962 671.905 333.962C675.6 333.962 678.316 331.191 678.316 327.569C678.316 323.948 675.6 321.176 671.905 321.176ZM671.905 332.225C669.262 332.225 667.378 330.304 667.378 327.569C667.378 324.835 669.262 322.913 671.905 322.913C674.547 322.913 676.431 324.835 676.431 327.569C676.431 330.304 674.547 332.225 671.905 332.225ZM680.926 333.722H682.737V330.489H685.952V333.722H687.763V325.943H685.952V328.826H682.737V325.943H680.926V333.722ZM697.027 325.943H691.188V330.692C691.188 330.987 691.151 331.412 690.911 331.708C690.671 331.985 690.172 332.188 689.636 332.059V333.722C690.468 333.851 691.484 333.703 692.186 332.927C692.833 332.225 692.925 331.357 692.925 330.692V327.606H695.216V333.722H697.027V325.943ZM705.581 326.849C704.842 325.888 703.844 325.74 703.271 325.74C701.221 325.74 699.484 327.292 699.484 329.823C699.484 331.967 700.851 333.962 703.253 333.962C703.807 333.962 704.787 333.833 705.581 332.909V333.722H707.392V325.943H705.581V326.849ZM703.493 327.366C704.639 327.366 705.692 328.179 705.692 329.879C705.692 331.505 704.639 332.336 703.493 332.336C702.181 332.336 701.331 331.209 701.331 329.86C701.331 328.475 702.181 327.366 703.493 327.366ZM710.265 325.943V334.313L715.587 329.195V333.722H717.397V325.241L712.076 330.359V325.943H710.265ZM710.857 322.581C711.282 324.114 712.797 324.761 713.85 324.761C714.903 324.761 716.418 324.114 716.843 322.581L715.365 322.156C715.106 322.987 714.644 323.357 713.85 323.357C713.406 323.357 712.649 323.227 712.335 322.156L710.857 322.581ZM720.261 333.722H722.072V330.489H725.287V333.722H727.098V325.943H725.287V328.826H722.072V325.943H720.261V333.722ZM731.595 336.992C732.186 335.736 732.556 334.572 732.851 333.26C733.239 331.523 733.332 330.211 733.332 328.548C733.332 326.83 733.221 325.463 732.814 323.652C732.519 322.322 732.168 321.25 731.595 320.049L729.932 320.696C730.412 321.786 730.819 323.024 731.04 324.04C731.336 325.371 731.484 326.996 731.484 328.548C731.484 330.562 731.262 331.985 731.059 332.909C730.819 333.944 730.394 335.255 729.932 336.346L731.595 336.992Z" fill="black"/>
<rect x="192.65" y="180.442" width="238.464" height="238.464" rx="119.232" fill="white"/>
<path d="M215.727 280.588V292.912H217.611V282.362H222.896V292.912H224.78V280.588H215.727ZM234.381 285.134H228.543V289.882C228.543 290.178 228.506 290.603 228.266 290.898C228.025 291.176 227.527 291.379 226.991 291.249V292.912C227.822 293.042 228.838 292.894 229.541 292.118C230.187 291.416 230.28 290.547 230.28 289.882V286.797H232.571V292.912H234.381V285.134ZM242.936 286.039C242.197 285.078 241.199 284.93 240.626 284.93C238.575 284.93 236.838 286.482 236.838 289.014C236.838 291.157 238.206 293.153 240.608 293.153C241.162 293.153 242.141 293.023 242.936 292.099V292.912H244.746V285.134H242.936V286.039ZM240.848 286.556C241.993 286.556 243.047 287.369 243.047 289.069C243.047 290.695 241.993 291.527 240.848 291.527C239.536 291.527 238.686 290.4 238.686 289.051C238.686 287.665 239.536 286.556 240.848 286.556ZM252.978 286.797V285.134H246.622V286.797H248.895V292.912H250.705V286.797H252.978ZM258.796 297.143H260.606V293.042C262.066 293.06 263.119 292.617 263.803 292.025C264.505 291.434 265.115 290.51 265.115 289.014C265.115 287.388 264.339 286.464 263.821 286.021C262.879 285.208 261.623 285.004 260.606 285.004V280.588H258.796V285.004C257.779 285.004 256.523 285.208 255.581 286.021C255.063 286.464 254.287 287.388 254.287 289.014C254.287 290.51 254.897 291.434 255.599 292.025C256.283 292.617 257.336 293.06 258.796 293.042V297.143ZM258.796 291.416C258.167 291.434 257.484 291.268 257.04 290.954C256.689 290.714 256.135 290.159 256.135 289.014C256.135 287.757 256.819 287.203 257.096 287.037C257.576 286.723 258.315 286.63 258.796 286.63V291.416ZM260.606 286.63C261.087 286.63 261.826 286.723 262.306 287.037C262.583 287.203 263.267 287.757 263.267 289.014C263.267 290.159 262.713 290.714 262.362 290.954C261.918 291.268 261.235 291.434 260.606 291.416V286.63ZM271.363 284.93C269.016 284.93 267.206 286.63 267.206 289.032C267.206 291.416 269.016 293.153 271.363 293.153C273.709 293.153 275.52 291.416 275.52 289.032C275.52 286.63 273.709 284.93 271.363 284.93ZM271.363 291.527C269.94 291.527 269.053 290.547 269.053 289.051C269.053 287.277 270.217 286.556 271.363 286.556C272.508 286.556 273.672 287.277 273.672 289.051C273.672 290.547 272.786 291.527 271.363 291.527ZM279.798 292.007C280.611 293.005 281.701 293.153 282.126 293.153C283.974 293.153 285.895 291.601 285.895 288.977C285.895 286.501 284.158 284.93 282.107 284.93C281.331 284.93 280.463 285.189 279.798 285.984V285.134H277.987V297.143H279.798V292.007ZM281.886 286.556C283.198 286.556 284.048 287.665 284.048 289.051C284.048 290.4 283.198 291.527 281.886 291.527C280.74 291.527 279.687 290.695 279.687 289.069C279.687 287.369 280.74 286.556 281.886 286.556ZM287.475 292.912H289.323L290.099 289.014L292.575 293.504L295.051 289.014L295.827 292.912H297.674L295.79 284.432L292.575 290.363L289.36 284.432L287.475 292.912ZM305.348 286.039C304.609 285.078 303.611 284.93 303.039 284.93C300.988 284.93 299.251 286.482 299.251 289.014C299.251 291.157 300.618 293.153 303.02 293.153C303.575 293.153 304.554 293.023 305.348 292.099V292.912H307.159V285.134H305.348V286.039ZM303.26 286.556C304.406 286.556 305.459 287.369 305.459 289.069C305.459 290.695 304.406 291.527 303.26 291.527C301.949 291.527 301.099 290.4 301.099 289.051C301.099 287.665 301.949 286.556 303.26 286.556ZM310.698 285.134V288.182C310.698 289.125 310.605 289.753 310.384 290.233C310.143 290.714 309.663 291.213 308.961 291.249V295.13H310.624V292.912H316.056V295.13H317.719V291.249H316.536V285.134H310.698ZM314.726 291.249H311.529C312.01 290.88 312.435 290.215 312.435 288.866V286.797H314.726V291.249ZM325.286 286.039C324.547 285.078 323.55 284.93 322.977 284.93C320.926 284.93 319.189 286.482 319.189 289.014C319.189 291.157 320.556 293.153 322.958 293.153C323.513 293.153 324.492 293.023 325.286 292.099V292.912H327.097V285.134H325.286V286.039ZM323.199 286.556C324.344 286.556 325.397 287.369 325.397 289.069C325.397 290.695 324.344 291.527 323.199 291.527C321.887 291.527 321.037 290.4 321.037 289.051C321.037 287.665 321.887 286.556 323.199 286.556ZM334.86 285.134V292.912H336.671V290.012L336.967 289.716L339.554 292.912H340.182V295.13H341.845V291.249H340.496L338.26 288.533L341.66 285.134H339.258L336.671 287.905V285.134H334.86ZM342.685 285.134L345.808 291.601V292.543H343.406V294.132H345.808V297.143H347.618V294.132H350.02V292.543H347.618V291.601L350.741 285.134H348.709L346.713 289.513L344.718 285.134H342.685ZM356.293 285.134V288.016L353.947 285.134H351.766L354.778 288.681L351.471 292.912H353.725L356.071 289.79L356.293 290.048V292.912H358.104V290.048L358.325 289.79L360.672 292.912H362.926L359.619 288.681L362.631 285.134H360.45L358.104 288.016V285.134H356.293ZM370.377 286.039C369.638 285.078 368.64 284.93 368.068 284.93C366.017 284.93 364.28 286.482 364.28 289.014C364.28 291.157 365.647 293.153 368.049 293.153C368.604 293.153 369.583 293.023 370.377 292.099V292.912H372.188V285.134H370.377V286.039ZM368.289 286.556C369.435 286.556 370.488 287.369 370.488 289.069C370.488 290.695 369.435 291.527 368.289 291.527C366.978 291.527 366.128 290.4 366.128 289.051C366.128 287.665 366.978 286.556 368.289 286.556ZM380.42 286.797V285.134H374.064V286.797H376.336V292.912H378.147V286.797H380.42ZM388.233 286.797V285.134H381.877V286.797H384.149V292.912H385.96V286.797H388.233ZM395.602 286.039C394.863 285.078 393.865 284.93 393.293 284.93C391.242 284.93 389.505 286.482 389.505 289.014C389.505 291.157 390.872 293.153 393.274 293.153C393.828 293.153 394.808 293.023 395.602 292.099V292.912H397.413V285.134H395.602V286.039ZM393.514 286.556C394.66 286.556 395.713 287.369 395.713 289.069C395.713 290.695 394.66 291.527 393.514 291.527C392.202 291.527 391.353 290.4 391.353 289.051C391.353 287.665 392.202 286.556 393.514 286.556ZM402.097 292.007C402.91 293.005 404 293.153 404.425 293.153C406.273 293.153 408.194 291.601 408.194 288.977C408.194 286.501 406.458 284.93 404.407 284.93C403.631 284.93 402.762 285.189 402.097 285.984V285.134H400.286V297.143H402.097V292.007ZM404.185 286.556C405.497 286.556 406.347 287.665 406.347 289.051C406.347 290.4 405.497 291.527 404.185 291.527C403.039 291.527 401.986 290.695 401.986 289.069C401.986 287.369 403.039 286.556 404.185 286.556ZM223.965 307.134V314.912H225.776V308.797H228.917V314.912H230.727V307.134H223.965ZM239.291 308.039C238.552 307.078 237.554 306.93 236.981 306.93C234.93 306.93 233.194 308.482 233.194 311.014C233.194 313.157 234.561 315.153 236.963 315.153C237.517 315.153 238.496 315.023 239.291 314.099V314.912H241.102V307.134H239.291V308.039ZM237.203 308.556C238.349 308.556 239.402 309.369 239.402 311.069C239.402 312.695 238.349 313.527 237.203 313.527C235.891 313.527 235.041 312.4 235.041 311.051C235.041 309.665 235.891 308.556 237.203 308.556ZM243.975 307.134V314.912H245.786V312.012L246.081 311.716L248.668 314.912H250.959L247.375 310.533L250.774 307.134H248.373L245.786 309.905V307.134H243.975ZM258.177 312.289C258.011 312.584 257.77 312.898 257.456 313.139C257.087 313.416 256.717 313.527 256.218 313.527C255.775 313.527 255.258 313.453 254.833 313.028C254.445 312.64 254.204 312.012 254.167 311.457H259.747V311.236C259.747 310.423 259.655 308.981 258.657 307.947C258.195 307.466 257.401 306.93 256.163 306.93C255.054 306.93 254.204 307.337 253.558 307.984C252.745 308.815 252.32 309.979 252.32 311.18C252.32 312.344 252.726 313.416 253.465 314.155C254.204 314.894 255.054 315.153 256.089 315.153C256.92 315.153 257.752 314.968 258.38 314.561C258.879 314.247 259.359 313.73 259.692 313.139L258.177 312.289ZM254.297 309.979C254.389 309.591 254.592 309.222 254.851 308.981C255.091 308.741 255.498 308.482 256.126 308.482C256.717 308.482 257.105 308.704 257.345 308.926C257.623 309.185 257.826 309.554 257.9 309.979H254.297ZM267.575 308.797V307.134H261.219V308.797H263.492V314.912H265.303V308.797H267.575ZM269.453 307.134V314.912H271.263V307.134H269.453ZM269.194 303.919C269.194 304.584 269.693 305.083 270.358 305.083C271.023 305.083 271.522 304.584 271.522 303.919C271.522 303.254 271.023 302.755 270.358 302.755C269.693 302.755 269.194 303.254 269.194 303.919ZM273.239 314.912H275.087L275.863 311.014L278.339 315.504L280.814 311.014L281.59 314.912H283.438L281.553 306.432L278.339 312.363L275.124 306.432L273.239 314.912ZM290.872 312.289C290.705 312.584 290.465 312.898 290.151 313.139C289.782 313.416 289.412 313.527 288.913 313.527C288.47 313.527 287.952 313.453 287.527 313.028C287.139 312.64 286.899 312.012 286.862 311.457H292.442V311.236C292.442 310.423 292.35 308.981 291.352 307.947C290.89 307.466 290.096 306.93 288.858 306.93C287.749 306.93 286.899 307.337 286.253 307.984C285.44 308.815 285.015 309.979 285.015 311.18C285.015 312.344 285.421 313.416 286.16 314.155C286.899 314.894 287.749 315.153 288.784 315.153C289.615 315.153 290.447 314.968 291.075 314.561C291.574 314.247 292.054 313.73 292.387 313.139L290.872 312.289ZM286.992 309.979C287.084 309.591 287.287 309.222 287.546 308.981C287.786 308.741 288.193 308.482 288.821 308.482C289.412 308.482 289.8 308.704 290.04 308.926C290.317 309.185 290.521 309.554 290.595 309.979H286.992ZM294.912 314.912H296.723V311.679H299.938V314.912H301.748V307.134H299.938V310.016H296.723V307.134H294.912V314.912ZM313.26 306.93C310.914 306.93 309.103 308.63 309.103 311.032C309.103 313.416 310.914 315.153 313.26 315.153C315.607 315.153 317.417 313.416 317.417 311.032C317.417 308.63 315.607 306.93 313.26 306.93ZM315.496 311.716C315.292 312.917 314.35 313.527 313.26 313.527C312.17 313.527 311.228 312.917 311.024 311.716H315.496ZM311.024 310.238C311.246 309.277 312.022 308.556 313.26 308.556C314.498 308.556 315.274 309.277 315.496 310.238H311.024ZM325.243 308.797V307.134H318.887V308.797H321.159V314.912H322.97V308.797H325.243ZM327.12 307.134V314.912H328.93V307.134H327.12ZM326.861 303.919C326.861 304.584 327.36 305.083 328.025 305.083C328.69 305.083 329.189 304.584 329.189 303.919C329.189 303.254 328.69 302.755 328.025 302.755C327.36 302.755 326.861 303.254 326.861 303.919ZM331.793 314.912H333.604V311.679H336.819V314.912H338.629V307.134H336.819V310.016H333.604V307.134H331.793V314.912ZM341.5 307.134V314.912H343.311V307.134H341.5ZM341.242 303.919C341.242 304.584 341.741 305.083 342.406 305.083C343.071 305.083 343.57 304.584 343.57 303.919C343.57 303.254 343.071 302.755 342.406 302.755C341.741 302.755 341.242 303.254 341.242 303.919ZM345.287 314.912H347.135L347.911 311.014L350.386 315.504L352.862 311.014L353.638 314.912H355.486L353.601 306.432L350.386 312.363L347.172 306.432L345.287 314.912ZM368.234 301.794C368.142 302.108 367.883 302.533 366.756 302.81L365.463 303.124C364.41 303.383 363.708 303.937 363.135 304.787C362.248 306.081 361.952 307.799 361.952 310.127C361.952 311.199 361.989 312.917 363.264 314.118C363.8 314.635 364.742 315.153 366.11 315.153C368.456 315.153 370.267 313.434 370.267 310.995C370.267 309.739 369.805 308.723 369.14 308.039C368.493 307.374 367.606 306.93 366.424 306.93C365.666 306.93 364.465 307.097 363.782 308.021H363.763C363.782 307.392 363.985 306.487 364.41 305.914C364.964 305.157 365.703 304.953 366.424 304.75L367.643 304.418C368.9 304.067 369.823 303.069 370.082 301.794H368.234ZM366.11 313.527C364.687 313.527 363.8 312.547 363.8 311.051C363.8 309.277 364.964 308.556 366.11 308.556C367.255 308.556 368.419 309.277 368.419 311.051C368.419 312.547 367.532 313.527 366.11 313.527ZM378.184 312.289C378.018 312.584 377.778 312.898 377.464 313.139C377.094 313.416 376.725 313.527 376.226 313.527C375.783 313.527 375.265 313.453 374.84 313.028C374.452 312.64 374.212 312.012 374.175 311.457H379.755V311.236C379.755 310.423 379.663 308.981 378.665 307.947C378.203 307.466 377.408 306.93 376.171 306.93C375.062 306.93 374.212 307.337 373.565 307.984C372.752 308.815 372.327 309.979 372.327 311.18C372.327 312.344 372.734 313.416 373.473 314.155C374.212 314.894 375.062 315.153 376.097 315.153C376.928 315.153 377.76 314.968 378.388 314.561C378.887 314.247 379.367 313.73 379.7 313.139L378.184 312.289ZM374.304 309.979C374.397 309.591 374.6 309.222 374.859 308.981C375.099 308.741 375.505 308.482 376.134 308.482C376.725 308.482 377.113 308.704 377.353 308.926C377.63 309.185 377.833 309.554 377.907 309.979H374.304ZM384.036 314.007C384.848 315.005 385.939 315.153 386.364 315.153C388.211 315.153 390.133 313.601 390.133 310.977C390.133 308.501 388.396 306.93 386.345 306.93C385.569 306.93 384.701 307.189 384.036 307.984V307.134H382.225V319.143H384.036V314.007ZM386.123 308.556C387.435 308.556 388.285 309.665 388.285 311.051C388.285 312.4 387.435 313.527 386.123 313.527C384.978 313.527 383.925 312.695 383.925 311.069C383.925 309.369 384.978 308.556 386.123 308.556ZM392.027 319.143H394.06L400.249 307.134H398.217L395.963 311.679L393.745 307.134H391.565L394.891 313.693L392.027 319.143ZM259.148 330.039C258.409 329.078 257.411 328.93 256.838 328.93C254.787 328.93 253.05 330.482 253.05 333.014C253.05 335.157 254.418 337.153 256.82 337.153C257.374 337.153 258.353 337.023 259.148 336.099V336.912H260.958V329.134H259.148V330.039ZM257.06 330.556C258.205 330.556 259.259 331.369 259.259 333.069C259.259 334.695 258.205 335.527 257.06 335.527C255.748 335.527 254.898 334.4 254.898 333.051C254.898 331.665 255.748 330.556 257.06 330.556ZM268.581 330.298C268.303 329.799 267.952 329.503 267.694 329.337C267.25 329.041 266.807 328.93 266.252 328.93C265.292 328.93 264.7 329.3 264.349 329.67C263.943 330.094 263.703 330.704 263.703 331.332C263.703 331.831 263.851 332.256 264.257 332.644C264.553 332.94 264.978 333.143 265.329 333.309L265.994 333.624C266.289 333.753 266.548 333.882 266.77 334.104C266.936 334.289 267.01 334.473 267.01 334.695C267.01 334.917 266.899 335.157 266.751 335.305C266.585 335.471 266.289 335.564 266.012 335.564C265.587 335.564 265.329 335.379 265.218 335.268C265.051 335.12 264.885 334.788 264.793 334.529L263.315 335.231C263.499 335.785 263.869 336.321 264.312 336.654C264.867 337.079 265.495 337.153 265.994 337.153C266.807 337.153 267.564 336.949 268.174 336.284C268.599 335.822 268.858 335.213 268.858 334.51C268.858 333.975 268.71 333.494 268.285 333.069C267.989 332.755 267.601 332.552 267.195 332.349L266.271 331.887C265.883 331.683 265.772 331.647 265.661 331.573C265.495 331.462 265.403 331.332 265.403 331.129C265.403 330.963 265.476 330.815 265.569 330.723C265.68 330.612 265.864 330.519 266.123 330.519C266.696 330.519 267.047 330.889 267.232 331.185L268.581 330.298ZM274.319 330.797V329.134H272.934V326.288H271.123V329.134H270.365V330.797H271.123V336.912H272.934V330.797H274.319ZM281.81 330.039C281.071 329.078 280.074 328.93 279.501 328.93C277.45 328.93 275.713 330.482 275.713 333.014C275.713 335.157 277.08 337.153 279.482 337.153C280.037 337.153 281.016 337.023 281.81 336.099V336.912H283.621V329.134H281.81V330.039ZM279.723 330.556C280.868 330.556 281.921 331.369 281.921 333.069C281.921 334.695 280.868 335.527 279.723 335.527C278.411 335.527 277.561 334.4 277.561 333.051C277.561 331.665 278.411 330.556 279.723 330.556ZM286.476 336.912H288.287V333.18C288.287 330.667 289.118 330.556 289.931 330.556C290.615 330.556 291.354 330.612 291.354 332.589V336.912H293.165V332.145C293.165 330.944 292.98 330.409 292.684 329.984C292.444 329.651 291.834 328.93 290.393 328.93C289.95 328.93 289.063 328.986 288.287 329.854V329.134H286.476V336.912ZM301.731 330.039C300.992 329.078 299.994 328.93 299.421 328.93C297.37 328.93 295.633 330.482 295.633 333.014C295.633 335.157 297.001 337.153 299.403 337.153C299.957 337.153 300.936 337.023 301.731 336.099V336.912H303.541V329.134H301.731V330.039ZM299.643 330.556C300.788 330.556 301.841 331.369 301.841 333.069C301.841 334.695 300.788 335.527 299.643 335.527C298.331 335.527 297.481 334.4 297.481 333.051C297.481 331.665 298.331 330.556 299.643 330.556ZM306.415 336.912H308.226V333.162C308.226 332.164 308.336 331.573 308.595 331.203C308.835 330.852 309.316 330.556 309.925 330.556C310.387 330.556 310.738 330.741 310.942 330.963C311.293 331.351 311.293 331.85 311.293 332.312V336.912H313.103V332.145C313.103 331.591 313.085 330.686 312.604 329.984C312.383 329.67 311.736 328.93 310.313 328.93C309.851 328.93 309.002 329.004 308.226 329.799V323.443H306.415V336.912ZM315.779 329.134V333.642C315.779 334.64 315.89 335.471 316.611 336.192C317.313 336.912 318.274 337.153 319.068 337.153C319.937 337.153 320.897 336.894 321.6 336.192C322.32 335.471 322.431 334.64 322.431 333.642V329.134H320.62V333.587C320.62 334.048 320.602 334.584 320.288 334.991C320.048 335.305 319.623 335.527 319.105 335.527C318.588 335.527 318.163 335.305 317.923 334.991C317.609 334.584 317.59 334.048 317.59 333.587V329.134H315.779ZM327.117 323.443H325.306V336.912H327.117V336.099C327.912 337.023 328.891 337.153 329.445 337.153C331.847 337.153 333.214 335.157 333.214 333.014C333.214 330.482 331.478 328.93 329.427 328.93C328.854 328.93 327.856 329.078 327.117 330.039V323.443ZM329.205 330.556C330.517 330.556 331.367 331.665 331.367 333.051C331.367 334.4 330.517 335.527 329.205 335.527C328.059 335.527 327.006 334.695 327.006 333.069C327.006 331.369 328.059 330.556 329.205 330.556ZM335.755 336.025C335.755 336.635 336.254 337.134 336.864 337.134C337.474 337.134 337.973 336.635 337.973 336.025C337.973 335.416 337.474 334.917 336.864 334.917C336.254 334.917 335.755 335.416 335.755 336.025ZM346.937 329.485C346.106 329.023 345.404 328.93 344.813 328.93C343.279 328.93 342.3 329.466 341.69 330.076C341.117 330.649 340.508 331.628 340.508 333.088C340.508 334.51 341.062 335.434 341.616 336.007C342.355 336.783 343.279 337.153 344.572 337.153C345.773 337.153 346.494 336.82 346.937 336.543V334.529C346.309 335.231 345.441 335.527 344.702 335.527C344.037 335.527 343.464 335.286 343.057 334.898C342.706 334.547 342.355 333.938 342.355 333.032C342.355 332.164 342.688 331.573 343.02 331.24C343.353 330.907 343.889 330.556 344.739 330.556C345.293 330.556 346.106 330.704 346.937 331.517V329.485ZM353.001 328.93C350.654 328.93 348.844 330.63 348.844 333.032C348.844 335.416 350.654 337.153 353.001 337.153C355.347 337.153 357.158 335.416 357.158 333.032C357.158 330.63 355.347 328.93 353.001 328.93ZM353.001 335.527C351.578 335.527 350.691 334.547 350.691 333.051C350.691 331.277 351.855 330.556 353.001 330.556C354.147 330.556 355.311 331.277 355.311 333.051C355.311 334.547 354.424 335.527 353.001 335.527ZM359.625 336.912H361.436V332.903C361.436 332.238 361.473 331.573 361.787 331.129C362.027 330.797 362.415 330.556 362.859 330.556C363.505 330.556 363.782 330.944 363.893 331.24C363.967 331.406 364.06 331.757 364.06 332.626V336.912H365.87V332.903C365.87 332.238 365.907 331.573 366.221 331.129C366.462 330.797 366.85 330.556 367.293 330.556C367.94 330.556 368.217 330.944 368.328 331.24C368.402 331.406 368.494 331.757 368.494 332.626V336.912H370.305V332.108C370.305 330.981 370.046 330.409 369.898 330.15C369.455 329.374 368.623 328.93 367.681 328.93C366.997 328.93 366.018 329.152 365.371 330.076C364.928 329.318 364.17 328.93 363.358 328.93C362.766 328.93 362.046 329.115 361.436 329.854V329.134H359.625V336.912Z" fill="black"/>
<path opacity="0.2" d="M107.365 32.9261L119.302 28.7088H127.088V74.125H118.135V38.1814L109.57 40.5819L107.365 32.9261Z" fill="black"/>
<path opacity="0.2" d="M327.173 256.125H296.809V249.442L312.315 233.482C315.776 229.805 317.506 226.778 317.506 224.399C317.506 222.625 316.944 221.198 315.819 220.116C314.738 219.035 313.332 218.494 311.602 218.494C308.142 218.494 305.611 220.268 304.011 223.815L296.485 219.403C297.869 216.332 299.88 213.974 302.519 212.331C305.2 210.644 308.185 209.801 311.472 209.801C315.581 209.801 319.106 211.098 322.048 213.693C324.989 216.245 326.459 219.706 326.459 224.074C326.459 228.789 323.972 233.633 318.998 238.607L310.11 247.496H327.173V256.125Z" fill="black"/>
<path opacity="0.2" d="M517.434 37.1052L508.934 48.1348C512.092 49.0431 514.601 50.6435 516.46 52.936C518.364 55.2284 519.315 57.9534 519.315 61.1109C519.315 65.7822 517.736 69.4372 514.579 72.0756C511.508 74.7141 507.68 76.0333 503.095 76.0333C499.505 76.0333 496.326 75.2115 493.558 73.5679C490.79 71.881 488.778 69.502 487.524 66.431L495.18 62.0192C496.261 65.5227 498.9 67.2745 503.095 67.2745C505.388 67.2745 507.161 66.7338 508.415 65.6525C509.713 64.5279 510.362 63.014 510.362 61.1109C510.362 59.251 509.713 57.7587 508.415 56.6341C507.161 55.5095 505.388 54.9472 503.095 54.9472H501.149L497.71 49.7568L506.664 38.0784H488.886V29.7088H517.434V37.1052Z" fill="black"/>
<path opacity="0.2" d="M884.545 44.2533H889.216C893.628 44.2533 897.305 45.5725 900.246 48.211C903.231 50.8062 904.723 54.4395 904.723 59.1109C904.723 63.7822 903.144 67.4372 899.987 70.0756C896.916 72.7141 893.088 74.0333 888.503 74.0333C884.783 74.0333 881.517 73.2115 878.706 71.5679C875.938 69.881 873.926 67.4588 872.672 64.3013L880.328 59.8246C881.409 63.4578 884.134 65.2745 888.503 65.2745C890.795 65.2745 892.569 64.7338 893.823 63.6525C895.121 62.5279 895.769 61.014 895.769 59.1109C895.769 57.251 895.142 55.7587 893.888 54.6341C892.634 53.5095 890.925 52.9472 888.762 52.9472H875.008L876.824 27.7088H902.582V36.0784H885.129L884.545 44.2533Z" fill="black"/>
<path opacity="0.2" d="M709.581 241.1H714.447V249.404H709.581V257.125H700.563V249.404H679.087V241.1L694.204 211.709H703.807L688.755 241.1H700.563V230.329H709.581V241.1Z" fill="black"/>
<path d="M228.2 216.818L223.199 208.157L218.199 216.818L228.2 216.818ZM203.765 203.71L221.016 213.67L221.882 212.17L204.631 202.21L203.765 203.71Z" fill="#1A1919"/>
<path d="M420.472 202.961L410.471 202.961L415.472 211.621L420.472 202.961ZM396.903 217.568L414.155 207.608L413.288 206.108L396.037 216.068L396.903 217.568Z" fill="#1A1919"/>
<path d="M612.167 216.818L607.166 208.157L602.166 216.818L612.167 216.818ZM587.732 203.71L604.983 213.67L605.849 212.17L588.598 202.21L587.732 203.71Z" fill="#1A1919"/>
<path d="M805.593 202.961L795.593 202.961L800.593 211.621L805.593 202.961ZM782.025 217.568L799.276 207.608L798.41 206.108L781.159 216.068L782.025 217.568Z" fill="#1A1919"/>
</svg>
