<svg width="460" height="952" viewBox="0 0 460 952" fill="none" xmlns="http://www.w3.org/2000/svg">
<rect y="-0.000366211" width="238.464" height="238.464" rx="119.232" fill="white"/>
<path d="M28.4622 88.598V100.922H30.3468V95.9147H31.1968C32.1021 95.9147 33.2292 95.7854 34.2085 94.9539C35.2247 94.0855 35.4094 92.9769 35.4094 92.2563C35.4094 91.1293 34.9106 89.9468 33.8759 89.2631C32.989 88.6719 31.9358 88.598 31.1783 88.598H28.4622ZM30.3468 90.3348H31.1783C33.3216 90.3348 33.5987 91.5542 33.5987 92.2379C33.5987 93.3834 32.8227 94.1779 31.1968 94.1779H30.3468V90.3348ZM43.0351 98.2982C42.8688 98.5938 42.6286 98.9079 42.3145 99.1481C41.945 99.4253 41.5754 99.5361 41.0766 99.5361C40.6331 99.5361 40.1158 99.4622 39.6908 99.0373C39.3028 98.6493 39.0626 98.021 39.0257 97.4668H44.6056V97.245C44.6056 96.4321 44.5132 94.9909 43.5155 93.9562C43.0536 93.4758 42.2591 92.94 41.0211 92.94C39.9125 92.94 39.0626 93.3465 38.4159 93.9931C37.603 94.8246 37.178 95.9886 37.178 97.1896C37.178 98.3536 37.5845 99.4253 38.3235 100.164C39.0626 100.903 39.9125 101.162 40.9472 101.162C41.7787 101.162 42.6101 100.977 43.2383 100.571C43.7372 100.257 44.2176 99.7394 44.5502 99.1481L43.0351 98.2982ZM39.155 95.9886C39.2474 95.6006 39.4506 95.2311 39.7093 94.9909C39.9495 94.7507 40.356 94.492 40.9842 94.492C41.5754 94.492 41.9634 94.7137 42.2036 94.9355C42.4808 95.1941 42.684 95.5637 42.7579 95.9886H39.155ZM47.0754 100.922H48.8861V94.8061H51.8424V93.1432H47.0754V100.922ZM53.7154 93.1432V101.513L59.0367 96.3951V100.922H60.8474V92.4411L55.5261 97.5591V93.1432H53.7154ZM69.7349 93.4943C68.9035 93.0324 68.2014 92.94 67.6101 92.94C66.0765 92.94 65.0973 93.4758 64.4876 94.0855C63.9148 94.6583 63.3051 95.6376 63.3051 97.0972C63.3051 98.5199 63.8594 99.4437 64.4137 100.017C65.1527 100.793 66.0765 101.162 67.3699 101.162C68.5709 101.162 69.2915 100.829 69.7349 100.552V98.5384C69.1067 99.2405 68.2383 99.5361 67.4992 99.5361C66.8341 99.5361 66.2613 99.2959 65.8548 98.9079C65.5038 98.5569 65.1527 97.9471 65.1527 97.0418C65.1527 96.1734 65.4853 95.5821 65.8179 95.2496C66.1505 94.917 66.6863 94.5659 67.5362 94.5659C68.0905 94.5659 68.9035 94.7137 69.7349 95.5267V93.4943ZM77.5863 94.8061V93.1432H71.2304V94.8061H73.503V100.922H75.3137V94.8061H77.5863ZM81.2743 100.017C82.0872 101.014 83.1774 101.162 83.6023 101.162C85.45 101.162 87.3715 99.61 87.3715 96.9864C87.3715 94.5105 85.6347 92.94 83.5838 92.94C82.8078 92.94 81.9394 93.1987 81.2743 93.9931V93.1432H79.4636V105.153H81.2743V100.017ZM83.3621 94.5659C84.674 94.5659 85.5239 95.6745 85.5239 97.0603C85.5239 98.4091 84.674 99.5361 83.3621 99.5361C82.2166 99.5361 81.1634 98.7047 81.1634 97.0787C81.1634 95.3789 82.2166 94.5659 83.3621 94.5659ZM95.5294 94.0486C94.7903 93.0878 93.7926 92.94 93.2198 92.94C91.1689 92.94 89.4321 94.492 89.4321 97.0233C89.4321 99.1666 90.7994 101.162 93.2013 101.162C93.7556 101.162 94.7349 101.033 95.5294 100.109V100.922H97.3401V93.1432H95.5294V94.0486ZM93.4415 94.5659C94.5871 94.5659 95.6403 95.3789 95.6403 97.0787C95.6403 98.7047 94.5871 99.5361 93.4415 99.5361C92.1297 99.5361 91.2798 98.4091 91.2798 97.0603C91.2798 95.6745 92.1297 94.5659 93.4415 94.5659ZM100.214 100.922H106.533V103.139H108.196V99.259H106.902V93.1432H105.091V99.259H102.024V93.1432H100.214V100.922ZM110.065 93.1432V101.513L115.387 96.3951V100.922H117.197V92.4411L111.876 97.5591V93.1432H110.065ZM119.064 100.922H121.189L123.313 98.058H123.683V100.922H125.494V93.1432H122.593C121.798 93.1432 121.004 93.2171 120.339 93.8453C119.729 94.4181 119.618 95.1387 119.618 95.6376C119.618 96.1919 119.766 96.7646 120.265 97.245C120.56 97.5222 120.985 97.7624 121.503 97.8363L119.064 100.922ZM123.683 96.5799H122.611C122.168 96.5799 121.835 96.5429 121.614 96.3951C121.429 96.2658 121.244 96.0256 121.244 95.6376C121.244 95.2865 121.447 95.0094 121.687 94.8616C121.946 94.7137 122.279 94.6953 122.63 94.6953H123.683V96.5799ZM133.251 93.1432V100.922H135.062V98.021L135.358 97.7254L137.944 100.922H140.236L136.651 96.5429L140.051 93.1432H137.649L135.062 95.9147V93.1432H133.251ZM145.573 92.94C143.226 92.94 141.416 94.6398 141.416 97.0418C141.416 99.4253 143.226 101.162 145.573 101.162C147.919 101.162 149.73 99.4253 149.73 97.0418C149.73 94.6398 147.919 92.94 145.573 92.94ZM145.573 99.5361C144.15 99.5361 143.263 98.5569 143.263 97.0603C143.263 95.2865 144.427 94.5659 145.573 94.5659C146.718 94.5659 147.882 95.2865 147.882 97.0603C147.882 98.5569 146.996 99.5361 145.573 99.5361ZM151.31 100.922H153.158L153.934 97.0233L156.41 101.513L158.886 97.0233L159.662 100.922H161.509L159.625 92.4411L156.41 98.3721L153.195 92.4411L151.31 100.922ZM163.492 93.1432V100.922H165.303V94.8061H168.444V100.922H170.255V93.1432H163.492ZM178.818 94.0486C178.079 93.0878 177.082 92.94 176.509 92.94C174.458 92.94 172.721 94.492 172.721 97.0233C172.721 99.1666 174.088 101.162 176.49 101.162C177.045 101.162 178.024 101.033 178.818 100.109V100.922H180.629V93.1432H178.818V94.0486ZM176.731 94.5659C177.876 94.5659 178.929 95.3789 178.929 97.0787C178.929 98.7047 177.876 99.5361 176.731 99.5361C175.419 99.5361 174.569 98.4091 174.569 97.0603C174.569 95.6745 175.419 94.5659 176.731 94.5659ZM183.503 100.922H185.313V97.6885H188.528V100.922H190.339V93.1432H188.528V96.0256H185.313V93.1432H183.503V100.922ZM193.21 93.1432V101.513L198.531 96.3951V100.922H200.342V92.4411L195.021 97.5591V93.1432H193.21ZM203.206 93.1432V101.513L208.528 96.3951V100.922H210.338V92.4411L205.017 97.5591V93.1432H203.206ZM66.3549 115.143V122.922H69.9948C70.3459 122.922 71.1404 122.885 71.787 122.405C72.1751 122.109 72.637 121.573 72.637 120.631C72.637 119.929 72.3783 119.448 72.0272 119.134C71.7316 118.875 71.3436 118.691 70.9741 118.617C71.6023 118.303 71.8979 117.73 71.8979 117.102C71.8979 116.289 71.4545 115.827 71.1773 115.605C70.5861 115.162 69.8655 115.143 69.4036 115.143H66.3549ZM68.1656 118.173V116.621H69.0525C69.3297 116.621 69.6068 116.603 69.847 116.769C70.0318 116.899 70.1611 117.102 70.1611 117.379C70.1611 117.564 70.1057 117.822 69.81 118.007C69.7546 118.044 69.5144 118.173 69.0895 118.173H68.1656ZM68.1656 121.444V119.652H69.5699C69.8285 119.652 70.1981 119.67 70.4752 119.855C70.66 119.966 70.8263 120.187 70.8263 120.538C70.8263 120.889 70.623 121.111 70.4567 121.222C70.1796 121.407 69.81 121.444 69.5144 121.444H68.1656ZM82.213 110.598H80.3284V122.922H82.213V117.822L82.5826 117.453L86.98 122.922H89.4928L83.8944 116.178L89.4559 110.598H86.98L82.213 115.513V110.598ZM96.3323 116.049C95.5933 115.088 94.5955 114.94 94.0228 114.94C91.9719 114.94 90.2351 116.492 90.2351 119.023C90.2351 121.167 91.6023 123.162 94.0043 123.162C94.5586 123.162 95.5378 123.033 96.3323 122.109V122.922H98.143V115.143H96.3323V116.049ZM94.2445 116.566C95.39 116.566 96.4432 117.379 96.4432 119.079C96.4432 120.705 95.39 121.536 94.2445 121.536C92.9326 121.536 92.0827 120.409 92.0827 119.06C92.0827 117.675 92.9326 116.566 94.2445 116.566ZM102.07 117.157C102.291 116.917 102.532 116.751 102.753 116.64C103.104 116.474 103.4 116.418 103.77 116.418C104.01 116.418 104.379 116.437 104.638 116.621C104.804 116.732 104.971 116.954 104.971 117.287C104.971 117.675 104.786 117.859 104.638 117.97C104.416 118.118 104.01 118.173 103.751 118.173H103.067V119.652H103.88C104.324 119.652 104.86 119.652 105.174 119.984C105.322 120.132 105.414 120.354 105.414 120.612C105.414 120.871 105.303 121.111 105.137 121.296C104.804 121.629 104.213 121.684 103.899 121.684C103.474 121.684 103.049 121.592 102.735 121.388C102.439 121.204 102.199 120.889 102.051 120.575L100.61 121.314C100.906 121.998 101.386 122.441 101.83 122.7C102.532 123.107 103.308 123.162 103.862 123.162C105.118 123.162 105.987 122.885 106.597 122.275C107.04 121.832 107.262 121.277 107.262 120.557C107.262 120.169 107.169 119.67 106.763 119.264C106.486 118.986 106.061 118.783 105.636 118.691C105.857 118.598 106.135 118.451 106.375 118.136C106.652 117.785 106.707 117.453 106.707 117.065C106.707 116.4 106.486 115.901 105.894 115.476C105.266 115.032 104.583 114.94 103.917 114.94C103.419 114.94 102.735 114.995 102.088 115.273C101.552 115.513 101.164 115.827 100.906 116.141L102.07 117.157ZM115.422 116.049C114.683 115.088 113.686 114.94 113.113 114.94C111.062 114.94 109.325 116.492 109.325 119.023C109.325 121.167 110.692 123.162 113.094 123.162C113.649 123.162 114.628 123.033 115.422 122.109V122.922H117.233V115.143H115.422V116.049ZM113.335 116.566C114.48 116.566 115.533 117.379 115.533 119.079C115.533 120.705 114.48 121.536 113.335 121.536C112.023 121.536 111.173 120.409 111.173 119.06C111.173 117.675 112.023 116.566 113.335 116.566ZM119.072 122.922H121.289L123.599 120.021L125.834 122.922H128.015L124.689 118.709L127.553 115.143H125.336L123.599 117.416L121.88 115.143H119.737L122.509 118.709L119.072 122.922ZM135.874 115.494C135.042 115.032 134.34 114.94 133.749 114.94C132.215 114.94 131.236 115.476 130.626 116.086C130.053 116.658 129.444 117.638 129.444 119.097C129.444 120.52 129.998 121.444 130.552 122.017C131.291 122.793 132.215 123.162 133.509 123.162C134.71 123.162 135.43 122.829 135.874 122.552V120.538C135.245 121.241 134.377 121.536 133.638 121.536C132.973 121.536 132.4 121.296 131.993 120.908C131.642 120.557 131.291 119.947 131.291 119.042C131.291 118.173 131.624 117.582 131.957 117.25C132.289 116.917 132.825 116.566 133.675 116.566C134.229 116.566 135.042 116.714 135.874 117.527V115.494ZM143.725 116.806V115.143H137.369V116.806H139.642V122.922H141.452V116.806H143.725ZM151.095 116.049C150.355 115.088 149.358 114.94 148.785 114.94C146.734 114.94 144.997 116.492 144.997 119.023C144.997 121.167 146.365 123.162 148.766 123.162C149.321 123.162 150.3 123.033 151.095 122.109V122.922H152.905V115.143H151.095V116.049ZM149.007 116.566C150.152 116.566 151.205 117.379 151.205 119.079C151.205 120.705 150.152 121.536 149.007 121.536C147.695 121.536 146.845 120.409 146.845 119.06C146.845 117.675 147.695 116.566 149.007 116.566ZM155.779 122.922H157.589V119.688H160.804V122.922H162.615V115.143H160.804V118.026H157.589V115.143H155.779V122.922ZM170.937 120.298C170.771 120.594 170.53 120.908 170.216 121.148C169.847 121.425 169.477 121.536 168.978 121.536C168.535 121.536 168.018 121.462 167.593 121.037C167.205 120.649 166.964 120.021 166.927 119.467H172.507V119.245C172.507 118.432 172.415 116.991 171.417 115.956C170.955 115.476 170.161 114.94 168.923 114.94C167.814 114.94 166.964 115.346 166.318 115.993C165.505 116.825 165.08 117.989 165.08 119.19C165.08 120.354 165.486 121.425 166.225 122.164C166.964 122.903 167.814 123.162 168.849 123.162C169.68 123.162 170.512 122.977 171.14 122.571C171.639 122.257 172.119 121.739 172.452 121.148L170.937 120.298ZM167.057 117.989C167.149 117.601 167.352 117.231 167.611 116.991C167.851 116.751 168.258 116.492 168.886 116.492C169.477 116.492 169.865 116.714 170.105 116.935C170.383 117.194 170.586 117.564 170.66 117.989H167.057Z" fill="black"/>
<path opacity="0.8" d="M85.7219 152.165C85.26 151.075 84.8351 149.763 84.5949 148.728C84.3916 147.804 84.1699 146.382 84.1699 144.368C84.1699 142.816 84.3177 141.19 84.6133 139.859C84.8351 138.843 85.2415 137.605 85.7219 136.515L84.059 135.868C83.4863 137.069 83.1352 138.141 82.8396 139.471C82.4331 141.282 82.3222 142.649 82.3222 144.368C82.3222 146.03 82.4146 147.342 82.8026 149.079C83.0983 150.391 83.4678 151.555 84.059 152.811L85.7219 152.165ZM94.7102 136.995C91.0149 136.995 88.2988 139.767 88.2988 143.388C88.2988 147.01 91.0149 149.781 94.7102 149.781C98.4055 149.781 101.122 147.01 101.122 143.388C101.122 139.767 98.4055 136.995 94.7102 136.995ZM94.7102 148.044C92.0681 148.044 90.1835 146.123 90.1835 143.388C90.1835 140.654 92.0681 138.732 94.7102 138.732C97.3524 138.732 99.237 140.654 99.237 143.388C99.237 146.123 97.3524 148.044 94.7102 148.044ZM103.732 149.541H105.543V146.308H108.758V149.541H110.568V141.762H108.758V144.645H105.543V141.762H103.732V149.541ZM119.832 141.762H113.994V146.511C113.994 146.806 113.957 147.231 113.717 147.527C113.477 147.804 112.978 148.007 112.442 147.878V149.541C113.273 149.67 114.29 149.523 114.992 148.747C115.638 148.044 115.731 147.176 115.731 146.511V143.425H118.022V149.541H119.832V141.762ZM128.387 142.668C127.648 141.707 126.65 141.559 126.077 141.559C124.026 141.559 122.289 143.111 122.289 145.642C122.289 147.786 123.657 149.781 126.059 149.781C126.613 149.781 127.592 149.652 128.387 148.728V149.541H130.197V141.762H128.387V142.668ZM126.299 143.185C127.444 143.185 128.498 143.998 128.498 145.698C128.498 147.324 127.444 148.155 126.299 148.155C124.987 148.155 124.137 147.028 124.137 145.679C124.137 144.294 124.987 143.185 126.299 143.185ZM133.071 141.762V150.132L138.392 145.014V149.541H140.203V141.06L134.882 146.178V141.762H133.071ZM133.662 138.4C134.087 139.933 135.602 140.58 136.655 140.58C137.709 140.58 139.224 139.933 139.649 138.4L138.171 137.975C137.912 138.806 137.45 139.176 136.655 139.176C136.212 139.176 135.454 139.046 135.14 137.975L133.662 138.4ZM143.067 149.541H144.878V146.308H148.093V149.541H149.903V141.762H148.093V144.645H144.878V141.762H143.067V149.541ZM154.4 152.811C154.992 151.555 155.361 150.391 155.657 149.079C156.045 147.342 156.137 146.03 156.137 144.368C156.137 142.649 156.026 141.282 155.62 139.471C155.324 138.141 154.973 137.069 154.4 135.868L152.738 136.515C153.218 137.605 153.624 138.843 153.846 139.859C154.142 141.19 154.29 142.816 154.29 144.368C154.29 146.382 154.068 147.804 153.865 148.728C153.624 149.763 153.199 151.075 152.738 152.165L154.4 152.811Z" fill="black"/>
<rect x="192.272" y="179.57" width="238.464" height="238.464" rx="119.232" fill="white"/>
<path d="M245.391 268.716V281.04H247.276V270.49H252.56V281.04H254.445V268.716H245.391ZM261.404 273.058C259.057 273.058 257.246 274.758 257.246 277.16C257.246 279.543 259.057 281.28 261.404 281.28C263.75 281.28 265.561 279.543 265.561 277.16C265.561 274.758 263.75 273.058 261.404 273.058ZM261.404 279.654C259.981 279.654 259.094 278.675 259.094 277.178C259.094 275.404 260.258 274.684 261.404 274.684C262.549 274.684 263.713 275.404 263.713 277.178C263.713 278.675 262.826 279.654 261.404 279.654ZM268.693 273.261V276.31C268.693 277.252 268.601 277.88 268.379 278.361C268.139 278.841 267.658 279.34 266.956 279.377V283.257H268.619V281.04H274.051V283.257H275.714V279.377H274.532V273.261H268.693ZM272.721 279.377H269.524C270.005 279.007 270.43 278.342 270.43 276.993V274.924H272.721V279.377ZM283.282 274.167C282.543 273.206 281.545 273.058 280.972 273.058C278.921 273.058 277.184 274.61 277.184 277.141C277.184 279.285 278.552 281.28 280.954 281.28C281.508 281.28 282.487 281.151 283.282 280.227V281.04H285.092V273.261H283.282V274.167ZM281.194 274.684C282.339 274.684 283.393 275.497 283.393 277.197C283.393 278.823 282.339 279.654 281.194 279.654C279.882 279.654 279.032 278.527 279.032 277.178C279.032 275.792 279.882 274.684 281.194 274.684ZM292.179 281.04H293.989V273.261H292.179V276.439C291.828 276.568 291.44 276.642 290.959 276.642C290.774 276.642 290.331 276.624 290.054 276.458C289.684 276.236 289.592 275.848 289.592 275.386V273.261H287.781V275.755C287.781 276.273 287.818 277.049 288.539 277.622C289.167 278.12 289.98 278.194 290.59 278.194C290.848 278.194 291.44 278.176 292.179 278.028V281.04ZM302.552 274.167C301.813 273.206 300.815 273.058 300.243 273.058C298.192 273.058 296.455 274.61 296.455 277.141C296.455 279.285 297.822 281.28 300.224 281.28C300.778 281.28 301.758 281.151 302.552 280.227V281.04H304.363V273.261H302.552V274.167ZM300.464 274.684C301.61 274.684 302.663 275.497 302.663 277.197C302.663 278.823 301.61 279.654 300.464 279.654C299.153 279.654 298.303 278.527 298.303 277.178C298.303 275.792 299.153 274.684 300.464 274.684ZM313.179 275.275C313.401 275.035 313.641 274.869 313.863 274.758C314.214 274.591 314.51 274.536 314.879 274.536C315.119 274.536 315.489 274.555 315.748 274.739C315.914 274.85 316.08 275.072 316.08 275.404C316.08 275.792 315.896 275.977 315.748 276.088C315.526 276.236 315.119 276.291 314.861 276.291H314.177V277.769H314.99C315.434 277.769 315.969 277.769 316.284 278.102C316.431 278.25 316.524 278.472 316.524 278.73C316.524 278.989 316.413 279.229 316.247 279.414C315.914 279.746 315.323 279.802 315.009 279.802C314.584 279.802 314.159 279.709 313.845 279.506C313.549 279.321 313.309 279.007 313.161 278.693L311.72 279.432C312.015 280.116 312.496 280.559 312.939 280.818C313.641 281.225 314.417 281.28 314.972 281.28C316.228 281.28 317.096 281.003 317.706 280.393C318.15 279.95 318.371 279.395 318.371 278.675C318.371 278.287 318.279 277.788 317.872 277.381C317.595 277.104 317.17 276.901 316.745 276.809C316.967 276.716 317.244 276.568 317.484 276.254C317.762 275.903 317.817 275.571 317.817 275.183C317.817 274.518 317.595 274.019 317.004 273.594C316.376 273.15 315.692 273.058 315.027 273.058C314.528 273.058 313.845 273.113 313.198 273.39C312.662 273.631 312.274 273.945 312.015 274.259L313.179 275.275ZM326.532 274.167C325.793 273.206 324.795 273.058 324.223 273.058C322.172 273.058 320.435 274.61 320.435 277.141C320.435 279.285 321.802 281.28 324.204 281.28C324.758 281.28 325.738 281.151 326.532 280.227V281.04H328.343V273.261H326.532V274.167ZM324.444 274.684C325.59 274.684 326.643 275.497 326.643 277.197C326.643 278.823 325.59 279.654 324.444 279.654C323.132 279.654 322.282 278.527 322.282 277.178C322.282 275.792 323.132 274.684 324.444 274.684ZM330.219 281.04H332.343L334.468 278.176H334.838V281.04H336.648V273.261H333.748C332.953 273.261 332.159 273.335 331.494 273.963C330.884 274.536 330.773 275.257 330.773 275.755C330.773 276.31 330.921 276.883 331.42 277.363C331.715 277.64 332.14 277.88 332.658 277.954L330.219 281.04ZM334.838 276.698H333.766C333.323 276.698 332.99 276.661 332.768 276.513C332.584 276.384 332.399 276.143 332.399 275.755C332.399 275.404 332.602 275.127 332.842 274.979C333.101 274.832 333.434 274.813 333.785 274.813H334.838V276.698ZM339.516 273.261V281.04H343.156C343.507 281.04 344.302 281.003 344.949 280.522C345.337 280.227 345.798 279.691 345.798 278.749C345.798 278.047 345.54 277.566 345.189 277.252C344.893 276.993 344.505 276.809 344.136 276.735C344.764 276.421 345.059 275.848 345.059 275.22C345.059 274.407 344.616 273.945 344.339 273.723C343.748 273.28 343.027 273.261 342.565 273.261H339.516ZM341.327 276.291V274.739H342.214C342.491 274.739 342.768 274.721 343.008 274.887C343.193 275.016 343.323 275.22 343.323 275.497C343.323 275.682 343.267 275.94 342.972 276.125C342.916 276.162 342.676 276.291 342.251 276.291H341.327ZM341.327 279.562V277.769H342.731C342.99 277.769 343.36 277.788 343.637 277.973C343.821 278.084 343.988 278.305 343.988 278.656C343.988 279.007 343.784 279.229 343.618 279.34C343.341 279.525 342.972 279.562 342.676 279.562H341.327ZM348.268 273.261V281.04H350.078V278.139L350.374 277.843L352.961 281.04H355.252L351.667 276.661L355.067 273.261H352.665L350.078 276.033V273.261H348.268ZM357.019 273.261V281.631L362.34 276.513V281.04H364.151V272.559L358.829 277.677V273.261H357.019ZM377.928 273.612C377.097 273.15 376.394 273.058 375.803 273.058C374.27 273.058 373.29 273.594 372.681 274.203C372.108 274.776 371.498 275.755 371.498 277.215C371.498 278.638 372.052 279.562 372.607 280.134C373.346 280.91 374.27 281.28 375.563 281.28C376.764 281.28 377.485 280.947 377.928 280.67V278.656C377.3 279.358 376.431 279.654 375.692 279.654C375.027 279.654 374.454 279.414 374.048 279.026C373.697 278.675 373.346 278.065 373.346 277.16C373.346 276.291 373.678 275.7 374.011 275.367C374.343 275.035 374.879 274.684 375.729 274.684C376.284 274.684 377.097 274.832 377.928 275.645V273.612ZM216.82 295.261V303.04H218.631V296.924H221.772V303.04H223.583V295.261H216.82ZM232.146 296.167C231.407 295.206 230.409 295.058 229.837 295.058C227.786 295.058 226.049 296.61 226.049 299.141C226.049 301.285 227.416 303.28 229.818 303.28C230.373 303.28 231.352 303.151 232.146 302.227V303.04H233.957V295.261H232.146V296.167ZM230.058 296.684C231.204 296.684 232.257 297.497 232.257 299.197C232.257 300.823 231.204 301.654 230.058 301.654C228.747 301.654 227.897 300.527 227.897 299.178C227.897 297.792 228.747 296.684 230.058 296.684ZM236.831 295.261V303.04H238.641V300.139L238.937 299.843L241.524 303.04H243.815L240.23 298.661L243.63 295.261H241.228L238.641 298.033V295.261H236.831ZM251.032 300.416C250.866 300.712 250.626 301.026 250.312 301.266C249.942 301.543 249.573 301.654 249.074 301.654C248.63 301.654 248.113 301.58 247.688 301.155C247.3 300.767 247.06 300.139 247.023 299.585H252.603V299.363C252.603 298.55 252.51 297.109 251.513 296.074C251.051 295.594 250.256 295.058 249.018 295.058C247.91 295.058 247.06 295.464 246.413 296.111C245.6 296.943 245.175 298.107 245.175 299.308C245.175 300.472 245.582 301.543 246.321 302.282C247.06 303.021 247.91 303.28 248.944 303.28C249.776 303.28 250.607 303.095 251.235 302.689C251.734 302.375 252.215 301.857 252.547 301.266L251.032 300.416ZM247.152 298.107C247.245 297.719 247.448 297.349 247.706 297.109C247.947 296.869 248.353 296.61 248.981 296.61C249.573 296.61 249.961 296.832 250.201 297.053C250.478 297.312 250.681 297.682 250.755 298.107H247.152ZM260.431 296.924V295.261H254.075V296.924H256.347V303.04H258.158V296.924H260.431ZM265.86 295.058C263.514 295.058 261.703 296.758 261.703 299.16C261.703 301.543 263.514 303.28 265.86 303.28C268.207 303.28 270.018 301.543 270.018 299.16C270.018 296.758 268.207 295.058 265.86 295.058ZM265.86 301.654C264.438 301.654 263.551 300.675 263.551 299.178C263.551 297.404 264.715 296.684 265.86 296.684C267.006 296.684 268.17 297.404 268.17 299.178C268.17 300.675 267.283 301.654 265.86 301.654ZM271.598 303.04H273.445L274.221 299.141L276.697 303.631L279.173 299.141L279.949 303.04H281.797L279.912 294.559L276.697 300.49L273.482 294.559L271.598 303.04ZM289.335 295.261V298.31C289.335 299.252 289.242 299.88 289.021 300.361C288.781 300.841 288.3 301.34 287.598 301.377V305.257H289.261V303.04H294.693V305.257H296.356V301.377H295.173V295.261H289.335ZM293.363 301.377H290.166C290.647 301.007 291.072 300.342 291.072 298.993V296.924H293.363V301.377ZM301.983 295.058C299.637 295.058 297.826 296.758 297.826 299.16C297.826 301.543 299.637 303.28 301.983 303.28C304.33 303.28 306.141 301.543 306.141 299.16C306.141 296.758 304.33 295.058 301.983 295.058ZM301.983 301.654C300.561 301.654 299.674 300.675 299.674 299.178C299.674 297.404 300.838 296.684 301.983 296.684C303.129 296.684 304.293 297.404 304.293 299.178C304.293 300.675 303.406 301.654 301.983 301.654ZM308.608 295.261V303.04H310.418V300.139L310.714 299.843L313.301 303.04H315.592L312.007 298.661L315.407 295.261H313.005L310.418 298.033V295.261H308.608ZM316.786 307.271H318.819L325.008 295.261H322.976L320.722 299.806L318.504 295.261H316.324L319.65 301.82L316.786 307.271ZM325.963 303.04H327.811L328.587 299.141L331.062 303.631L333.538 299.141L334.314 303.04H336.162L334.277 294.559L331.062 300.49L327.848 294.559L325.963 303.04ZM343.596 300.416C343.429 300.712 343.189 301.026 342.875 301.266C342.506 301.543 342.136 301.654 341.637 301.654C341.194 301.654 340.676 301.58 340.251 301.155C339.863 300.767 339.623 300.139 339.586 299.585H345.166V299.363C345.166 298.55 345.074 297.109 344.076 296.074C343.614 295.594 342.82 295.058 341.582 295.058C340.473 295.058 339.623 295.464 338.977 296.111C338.164 296.943 337.739 298.107 337.739 299.308C337.739 300.472 338.145 301.543 338.884 302.282C339.623 303.021 340.473 303.28 341.508 303.28C342.339 303.28 343.171 303.095 343.799 302.689C344.298 302.375 344.778 301.857 345.111 301.266L343.596 300.416ZM339.716 298.107C339.808 297.719 340.011 297.349 340.27 297.109C340.51 296.869 340.917 296.61 341.545 296.61C342.136 296.61 342.524 296.832 342.764 297.053C343.041 297.312 343.245 297.682 343.319 298.107H339.716ZM347.636 303.04H349.447V299.806H352.662V303.04H354.472V295.261H352.662V298.143H349.447V295.261H347.636V303.04ZM362.702 296.924V295.261H356.346V296.924H358.618V303.04H360.429V296.924H362.702ZM368.131 295.058C365.785 295.058 363.974 296.758 363.974 299.16C363.974 301.543 365.785 303.28 368.131 303.28C370.478 303.28 372.288 301.543 372.288 299.16C372.288 296.758 370.478 295.058 368.131 295.058ZM368.131 301.654C366.708 301.654 365.822 300.675 365.822 299.178C365.822 297.404 366.986 296.684 368.131 296.684C369.277 296.684 370.441 297.404 370.441 299.178C370.441 300.675 369.554 301.654 368.131 301.654ZM374.755 295.261V303.04H378.395C378.746 303.04 379.541 303.003 380.188 302.522C380.576 302.227 381.037 301.691 381.037 300.749C381.037 300.047 380.779 299.566 380.428 299.252C380.132 298.993 379.744 298.809 379.375 298.735C380.003 298.421 380.298 297.848 380.298 297.22C380.298 296.407 379.855 295.945 379.578 295.723C378.987 295.28 378.266 295.261 377.804 295.261H374.755ZM376.566 298.291V296.739H377.453C377.73 296.739 378.007 296.721 378.248 296.887C378.432 297.016 378.562 297.22 378.562 297.497C378.562 297.682 378.506 297.94 378.211 298.125C378.155 298.162 377.915 298.291 377.49 298.291H376.566ZM376.566 301.562V299.769H377.97C378.229 299.769 378.599 299.788 378.876 299.973C379.06 300.084 379.227 300.305 379.227 300.656C379.227 301.007 379.024 301.229 378.857 301.34C378.58 301.525 378.211 301.562 377.915 301.562H376.566ZM388.396 303.04H390.207V299.806H393.422V303.04H395.233V295.261H393.422V298.143H390.207V295.261H388.396V303.04ZM403.795 296.167C403.056 295.206 402.058 295.058 401.485 295.058C399.434 295.058 397.697 296.61 397.697 299.141C397.697 301.285 399.065 303.28 401.467 303.28C402.021 303.28 403 303.151 403.795 302.227V303.04H405.605V295.261H403.795V296.167ZM401.707 296.684C402.852 296.684 403.905 297.497 403.905 299.197C403.905 300.823 402.852 301.654 401.707 301.654C400.395 301.654 399.545 300.527 399.545 299.178C399.545 297.792 400.395 296.684 401.707 296.684ZM267.252 317.261V325.04H269.063V318.924H272.204V325.04H274.014V317.261H267.252ZM283.28 317.261H277.442V322.01C277.442 322.305 277.405 322.73 277.164 323.026C276.924 323.303 276.425 323.506 275.889 323.377V325.04C276.721 325.169 277.737 325.021 278.439 324.245C279.086 323.543 279.178 322.675 279.178 322.01V318.924H281.469V325.04H283.28V317.261ZM291.834 318.167C291.095 317.206 290.098 317.058 289.525 317.058C287.474 317.058 285.737 318.61 285.737 321.141C285.737 323.285 287.104 325.28 289.506 325.28C290.061 325.28 291.04 325.151 291.834 324.227V325.04H293.645V317.261H291.834V318.167ZM289.747 318.684C290.892 318.684 291.945 319.497 291.945 321.197C291.945 322.823 290.892 323.654 289.747 323.654C288.435 323.654 287.585 322.527 287.585 321.178C287.585 319.792 288.435 318.684 289.747 318.684ZM301.877 318.924V317.261H295.521V318.924H297.793V325.04H299.604V318.924H301.877ZM307.694 329.271H309.505V325.169C310.965 325.188 312.018 324.744 312.702 324.153C313.404 323.562 314.013 322.638 314.013 321.141C314.013 319.515 313.237 318.591 312.72 318.148C311.778 317.335 310.521 317.132 309.505 317.132V312.716H307.694V317.132C306.678 317.132 305.422 317.335 304.479 318.148C303.962 318.591 303.186 319.515 303.186 321.141C303.186 322.638 303.796 323.562 304.498 324.153C305.182 324.744 306.235 325.188 307.694 325.169V329.271ZM307.694 323.543C307.066 323.562 306.383 323.395 305.939 323.081C305.588 322.841 305.034 322.287 305.034 321.141C305.034 319.885 305.717 319.331 305.995 319.164C306.475 318.85 307.214 318.758 307.694 318.758V323.543ZM309.505 318.758C309.985 318.758 310.725 318.85 311.205 319.164C311.482 319.331 312.166 319.885 312.166 321.141C312.166 322.287 311.611 322.841 311.26 323.081C310.817 323.395 310.133 323.562 309.505 323.543V318.758ZM320.262 317.058C317.915 317.058 316.104 318.758 316.104 321.16C316.104 323.543 317.915 325.28 320.262 325.28C322.608 325.28 324.419 323.543 324.419 321.16C324.419 318.758 322.608 317.058 320.262 317.058ZM320.262 323.654C318.839 323.654 317.952 322.675 317.952 321.178C317.952 319.404 319.116 318.684 320.262 318.684C321.407 318.684 322.571 319.404 322.571 321.178C322.571 322.675 321.684 323.654 320.262 323.654ZM328.697 324.134C329.51 325.132 330.6 325.28 331.025 325.28C332.872 325.28 334.794 323.728 334.794 321.104C334.794 318.628 333.057 317.058 331.006 317.058C330.23 317.058 329.362 317.317 328.697 318.111V317.261H326.886V329.271H328.697V324.134ZM330.784 318.684C332.096 318.684 332.946 319.792 332.946 321.178C332.946 322.527 332.096 323.654 330.784 323.654C329.639 323.654 328.586 322.823 328.586 321.197C328.586 319.497 329.639 318.684 330.784 318.684ZM336.374 325.04H338.222L338.998 321.141L341.474 325.631L343.949 321.141L344.725 325.04H346.573L344.689 316.559L341.474 322.49L338.259 316.559L336.374 325.04ZM354.007 322.416C353.841 322.712 353.6 323.026 353.286 323.266C352.917 323.543 352.547 323.654 352.048 323.654C351.605 323.654 351.088 323.58 350.663 323.155C350.275 322.767 350.034 322.139 349.997 321.585H355.577V321.363C355.577 320.55 355.485 319.109 354.487 318.074C354.025 317.594 353.231 317.058 351.993 317.058C350.884 317.058 350.034 317.464 349.388 318.111C348.575 318.943 348.15 320.107 348.15 321.308C348.15 322.472 348.556 323.543 349.295 324.282C350.034 325.021 350.884 325.28 351.919 325.28C352.75 325.28 353.582 325.095 354.21 324.689C354.709 324.375 355.189 323.857 355.522 323.266L354.007 322.416ZM350.127 320.107C350.219 319.719 350.422 319.349 350.681 319.109C350.921 318.869 351.328 318.61 351.956 318.61C352.547 318.61 352.935 318.832 353.175 319.053C353.453 319.312 353.656 319.682 353.73 320.107H350.127ZM258.77 340.167C258.03 339.206 257.033 339.058 256.46 339.058C254.409 339.058 252.672 340.61 252.672 343.141C252.672 345.285 254.04 347.28 256.441 347.28C256.996 347.28 257.975 347.151 258.77 346.227V347.04H260.58V339.261H258.77V340.167ZM256.682 340.684C257.827 340.684 258.88 341.497 258.88 343.197C258.88 344.823 257.827 345.654 256.682 345.654C255.37 345.654 254.52 344.527 254.52 343.178C254.52 341.792 255.37 340.684 256.682 340.684ZM268.202 340.425C267.925 339.926 267.574 339.631 267.315 339.464C266.872 339.169 266.429 339.058 265.874 339.058C264.913 339.058 264.322 339.427 263.971 339.797C263.565 340.222 263.324 340.832 263.324 341.46C263.324 341.959 263.472 342.384 263.879 342.772C264.174 343.067 264.599 343.271 264.95 343.437L265.616 343.751C265.911 343.88 266.17 344.01 266.392 344.231C266.558 344.416 266.632 344.601 266.632 344.823C266.632 345.044 266.521 345.285 266.373 345.432C266.207 345.599 265.911 345.691 265.634 345.691C265.209 345.691 264.95 345.506 264.84 345.395C264.673 345.248 264.507 344.915 264.415 344.656L262.936 345.358C263.121 345.913 263.491 346.449 263.934 346.781C264.488 347.206 265.117 347.28 265.616 347.28C266.429 347.28 267.186 347.077 267.796 346.412C268.221 345.95 268.479 345.34 268.479 344.638C268.479 344.102 268.332 343.622 267.907 343.197C267.611 342.883 267.223 342.679 266.817 342.476L265.893 342.014C265.505 341.811 265.394 341.774 265.283 341.7C265.117 341.589 265.024 341.46 265.024 341.257C265.024 341.09 265.098 340.943 265.191 340.85C265.301 340.739 265.486 340.647 265.745 340.647C266.318 340.647 266.669 341.016 266.853 341.312L268.202 340.425ZM273.941 340.924V339.261H272.555V336.416H270.745V339.261H269.987V340.924H270.745V347.04H272.555V340.924H273.941ZM281.432 340.167C280.693 339.206 279.695 339.058 279.123 339.058C277.072 339.058 275.335 340.61 275.335 343.141C275.335 345.285 276.702 347.28 279.104 347.28C279.658 347.28 280.638 347.151 281.432 346.227V347.04H283.243V339.261H281.432V340.167ZM279.344 340.684C280.49 340.684 281.543 341.497 281.543 343.197C281.543 344.823 280.49 345.654 279.344 345.654C278.033 345.654 277.183 344.527 277.183 343.178C277.183 341.792 278.033 340.684 279.344 340.684ZM286.098 347.04H287.909V343.308C287.909 340.795 288.74 340.684 289.553 340.684C290.237 340.684 290.976 340.739 290.976 342.716V347.04H292.787V342.273C292.787 341.072 292.602 340.536 292.306 340.111C292.066 339.778 291.456 339.058 290.015 339.058C289.572 339.058 288.685 339.113 287.909 339.982V339.261H286.098V347.04ZM301.352 340.167C300.613 339.206 299.616 339.058 299.043 339.058C296.992 339.058 295.255 340.61 295.255 343.141C295.255 345.285 296.622 347.28 299.024 347.28C299.579 347.28 300.558 347.151 301.352 346.227V347.04H303.163V339.261H301.352V340.167ZM299.264 340.684C300.41 340.684 301.463 341.497 301.463 343.197C301.463 344.823 300.41 345.654 299.264 345.654C297.953 345.654 297.103 344.527 297.103 343.178C297.103 341.792 297.953 340.684 299.264 340.684ZM306.037 347.04H307.847V343.289C307.847 342.291 307.958 341.7 308.217 341.331C308.457 340.979 308.937 340.684 309.547 340.684C310.009 340.684 310.36 340.869 310.563 341.09C310.914 341.478 310.914 341.977 310.914 342.439V347.04H312.725V342.273C312.725 341.719 312.707 340.813 312.226 340.111C312.005 339.797 311.358 339.058 309.935 339.058C309.473 339.058 308.623 339.132 307.847 339.926V333.57H306.037V347.04ZM315.401 339.261V343.769C315.401 344.767 315.512 345.599 316.233 346.319C316.935 347.04 317.896 347.28 318.69 347.28C319.558 347.28 320.519 347.021 321.221 346.319C321.942 345.599 322.053 344.767 322.053 343.769V339.261H320.242V343.714C320.242 344.176 320.224 344.712 319.909 345.118C319.669 345.432 319.244 345.654 318.727 345.654C318.21 345.654 317.785 345.432 317.544 345.118C317.23 344.712 317.212 344.176 317.212 343.714V339.261H315.401ZM326.739 333.57H324.928V347.04H326.739V346.227C327.533 347.151 328.513 347.28 329.067 347.28C331.469 347.28 332.836 345.285 332.836 343.141C332.836 340.61 331.099 339.058 329.048 339.058C328.476 339.058 327.478 339.206 326.739 340.167V333.57ZM328.827 340.684C330.139 340.684 330.988 341.792 330.988 343.178C330.988 344.527 330.139 345.654 328.827 345.654C327.681 345.654 326.628 344.823 326.628 343.197C326.628 341.497 327.681 340.684 328.827 340.684ZM335.377 346.153C335.377 346.763 335.876 347.262 336.486 347.262C337.095 347.262 337.594 346.763 337.594 346.153C337.594 345.543 337.095 345.044 336.486 345.044C335.876 345.044 335.377 345.543 335.377 346.153ZM346.559 339.612C345.728 339.15 345.026 339.058 344.434 339.058C342.901 339.058 341.922 339.594 341.312 340.203C340.739 340.776 340.129 341.755 340.129 343.215C340.129 344.638 340.684 345.562 341.238 346.134C341.977 346.91 342.901 347.28 344.194 347.28C345.395 347.28 346.116 346.947 346.559 346.67V344.656C345.931 345.358 345.063 345.654 344.324 345.654C343.658 345.654 343.086 345.414 342.679 345.026C342.328 344.675 341.977 344.065 341.977 343.16C341.977 342.291 342.31 341.7 342.642 341.367C342.975 341.035 343.511 340.684 344.361 340.684C344.915 340.684 345.728 340.832 346.559 341.645V339.612ZM352.623 339.058C350.276 339.058 348.465 340.758 348.465 343.16C348.465 345.543 350.276 347.28 352.623 347.28C354.969 347.28 356.78 345.543 356.78 343.16C356.78 340.758 354.969 339.058 352.623 339.058ZM352.623 345.654C351.2 345.654 350.313 344.675 350.313 343.178C350.313 341.404 351.477 340.684 352.623 340.684C353.768 340.684 354.932 341.404 354.932 343.178C354.932 344.675 354.045 345.654 352.623 345.654ZM359.247 347.04H361.058V343.03C361.058 342.365 361.095 341.7 361.409 341.257C361.649 340.924 362.037 340.684 362.48 340.684C363.127 340.684 363.404 341.072 363.515 341.367C363.589 341.534 363.681 341.885 363.681 342.753V347.04H365.492V343.03C365.492 342.365 365.529 341.7 365.843 341.257C366.083 340.924 366.471 340.684 366.915 340.684C367.561 340.684 367.839 341.072 367.949 341.367C368.023 341.534 368.116 341.885 368.116 342.753V347.04H369.926V342.236C369.926 341.109 369.668 340.536 369.52 340.277C369.077 339.501 368.245 339.058 367.303 339.058C366.619 339.058 365.64 339.28 364.993 340.203C364.55 339.446 363.792 339.058 362.979 339.058C362.388 339.058 361.667 339.243 361.058 339.982V339.261H359.247V347.04Z" fill="black"/>
<path opacity="0.2" d="M106.986 32.0533L118.924 27.836H126.71V73.2522H117.756V37.3086L109.192 39.7091L106.986 32.0533Z" fill="black"/>
<path opacity="0.2" d="M326.795 255.252H296.431V248.57L311.937 232.609C315.398 228.932 317.128 225.905 317.128 223.526C317.128 221.752 316.565 220.325 315.441 219.244C314.36 218.162 312.954 217.622 311.224 217.622C307.763 217.622 305.233 219.395 303.633 222.942L296.107 218.53C297.491 215.459 299.502 213.102 302.14 211.458C304.822 209.771 307.807 208.928 311.094 208.928C315.203 208.928 318.728 210.225 321.669 212.821C324.611 215.372 326.081 218.833 326.081 223.201C326.081 227.916 323.594 232.76 318.62 237.735L309.731 246.623H326.795V255.252Z" fill="black"/>
<path d="M227.822 215.945L222.821 207.284L217.821 215.945L227.822 215.945ZM203.387 202.837L220.638 212.797L221.504 211.297L204.253 201.337L203.387 202.837Z" fill="#1A1919"/>
<path d="M198.622 394.356L207.805 390.396L199.784 384.423L198.622 394.356ZM214.481 371.61L202.583 387.587L203.972 388.621L215.87 372.645L214.481 371.61Z" fill="#1A1919"/>
<rect x="1" y="713" width="238.464" height="238.464" rx="119.232" fill="#91BC55"/>
<path d="M77.0611 812.646V824.97H78.9457V814.42H84.23V824.97H86.1147V812.646H77.0611ZM93.0737 816.988C90.7272 816.988 88.9165 818.688 88.9165 821.09C88.9165 823.474 90.7272 825.21 93.0737 825.21C95.4202 825.21 97.2309 823.474 97.2309 821.09C97.2309 818.688 95.4202 816.988 93.0737 816.988ZM93.0737 823.584C91.651 823.584 90.7641 822.605 90.7641 821.109C90.7641 819.335 91.9281 818.614 93.0737 818.614C94.2192 818.614 95.3833 819.335 95.3833 821.109C95.3833 822.605 94.4964 823.584 93.0737 823.584ZM106.091 817.192H100.252V821.94C100.252 822.236 100.215 822.661 99.9751 822.956C99.7349 823.233 99.2361 823.437 98.7003 823.307V824.97C99.5317 825.1 100.548 824.952 101.25 824.176C101.897 823.474 101.989 822.605 101.989 821.94V818.854H104.28V824.97H106.091V817.192ZM108.382 829.201H110.414L116.604 817.192H114.571L112.317 821.737L110.1 817.192H107.92L111.245 823.751L108.382 829.201ZM122.658 824.97H124.469V817.192H122.658V820.37C122.307 820.499 121.919 820.573 121.438 820.573C121.254 820.573 120.81 820.554 120.533 820.388C120.164 820.166 120.071 819.778 120.071 819.316V817.192H118.26V819.686C118.26 820.203 118.297 820.979 119.018 821.552C119.646 822.051 120.459 822.125 121.069 822.125C121.328 822.125 121.919 822.106 122.658 821.959V824.97ZM132.791 822.347C132.625 822.642 132.385 822.956 132.071 823.196C131.701 823.474 131.332 823.584 130.833 823.584C130.389 823.584 129.872 823.511 129.447 823.086C129.059 822.698 128.819 822.069 128.782 821.515H134.362V821.293C134.362 820.48 134.269 819.039 133.272 818.005C132.81 817.524 132.015 816.988 130.777 816.988C129.669 816.988 128.819 817.395 128.172 818.041C127.359 818.873 126.934 820.037 126.934 821.238C126.934 822.402 127.341 823.474 128.08 824.213C128.819 824.952 129.669 825.21 130.703 825.21C131.535 825.21 132.366 825.026 132.995 824.619C133.493 824.305 133.974 823.788 134.306 823.196L132.791 822.347ZM128.911 820.037C129.004 819.649 129.207 819.279 129.466 819.039C129.706 818.799 130.112 818.54 130.74 818.54C131.332 818.54 131.72 818.762 131.96 818.984C132.237 819.242 132.44 819.612 132.514 820.037H128.911ZM136.832 824.97H138.642V821.737H141.857V824.97H143.668V817.192H141.857V820.074H138.642V817.192H136.832V824.97ZM146.539 817.192V825.561L151.86 820.443V824.97H153.671V816.489L148.35 821.607V817.192H146.539ZM161.986 822.347C161.819 822.642 161.579 822.956 161.265 823.196C160.896 823.474 160.526 823.584 160.027 823.584C159.584 823.584 159.066 823.511 158.642 823.086C158.254 822.698 158.013 822.069 157.976 821.515H163.556V821.293C163.556 820.48 163.464 819.039 162.466 818.005C162.004 817.524 161.21 816.988 159.972 816.988C158.863 816.988 158.013 817.395 157.367 818.041C156.554 818.873 156.129 820.037 156.129 821.238C156.129 822.402 156.535 823.474 157.274 824.213C158.013 824.952 158.863 825.21 159.898 825.21C160.729 825.21 161.561 825.026 162.189 824.619C162.688 824.305 163.168 823.788 163.501 823.196L161.986 822.347ZM158.106 820.037C158.198 819.649 158.401 819.279 158.66 819.039C158.9 818.799 159.307 818.54 159.935 818.54C160.526 818.54 160.914 818.762 161.154 818.984C161.431 819.242 161.635 819.612 161.709 820.037H158.106ZM70.0132 839.543C69.1817 839.081 68.4796 838.988 67.8884 838.988C66.3548 838.988 65.3755 839.524 64.7658 840.134C64.193 840.707 63.5833 841.686 63.5833 843.146C63.5833 844.568 64.1376 845.492 64.6919 846.065C65.431 846.841 66.3548 847.21 67.6482 847.21C68.8491 847.21 69.5697 846.878 70.0132 846.601V844.587C69.385 845.289 68.5166 845.584 67.7775 845.584C67.1123 845.584 66.5396 845.344 66.1331 844.956C65.782 844.605 65.431 843.995 65.431 843.09C65.431 842.222 65.7636 841.63 66.0961 841.298C66.4287 840.965 66.9645 840.614 67.8145 840.614C68.3688 840.614 69.1817 840.762 70.0132 841.575V839.543ZM72.3259 839.192V846.97H75.9658C76.3169 846.97 77.1114 846.933 77.758 846.453C78.1461 846.157 78.608 845.621 78.608 844.679C78.608 843.977 78.3493 843.497 77.9982 843.183C77.7026 842.924 77.3146 842.739 76.9451 842.665C77.5733 842.351 77.8689 841.778 77.8689 841.15C77.8689 840.337 77.4255 839.875 77.1483 839.653C76.5571 839.21 75.8365 839.192 75.3746 839.192H72.3259ZM74.1366 842.222V840.67H75.0235C75.3007 840.67 75.5778 840.651 75.818 840.818C76.0028 840.947 76.1321 841.15 76.1321 841.427C76.1321 841.612 76.0767 841.871 75.781 842.055C75.7256 842.092 75.4854 842.222 75.0605 842.222H74.1366ZM74.1366 845.492V843.7H75.5409C75.7995 843.7 76.1691 843.718 76.4462 843.903C76.631 844.014 76.7973 844.236 76.7973 844.587C76.7973 844.938 76.594 845.16 76.4277 845.27C76.1506 845.455 75.781 845.492 75.4854 845.492H74.1366ZM81.077 839.192V847.561L86.3983 842.443V846.97H88.209V838.489L82.8878 843.607V839.192H81.077ZM91.7383 839.192V842.24C91.7383 843.183 91.646 843.811 91.4242 844.291C91.184 844.771 90.7036 845.27 90.0015 845.307V849.187H91.6644V846.97H97.0965V849.187H98.7594V845.307H97.5769V839.192H91.7383ZM95.7662 845.307H92.5698C93.0502 844.938 93.4751 844.273 93.4751 842.924V840.854H95.7662V845.307ZM106.087 844.347C105.921 844.642 105.68 844.956 105.366 845.196C104.997 845.474 104.627 845.584 104.128 845.584C103.685 845.584 103.168 845.511 102.743 845.086C102.355 844.698 102.114 844.069 102.077 843.515H107.657V843.293C107.657 842.48 107.565 841.039 106.567 840.005C106.105 839.524 105.311 838.988 104.073 838.988C102.964 838.988 102.114 839.395 101.468 840.041C100.655 840.873 100.23 842.037 100.23 843.238C100.23 844.402 100.636 845.474 101.375 846.213C102.114 846.952 102.964 847.21 103.999 847.21C104.83 847.21 105.662 847.026 106.29 846.619C106.789 846.305 107.269 845.788 107.602 845.196L106.087 844.347ZM102.207 842.037C102.299 841.649 102.502 841.279 102.761 841.039C103.001 840.799 103.408 840.54 104.036 840.54C104.627 840.54 105.015 840.762 105.255 840.984C105.533 841.242 105.736 841.612 105.81 842.037H102.207ZM115.485 840.854V839.192H109.129V840.854H111.402V846.97H113.213V840.854H115.485ZM122.615 844.347C122.448 844.642 122.208 844.956 121.894 845.196C121.525 845.474 121.155 845.584 120.656 845.584C120.213 845.584 119.695 845.511 119.27 845.086C118.882 844.698 118.642 844.069 118.605 843.515H124.185V843.293C124.185 842.48 124.093 841.039 123.095 840.005C122.633 839.524 121.839 838.988 120.601 838.988C119.492 838.988 118.642 839.395 117.996 840.041C117.183 840.873 116.758 842.037 116.758 843.238C116.758 844.402 117.164 845.474 117.903 846.213C118.642 846.952 119.492 847.21 120.527 847.21C121.358 847.21 122.19 847.026 122.818 846.619C123.317 846.305 123.797 845.788 124.13 845.196L122.615 844.347ZM118.735 842.037C118.827 841.649 119.03 841.279 119.289 841.039C119.529 840.799 119.936 840.54 120.564 840.54C121.155 840.54 121.543 840.762 121.783 840.984C122.06 841.242 122.264 841.612 122.338 842.037H118.735ZM133.048 839.192H127.209V843.94C127.209 844.236 127.172 844.661 126.932 844.956C126.692 845.233 126.193 845.437 125.657 845.307V846.97C126.489 847.1 127.505 846.952 128.207 846.176C128.854 845.474 128.946 844.605 128.946 843.94V840.854H131.237V846.97H133.048V839.192ZM135.911 846.97H138.738C139.514 846.97 140.327 846.97 141.011 846.305C141.362 845.954 141.713 845.344 141.713 844.439C141.713 843.977 141.621 843.312 141.103 842.739C140.401 841.963 139.514 841.945 138.757 841.945H137.722V839.192H135.911V846.97ZM137.722 845.418V843.497H138.572C138.849 843.497 139.219 843.497 139.514 843.681C139.736 843.829 139.902 844.069 139.902 844.457C139.902 844.938 139.625 845.16 139.496 845.252C139.256 845.4 138.905 845.418 138.554 845.418H137.722ZM149.91 839.543C149.079 839.081 148.376 838.988 147.785 838.988C146.252 838.988 145.272 839.524 144.663 840.134C144.09 840.707 143.48 841.686 143.48 843.146C143.48 844.568 144.034 845.492 144.589 846.065C145.328 846.841 146.252 847.21 147.545 847.21C148.746 847.21 149.467 846.878 149.91 846.601V844.587C149.282 845.289 148.413 845.584 147.674 845.584C147.009 845.584 146.436 845.344 146.03 844.956C145.679 844.605 145.328 843.995 145.328 843.09C145.328 842.222 145.66 841.63 145.993 841.298C146.326 840.965 146.861 840.614 147.711 840.614C148.266 840.614 149.079 840.762 149.91 841.575V839.543ZM157.761 840.854V839.192H151.405V840.854H153.678V846.97H155.489V840.854H157.761ZM159.639 839.192V846.97H163.279C163.63 846.97 164.424 846.933 165.071 846.453C165.459 846.157 165.921 845.621 165.921 844.679C165.921 843.977 165.662 843.497 165.311 843.183C165.015 842.924 164.627 842.739 164.258 842.665C164.886 842.351 165.182 841.778 165.182 841.15C165.182 840.337 164.738 839.875 164.461 839.653C163.87 839.21 163.149 839.192 162.687 839.192H159.639ZM161.449 842.222V840.67H162.336C162.613 840.67 162.891 840.651 163.131 840.818C163.316 840.947 163.445 841.15 163.445 841.427C163.445 841.612 163.389 841.871 163.094 842.055C163.038 842.092 162.798 842.222 162.373 842.222H161.449ZM161.449 845.492V843.7H162.854C163.112 843.7 163.482 843.718 163.759 843.903C163.944 844.014 164.11 844.236 164.11 844.587C164.11 844.938 163.907 845.16 163.74 845.27C163.463 845.455 163.094 845.492 162.798 845.492H161.449ZM174.081 840.097C173.342 839.136 172.344 838.988 171.771 838.988C169.72 838.988 167.983 840.54 167.983 843.072C167.983 845.215 169.351 847.21 171.753 847.21C172.307 847.21 173.286 847.081 174.081 846.157V846.97H175.891V839.192H174.081V840.097ZM171.993 840.614C173.138 840.614 174.191 841.427 174.191 843.127C174.191 844.753 173.138 845.584 171.993 845.584C170.681 845.584 169.831 844.457 169.831 843.109C169.831 841.723 170.681 840.614 171.993 840.614ZM30.6409 873.201H32.6733L38.863 861.192H36.8306L34.5764 865.737L32.3592 861.192H30.179L33.5048 867.751L30.6409 873.201ZM44.9173 868.97H46.728V861.192H44.9173V864.37C44.5662 864.499 44.1782 864.573 43.6978 864.573C43.513 864.573 43.0696 864.554 42.7925 864.388C42.4229 864.166 42.3305 863.778 42.3305 863.316V861.192H40.5198V863.686C40.5198 864.203 40.5568 864.979 41.2774 865.552C41.9056 866.051 42.7185 866.125 43.3283 866.125C43.5869 866.125 44.1782 866.106 44.9173 865.959V868.97ZM55.2909 862.097C54.5518 861.136 53.5541 860.988 52.9813 860.988C50.9304 860.988 49.1936 862.54 49.1936 865.072C49.1936 867.215 50.5609 869.21 52.9628 869.21C53.5171 869.21 54.4964 869.081 55.2909 868.157V868.97H57.1016V861.192H55.2909V862.097ZM53.203 862.614C54.3486 862.614 55.4017 863.427 55.4017 865.127C55.4017 866.753 54.3486 867.584 53.203 867.584C51.8912 867.584 51.0412 866.457 51.0412 865.109C51.0412 863.723 51.8912 862.614 53.203 862.614ZM65.9985 861.543C65.167 861.081 64.4649 860.988 63.8737 860.988C62.3401 860.988 61.3609 861.524 60.7511 862.134C60.1784 862.707 59.5686 863.686 59.5686 865.146C59.5686 866.568 60.1229 867.492 60.6772 868.065C61.4163 868.841 62.3401 869.21 63.6335 869.21C64.8345 869.21 65.555 868.878 65.9985 868.601V866.587C65.3703 867.289 64.5019 867.584 63.7628 867.584C63.0977 867.584 62.5249 867.344 62.1184 866.956C61.7673 866.605 61.4163 865.995 61.4163 865.09C61.4163 864.222 61.7489 863.63 62.0814 863.298C62.414 862.965 62.9498 862.614 63.7998 862.614C64.3541 862.614 65.167 862.762 65.9985 863.575V861.543ZM73.8499 862.854V861.192H67.4939V862.854H69.7666V868.97H71.5773V862.854H73.8499ZM75.7271 868.97H77.5378V865.737H80.7528V868.97H82.5635V861.192H80.7528V864.074H77.5378V861.192H75.7271V868.97ZM85.4346 861.192V869.561L90.7558 864.443V868.97H92.5665V860.489L87.2453 865.607V861.192H85.4346ZM95.4307 861.192V868.97H97.2414V866.069L97.537 865.774L100.124 868.97H102.415L98.8304 864.591L102.23 861.192H99.8281L97.2414 863.963V861.192H95.4307ZM109.873 862.097C109.134 861.136 108.136 860.988 107.563 860.988C105.512 860.988 103.775 862.54 103.775 865.072C103.775 867.215 105.143 869.21 107.545 869.21C108.099 869.21 109.078 869.081 109.873 868.157V868.97H111.683V861.192H109.873V862.097ZM107.785 862.614C108.93 862.614 109.983 863.427 109.983 865.127C109.983 866.753 108.93 867.584 107.785 867.584C106.473 867.584 105.623 866.457 105.623 865.109C105.623 863.723 106.473 862.614 107.785 862.614ZM128.315 868.97H130.348L124.509 855.926L118.375 868.97H120.407L121.756 865.995H127.022L128.315 868.97ZM122.532 864.222L124.435 860.046L126.265 864.222H122.532ZM136.898 862.356C136.621 861.857 136.27 861.561 136.011 861.395C135.567 861.099 135.124 860.988 134.57 860.988C133.609 860.988 133.018 861.358 132.667 861.727C132.26 862.152 132.02 862.762 132.02 863.39C132.02 863.889 132.168 864.314 132.574 864.702C132.87 864.998 133.295 865.201 133.646 865.367L134.311 865.681C134.607 865.811 134.865 865.94 135.087 866.162C135.253 866.347 135.327 866.531 135.327 866.753C135.327 866.975 135.216 867.215 135.069 867.363C134.902 867.529 134.607 867.621 134.33 867.621C133.905 867.621 133.646 867.437 133.535 867.326C133.369 867.178 133.202 866.845 133.11 866.587L131.632 867.289C131.817 867.843 132.186 868.379 132.63 868.712C133.184 869.137 133.812 869.21 134.311 869.21C135.124 869.21 135.882 869.007 136.491 868.342C136.916 867.88 137.175 867.27 137.175 866.568C137.175 866.032 137.027 865.552 136.602 865.127C136.307 864.813 135.919 864.61 135.512 864.406L134.588 863.945C134.2 863.741 134.089 863.704 133.979 863.63C133.812 863.52 133.72 863.39 133.72 863.187C133.72 863.021 133.794 862.873 133.886 862.781C133.997 862.67 134.182 862.577 134.44 862.577C135.013 862.577 135.364 862.947 135.549 863.242L136.898 862.356ZM142.637 862.854V861.192H141.251V858.346H139.44V861.192H138.683V862.854H139.44V868.97H141.251V862.854H142.637ZM150.128 862.097C149.389 861.136 148.391 860.988 147.818 860.988C145.767 860.988 144.03 862.54 144.03 865.072C144.03 867.215 145.398 869.21 147.8 869.21C148.354 869.21 149.333 869.081 150.128 868.157V868.97H151.938V861.192H150.128V862.097ZM148.04 862.614C149.185 862.614 150.239 863.427 150.239 865.127C150.239 866.753 149.185 867.584 148.04 867.584C146.728 867.584 145.878 866.457 145.878 865.109C145.878 863.723 146.728 862.614 148.04 862.614ZM154.794 868.97H156.604V865.238C156.604 862.725 157.436 862.614 158.249 862.614C158.932 862.614 159.671 862.67 159.671 864.647V868.97H161.482V864.203C161.482 863.002 161.297 862.466 161.002 862.041C160.761 861.709 160.152 860.988 158.711 860.988C158.267 860.988 157.38 861.044 156.604 861.912V861.192H154.794V868.97ZM170.048 862.097C169.309 861.136 168.311 860.988 167.738 860.988C165.687 860.988 163.951 862.54 163.951 865.072C163.951 867.215 165.318 869.21 167.72 869.21C168.274 869.21 169.253 869.081 170.048 868.157V868.97H171.859V861.192H170.048V862.097ZM167.96 862.614C169.106 862.614 170.159 863.427 170.159 865.127C170.159 866.753 169.106 867.584 167.96 867.584C166.648 867.584 165.798 866.457 165.798 865.109C165.798 863.723 166.648 862.614 167.96 862.614ZM181.839 856.646H179.954V868.97H181.839V863.298H187.123V868.97H189.008V856.646H187.123V861.524H181.839V856.646ZM192.216 861.192V865.7C192.216 866.698 192.327 867.529 193.048 868.25C193.75 868.97 194.711 869.21 195.505 869.21C196.374 869.21 197.334 868.952 198.036 868.25C198.757 867.529 198.868 866.698 198.868 865.7V861.192H197.057V865.644C197.057 866.106 197.039 866.642 196.725 867.049C196.484 867.363 196.059 867.584 195.542 867.584C195.025 867.584 194.6 867.363 194.36 867.049C194.046 866.642 194.027 866.106 194.027 865.644V861.192H192.216ZM203.554 855.501H201.743V868.97H203.554V868.157C204.348 869.081 205.328 869.21 205.882 869.21C208.284 869.21 209.651 867.215 209.651 865.072C209.651 862.54 207.914 860.988 205.864 860.988C205.291 860.988 204.293 861.136 203.554 862.097V855.501ZM205.642 862.614C206.954 862.614 207.804 863.723 207.804 865.109C207.804 866.457 206.954 867.584 205.642 867.584C204.496 867.584 203.443 866.753 203.443 865.127C203.443 863.427 204.496 862.614 205.642 862.614Z" fill="black"/>
<path opacity="0.2" d="M116.261 756.381H120.932C125.344 756.381 129.02 757.7 131.962 760.338C134.946 762.934 136.438 766.567 136.438 771.238C136.438 775.91 134.86 779.565 131.702 782.203C128.631 784.842 124.803 786.161 120.218 786.161C116.499 786.161 113.233 785.339 110.421 783.695C107.653 782.008 105.642 779.586 104.388 776.429L112.043 771.952C113.125 775.585 115.85 777.402 120.218 777.402C122.511 777.402 124.284 776.861 125.539 775.78C126.836 774.655 127.485 773.141 127.485 771.238C127.485 769.378 126.858 767.886 125.603 766.762C124.349 765.637 122.641 765.075 120.478 765.075H106.723L108.54 739.836H134.297V748.206H116.845L116.261 756.381Z" fill="black"/>
<path d="M199 743.228L208.183 739.268L200.163 733.295L199 743.228ZM214.859 720.483L202.961 736.459L204.35 737.494L216.248 721.517L214.859 720.483Z" fill="#1A1919"/>
<rect x="196" y="546" width="238.464" height="238.464" rx="119.232" fill="white"/>
<path d="M227.094 652.127C227.205 651.979 227.556 651.535 228.11 651.221C228.591 650.944 229.034 650.87 229.607 650.87C230.05 650.87 230.605 650.907 231.03 651.24C231.344 651.48 231.621 651.905 231.621 652.515C231.621 653.051 231.381 653.512 231.067 653.771C230.623 654.141 229.829 654.27 229.293 654.27H228.295V656.044H229.404C230.032 656.044 230.956 656.044 231.639 656.524C232.157 656.875 232.36 657.356 232.36 657.965C232.36 658.612 232.101 659.148 231.769 659.48C231.178 660.072 230.346 660.146 229.884 660.146C229.145 660.146 228.48 660.016 227.852 659.573C227.482 659.314 227.002 658.852 226.706 658.076L225.043 658.926C225.45 659.795 226.023 660.46 226.614 660.922C227.593 661.661 228.554 661.882 229.644 661.882C230.642 661.882 231.935 661.698 232.97 660.811C233.857 660.035 234.208 659.092 234.208 658.058C234.208 657.263 234.06 656.58 233.58 655.97C233.228 655.526 232.693 655.083 231.917 654.88C232.305 654.658 232.711 654.344 233.025 653.808C233.339 653.309 233.432 652.829 233.432 652.275C233.432 651.388 233.136 650.686 232.545 650.113C231.658 649.263 230.568 649.134 229.681 649.134C228.923 649.134 228.184 649.226 227.445 649.595C227.168 649.725 226.466 650.113 225.856 650.926L227.094 652.127ZM242.514 654.787C241.775 653.827 240.777 653.679 240.205 653.679C238.154 653.679 236.417 655.231 236.417 657.762C236.417 659.905 237.784 661.901 240.186 661.901C240.74 661.901 241.72 661.772 242.514 660.848V661.661H244.325V653.882H242.514V654.787ZM240.426 655.305C241.572 655.305 242.625 656.118 242.625 657.818C242.625 659.443 241.572 660.275 240.426 660.275C239.114 660.275 238.264 659.148 238.264 657.799C238.264 656.413 239.114 655.305 240.426 655.305ZM247.198 653.882V661.661H249.009V658.76L249.305 658.464L251.891 661.661H254.182L250.598 657.282L253.998 653.882H251.596L249.009 656.653V653.882H247.198ZM262.523 653.882H256.684V658.63C256.684 658.926 256.647 659.351 256.407 659.647C256.167 659.924 255.668 660.127 255.132 659.998V661.661C255.964 661.79 256.98 661.642 257.682 660.866C258.329 660.164 258.421 659.296 258.421 658.63V655.545H260.712V661.661H262.523V653.882ZM267.197 656.764V653.882H265.386V661.661H267.197V658.427H268.398C268.49 659.48 268.952 660.219 269.359 660.663C269.802 661.143 270.726 661.901 272.352 661.901C274.661 661.901 276.435 660.164 276.435 657.781C276.435 655.379 274.643 653.679 272.352 653.679C270.948 653.679 270.024 654.252 269.451 654.824C268.786 655.508 268.527 656.229 268.435 656.764H267.197ZM272.352 655.305C273.479 655.305 274.588 656.025 274.588 657.799C274.588 659.573 273.479 660.275 272.352 660.275C271.225 660.275 270.116 659.573 270.116 657.799C270.116 656.025 271.225 655.305 272.352 655.305ZM282.717 661.661H284.527V653.882H282.717V657.06C282.366 657.189 281.978 657.263 281.497 657.263C281.312 657.263 280.869 657.245 280.592 657.078C280.222 656.857 280.13 656.469 280.13 656.007V653.882H278.319V656.376C278.319 656.894 278.356 657.67 279.077 658.242C279.705 658.741 280.518 658.815 281.128 658.815C281.386 658.815 281.978 658.797 282.717 658.649V661.661ZM292.85 659.037C292.684 659.333 292.443 659.647 292.129 659.887C291.76 660.164 291.39 660.275 290.891 660.275C290.448 660.275 289.931 660.201 289.506 659.776C289.118 659.388 288.878 658.76 288.841 658.206H294.42V657.984C294.42 657.171 294.328 655.73 293.33 654.695C292.868 654.215 292.074 653.679 290.836 653.679C289.727 653.679 288.878 654.085 288.231 654.732C287.418 655.563 286.993 656.727 286.993 657.928C286.993 659.092 287.399 660.164 288.138 660.903C288.878 661.642 289.727 661.901 290.762 661.901C291.594 661.901 292.425 661.716 293.053 661.31C293.552 660.995 294.032 660.478 294.365 659.887L292.85 659.037ZM288.97 656.727C289.062 656.339 289.266 655.97 289.524 655.73C289.764 655.489 290.171 655.231 290.799 655.231C291.39 655.231 291.778 655.453 292.019 655.674C292.296 655.933 292.499 656.302 292.573 656.727H288.97ZM296.89 661.661H298.701V658.427H301.916V661.661H303.727V653.882H301.916V656.764H298.701V653.882H296.89V661.661ZM306.598 653.882V662.252L311.919 657.134V661.661H313.73V653.18L308.408 658.298V653.882H306.598ZM322.044 659.037C321.878 659.333 321.638 659.647 321.324 659.887C320.954 660.164 320.585 660.275 320.086 660.275C319.642 660.275 319.125 660.201 318.7 659.776C318.312 659.388 318.072 658.76 318.035 658.206H323.615V657.984C323.615 657.171 323.523 655.73 322.525 654.695C322.063 654.215 321.268 653.679 320.03 653.679C318.922 653.679 318.072 654.085 317.425 654.732C316.612 655.563 316.187 656.727 316.187 657.928C316.187 659.092 316.594 660.164 317.333 660.903C318.072 661.642 318.922 661.901 319.957 661.901C320.788 661.901 321.619 661.716 322.248 661.31C322.747 660.995 323.227 660.478 323.56 659.887L322.044 659.037ZM318.164 656.727C318.257 656.339 318.46 655.97 318.719 655.73C318.959 655.489 319.365 655.231 319.994 655.231C320.585 655.231 320.973 655.453 321.213 655.674C321.49 655.933 321.693 656.302 321.767 656.727H318.164ZM331.64 653.882V656.931C331.64 657.873 331.547 658.501 331.326 658.982C331.085 659.462 330.605 659.961 329.903 659.998V663.878H331.566V661.661H336.998V663.878H338.661V659.998H337.478V653.882H331.64ZM335.668 659.998H332.471C332.952 659.628 333.377 658.963 333.377 657.614V655.545H335.668V659.998ZM344.288 653.679C341.942 653.679 340.131 655.379 340.131 657.781C340.131 660.164 341.942 661.901 344.288 661.901C346.635 661.901 348.446 660.164 348.446 657.781C348.446 655.379 346.635 653.679 344.288 653.679ZM344.288 660.275C342.866 660.275 341.979 659.296 341.979 657.799C341.979 656.025 343.143 655.305 344.288 655.305C345.434 655.305 346.598 656.025 346.598 657.799C346.598 659.296 345.711 660.275 344.288 660.275ZM350.913 661.661H352.723V655.545H355.68V653.882H350.913V661.661ZM361.123 653.679C358.776 653.679 356.966 655.379 356.966 657.781C356.966 660.164 358.776 661.901 361.123 661.901C363.47 661.901 365.28 660.164 365.28 657.781C365.28 655.379 363.47 653.679 361.123 653.679ZM361.123 660.275C359.7 660.275 358.813 659.296 358.813 657.799C358.813 656.025 359.977 655.305 361.123 655.305C362.269 655.305 363.433 656.025 363.433 657.799C363.433 659.296 362.546 660.275 361.123 660.275ZM367.747 653.882V661.661H371.387C371.738 661.661 372.533 661.624 373.179 661.143C373.567 660.848 374.029 660.312 374.029 659.37C374.029 658.667 373.771 658.187 373.42 657.873C373.124 657.614 372.736 657.43 372.366 657.356C372.995 657.041 373.29 656.469 373.29 655.841C373.29 655.028 372.847 654.566 372.57 654.344C371.978 653.9 371.258 653.882 370.796 653.882H367.747ZM369.558 656.912V655.36H370.445C370.722 655.36 370.999 655.342 371.239 655.508C371.424 655.637 371.554 655.841 371.554 656.118C371.554 656.302 371.498 656.561 371.202 656.746C371.147 656.783 370.907 656.912 370.482 656.912H369.558ZM369.558 660.183V658.39H370.962C371.221 658.39 371.59 658.409 371.868 658.594C372.052 658.704 372.219 658.926 372.219 659.277C372.219 659.628 372.015 659.85 371.849 659.961C371.572 660.146 371.202 660.183 370.907 660.183H369.558ZM380.249 653.679C377.903 653.679 376.092 655.379 376.092 657.781C376.092 660.164 377.903 661.901 380.249 661.901C382.596 661.901 384.406 660.164 384.406 657.781C384.406 655.379 382.596 653.679 380.249 653.679ZM380.249 660.275C378.827 660.275 377.94 659.296 377.94 657.799C377.94 656.025 379.104 655.305 380.249 655.305C381.395 655.305 382.559 656.025 382.559 657.799C382.559 659.296 381.672 660.275 380.249 660.275ZM388.684 660.755C389.497 661.753 390.587 661.901 391.012 661.901C392.86 661.901 394.781 660.349 394.781 657.725C394.781 655.249 393.045 653.679 390.994 653.679C390.218 653.679 389.349 653.937 388.684 654.732V653.882H386.873V665.892H388.684V660.755ZM390.772 655.305C392.084 655.305 392.934 656.413 392.934 657.799C392.934 659.148 392.084 660.275 390.772 660.275C389.626 660.275 388.573 659.443 388.573 657.818C388.573 656.118 389.626 655.305 390.772 655.305ZM402.939 654.787C402.2 653.827 401.203 653.679 400.63 653.679C398.579 653.679 396.842 655.231 396.842 657.762C396.842 659.905 398.209 661.901 400.611 661.901C401.166 661.901 402.145 661.772 402.939 660.848V661.661H404.75V653.882H402.939V654.787ZM400.851 655.305C401.997 655.305 403.05 656.118 403.05 657.818C403.05 659.443 401.997 660.275 400.851 660.275C399.54 660.275 398.69 659.148 398.69 657.799C398.69 656.413 399.54 655.305 400.851 655.305Z" fill="black"/>
<path opacity="0.8" d="M281.722 701.903C281.26 700.813 280.835 699.502 280.595 698.467C280.392 697.543 280.17 696.12 280.17 694.106C280.17 692.554 280.318 690.928 280.613 689.598C280.835 688.582 281.242 687.344 281.722 686.254L280.059 685.607C279.486 686.808 279.135 687.88 278.84 689.21C278.433 691.021 278.322 692.388 278.322 694.106C278.322 695.769 278.415 697.081 278.803 698.818C279.098 700.13 279.468 701.294 280.059 702.55L281.722 701.903ZM290.71 686.734C287.015 686.734 284.299 689.506 284.299 693.127C284.299 696.748 287.015 699.52 290.71 699.52C294.406 699.52 297.122 696.748 297.122 693.127C297.122 689.506 294.406 686.734 290.71 686.734ZM290.71 697.783C288.068 697.783 286.183 695.862 286.183 693.127C286.183 690.393 288.068 688.471 290.71 688.471C293.352 688.471 295.237 690.393 295.237 693.127C295.237 695.862 293.352 697.783 290.71 697.783ZM299.732 699.28H301.543V696.046H304.758V699.28H306.568V691.501H304.758V694.383H301.543V691.501H299.732V699.28ZM315.832 691.501H309.994V696.25C309.994 696.545 309.957 696.97 309.717 697.266C309.477 697.543 308.978 697.746 308.442 697.617V699.28C309.273 699.409 310.29 699.261 310.992 698.485C311.638 697.783 311.731 696.915 311.731 696.25V693.164H314.022V699.28H315.832V691.501ZM324.387 692.406C323.648 691.446 322.65 691.298 322.077 691.298C320.026 691.298 318.289 692.85 318.289 695.381C318.289 697.525 319.657 699.52 322.059 699.52C322.613 699.52 323.592 699.391 324.387 698.467V699.28H326.197V691.501H324.387V692.406ZM322.299 692.924C323.444 692.924 324.498 693.737 324.498 695.437C324.498 697.063 323.444 697.894 322.299 697.894C320.987 697.894 320.137 696.767 320.137 695.418C320.137 694.032 320.987 692.924 322.299 692.924ZM329.071 691.501V699.871L334.392 694.753V699.28H336.203V690.799L330.882 695.917V691.501H329.071ZM329.662 688.138C330.087 689.672 331.602 690.319 332.655 690.319C333.709 690.319 335.224 689.672 335.649 688.138L334.171 687.713C333.912 688.545 333.45 688.914 332.655 688.914C332.212 688.914 331.454 688.785 331.14 687.713L329.662 688.138ZM339.067 699.28H340.878V696.046H344.093V699.28H345.903V691.501H344.093V694.383H340.878V691.501H339.067V699.28ZM350.4 702.55C350.992 701.294 351.361 700.13 351.657 698.818C352.045 697.081 352.137 695.769 352.137 694.106C352.137 692.388 352.026 691.021 351.62 689.21C351.324 687.88 350.973 686.808 350.4 685.607L348.738 686.254C349.218 687.344 349.624 688.582 349.846 689.598C350.142 690.928 350.29 692.554 350.29 694.106C350.29 696.12 350.068 697.543 349.865 698.467C349.624 699.502 349.199 700.813 348.738 701.903L350.4 702.55Z" fill="black"/>
<path opacity="0.2" d="M328.387 606.657H333.253V614.962H328.387V622.683H319.368V614.962H297.893V606.657L313.01 577.266H322.612L307.56 606.657H319.368V595.887H328.387V606.657Z" fill="black"/>
<path d="M228.2 582.857L223.2 574.197L218.199 582.857L228.2 582.857ZM203.765 569.75L221.016 579.71L221.882 578.21L204.631 568.25L203.765 569.75Z" fill="#1A1919"/>
<rect x="1" y="365" width="238.464" height="238.464" rx="119.232" fill="white"/>
<path d="M34.5866 456.646V468.97H36.4712V463.963H37.3211C38.2265 463.963 39.3536 463.834 40.3328 463.002C41.349 462.134 41.5338 461.025 41.5338 460.305C41.5338 459.178 41.0349 457.995 40.0002 457.311C39.1134 456.72 38.0602 456.646 37.3027 456.646H34.5866ZM36.4712 458.383H37.3027C39.4459 458.383 39.7231 459.603 39.7231 460.286C39.7231 461.432 38.9471 462.226 37.3211 462.226H36.4712V458.383ZM49.3996 462.097C48.6606 461.136 47.6628 460.988 47.0901 460.988C45.0392 460.988 43.3024 462.54 43.3024 465.072C43.3024 467.215 44.6696 469.21 47.0716 469.21C47.6259 469.21 48.6051 469.081 49.3996 468.157V468.97H51.2103V461.192H49.3996V462.097ZM47.3118 462.614C48.4573 462.614 49.5105 463.427 49.5105 465.127C49.5105 466.753 48.4573 467.584 47.3118 467.584C45.9999 467.584 45.15 466.457 45.15 465.109C45.15 463.723 45.9999 462.614 47.3118 462.614ZM60.1073 461.543C59.2758 461.081 58.5737 460.988 57.9825 460.988C56.4489 460.988 55.4696 461.524 54.8599 462.134C54.2871 462.707 53.6774 463.686 53.6774 465.146C53.6774 466.568 54.2317 467.492 54.786 468.065C55.5251 468.841 56.4489 469.21 57.7423 469.21C58.9432 469.21 59.6638 468.878 60.1073 468.601V466.587C59.4791 467.289 58.6107 467.584 57.8716 467.584C57.2064 467.584 56.6337 467.344 56.2272 466.956C55.8761 466.605 55.5251 465.995 55.5251 465.09C55.5251 464.222 55.8576 463.63 56.1902 463.298C56.5228 462.965 57.0586 462.614 57.9085 462.614C58.4628 462.614 59.2758 462.762 60.1073 463.575V461.543ZM68.4434 461.543C67.6119 461.081 66.9098 460.988 66.3186 460.988C64.785 460.988 63.8058 461.524 63.196 462.134C62.6233 462.707 62.0135 463.686 62.0135 465.146C62.0135 466.568 62.5678 467.492 63.1221 468.065C63.8612 468.841 64.785 469.21 66.0784 469.21C67.2794 469.21 67.9999 468.878 68.4434 468.601V466.587C67.8152 467.289 66.9468 467.584 66.2077 467.584C65.5426 467.584 64.9698 467.344 64.5633 466.956C64.2122 466.605 63.8612 465.995 63.8612 465.09C63.8612 464.222 64.1938 463.63 64.5263 463.298C64.8589 462.965 65.3947 462.614 66.2447 462.614C66.799 462.614 67.6119 462.762 68.4434 463.575V461.543ZM69.8693 468.97H71.7169L72.4929 465.072L74.9688 469.561L77.4447 465.072L78.2207 468.97H80.0683L78.1837 460.489L74.9688 466.42L71.7539 460.489L69.8693 468.97ZM85.8021 460.988C83.4556 460.988 81.6449 462.688 81.6449 465.09C81.6449 467.474 83.4556 469.21 85.8021 469.21C88.1487 469.21 89.9594 467.474 89.9594 465.09C89.9594 462.688 88.1487 460.988 85.8021 460.988ZM85.8021 467.584C84.3794 467.584 83.4926 466.605 83.4926 465.109C83.4926 463.335 84.6566 462.614 85.8021 462.614C86.9477 462.614 88.1117 463.335 88.1117 465.109C88.1117 466.605 87.2248 467.584 85.8021 467.584ZM97.7847 462.854V461.192H91.4287V462.854H93.7013V468.97H95.512V462.854H97.7847ZM101.473 468.065C102.286 469.063 103.376 469.21 103.801 469.21C105.648 469.21 107.57 467.658 107.57 465.035C107.57 462.559 105.833 460.988 103.782 460.988C103.006 460.988 102.138 461.247 101.473 462.041V461.192H99.6619V473.201H101.473V468.065ZM103.56 462.614C104.872 462.614 105.722 463.723 105.722 465.109C105.722 466.457 104.872 467.584 103.56 467.584C102.415 467.584 101.362 466.753 101.362 465.127C101.362 463.427 102.415 462.614 103.56 462.614ZM115.488 466.347C115.321 466.642 115.081 466.956 114.767 467.196C114.397 467.474 114.028 467.584 113.529 467.584C113.086 467.584 112.568 467.511 112.143 467.086C111.755 466.698 111.515 466.069 111.478 465.515H117.058V465.293C117.058 464.48 116.966 463.039 115.968 462.005C115.506 461.524 114.712 460.988 113.474 460.988C112.365 460.988 111.515 461.395 110.868 462.041C110.055 462.873 109.63 464.037 109.63 465.238C109.63 466.402 110.037 467.474 110.776 468.213C111.515 468.952 112.365 469.21 113.4 469.21C114.231 469.21 115.063 469.026 115.691 468.619C116.19 468.305 116.67 467.788 117.003 467.196L115.488 466.347ZM111.607 464.037C111.7 463.649 111.903 463.279 112.162 463.039C112.402 462.799 112.808 462.54 113.437 462.54C114.028 462.54 114.416 462.762 114.656 462.984C114.933 463.242 115.136 463.612 115.21 464.037H111.607ZM119.528 468.97H121.339V465.737H124.553V468.97H126.364V461.192H124.553V464.074H121.339V461.192H119.528V468.97ZM129.235 461.192V469.561L134.557 464.443V468.97H136.367V460.489L131.046 465.607V461.192H129.235ZM144.682 466.347C144.516 466.642 144.276 466.956 143.961 467.196C143.592 467.474 143.222 467.584 142.723 467.584C142.28 467.584 141.763 467.511 141.338 467.086C140.95 466.698 140.71 466.069 140.673 465.515H146.253V465.293C146.253 464.48 146.16 463.039 145.162 462.005C144.7 461.524 143.906 460.988 142.668 460.988C141.559 460.988 140.71 461.395 140.063 462.041C139.25 462.873 138.825 464.037 138.825 465.238C138.825 466.402 139.231 467.474 139.97 468.213C140.71 468.952 141.559 469.21 142.594 469.21C143.426 469.21 144.257 469.026 144.885 468.619C145.384 468.305 145.865 467.788 146.197 467.196L144.682 466.347ZM140.802 464.037C140.894 463.649 141.098 463.279 141.356 463.039C141.596 462.799 142.003 462.54 142.631 462.54C143.222 462.54 143.61 462.762 143.851 462.984C144.128 463.242 144.331 463.612 144.405 464.037H140.802ZM154.665 463.206C154.887 462.965 155.127 462.799 155.349 462.688C155.7 462.522 155.996 462.466 156.365 462.466C156.605 462.466 156.975 462.485 157.234 462.67C157.4 462.781 157.566 463.002 157.566 463.335C157.566 463.723 157.381 463.908 157.234 464.018C157.012 464.166 156.605 464.222 156.347 464.222H155.663V465.7H156.476C156.919 465.7 157.455 465.7 157.769 466.032C157.917 466.18 158.01 466.402 158.01 466.661C158.01 466.919 157.899 467.16 157.732 467.344C157.4 467.677 156.809 467.732 156.494 467.732C156.07 467.732 155.645 467.64 155.33 467.437C155.035 467.252 154.795 466.938 154.647 466.624L153.206 467.363C153.501 468.046 153.982 468.49 154.425 468.748C155.127 469.155 155.903 469.21 156.458 469.21C157.714 469.21 158.582 468.933 159.192 468.324C159.636 467.88 159.857 467.326 159.857 466.605C159.857 466.217 159.765 465.718 159.358 465.312C159.081 465.035 158.656 464.831 158.231 464.739C158.453 464.647 158.73 464.499 158.97 464.185C159.247 463.834 159.303 463.501 159.303 463.113C159.303 462.448 159.081 461.949 158.49 461.524C157.862 461.081 157.178 460.988 156.513 460.988C156.014 460.988 155.33 461.044 154.684 461.321C154.148 461.561 153.76 461.875 153.501 462.189L154.665 463.206ZM168.018 462.097C167.279 461.136 166.281 460.988 165.708 460.988C163.657 460.988 161.921 462.54 161.921 465.072C161.921 467.215 163.288 469.21 165.69 469.21C166.244 469.21 167.223 469.081 168.018 468.157V468.97H169.829V461.192H168.018V462.097ZM165.93 462.614C167.076 462.614 168.129 463.427 168.129 465.127C168.129 466.753 167.076 467.584 165.93 467.584C164.618 467.584 163.768 466.457 163.768 465.109C163.768 463.723 164.618 462.614 165.93 462.614ZM171.704 468.97H173.829L175.954 466.106H176.324V468.97H178.134V461.192H175.233C174.439 461.192 173.645 461.265 172.979 461.894C172.37 462.466 172.259 463.187 172.259 463.686C172.259 464.24 172.407 464.813 172.905 465.293C173.201 465.571 173.626 465.811 174.143 465.885L171.704 468.97ZM176.324 464.628H175.252C174.809 464.628 174.476 464.591 174.254 464.443C174.069 464.314 173.885 464.074 173.885 463.686C173.885 463.335 174.088 463.058 174.328 462.91C174.587 462.762 174.919 462.744 175.27 462.744H176.324V464.628ZM181.002 461.192V468.97H184.642C184.993 468.97 185.788 468.933 186.434 468.453C186.822 468.157 187.284 467.621 187.284 466.679C187.284 465.977 187.026 465.497 186.675 465.183C186.379 464.924 185.991 464.739 185.621 464.665C186.25 464.351 186.545 463.778 186.545 463.15C186.545 462.337 186.102 461.875 185.825 461.653C185.233 461.21 184.513 461.192 184.051 461.192H181.002ZM182.813 464.222V462.67H183.7C183.977 462.67 184.254 462.651 184.494 462.818C184.679 462.947 184.808 463.15 184.808 463.427C184.808 463.612 184.753 463.871 184.457 464.055C184.402 464.092 184.162 464.222 183.737 464.222H182.813ZM182.813 467.492V465.7H184.217C184.476 465.7 184.845 465.718 185.123 465.903C185.307 466.014 185.474 466.236 185.474 466.587C185.474 466.938 185.27 467.16 185.104 467.27C184.827 467.455 184.457 467.492 184.162 467.492H182.813ZM189.753 461.192V468.97H191.564V466.069L191.86 465.774L194.446 468.97H196.738L193.153 464.591L196.553 461.192H194.151L191.564 463.963V461.192H189.753ZM198.504 461.192V469.561L203.826 464.443V468.97H205.636V460.489L200.315 465.607V461.192H198.504ZM54.0812 490.97H55.9288L56.7048 487.072L59.1807 491.561L61.6566 487.072L62.4326 490.97H64.2802L62.3956 482.489L59.1807 488.42L55.9658 482.489L54.0812 490.97ZM71.7139 488.347C71.5476 488.642 71.3074 488.956 70.9933 489.196C70.6238 489.474 70.2542 489.584 69.7554 489.584C69.3119 489.584 68.7946 489.511 68.3696 489.086C67.9816 488.698 67.7414 488.069 67.7045 487.515H73.2844V487.293C73.2844 486.48 73.192 485.039 72.1943 484.005C71.7324 483.524 70.9379 482.988 69.6999 482.988C68.5913 482.988 67.7414 483.395 67.0947 484.041C66.2818 484.873 65.8568 486.037 65.8568 487.238C65.8568 488.402 66.2633 489.474 67.0024 490.213C67.7414 490.952 68.5913 491.21 69.626 491.21C70.4575 491.21 71.2889 491.026 71.9171 490.619C72.416 490.305 72.8964 489.788 73.229 489.196L71.7139 488.347ZM67.8338 486.037C67.9262 485.649 68.1294 485.279 68.3881 485.039C68.6283 484.799 69.0348 484.54 69.663 484.54C70.2542 484.54 70.6422 484.762 70.8824 484.984C71.1596 485.242 71.3628 485.612 71.4367 486.037H67.8338ZM79.468 483.192V486.074L77.1215 483.192H74.9412L77.9529 486.739L74.6456 490.97H76.8997L79.2463 487.848L79.468 488.106V490.97H81.2787V488.106L81.5004 487.848L83.8469 490.97H86.1011L82.7938 486.739L85.8055 483.192H83.6252L81.2787 486.074V483.192H79.468ZM88.9235 483.192V486.24C88.9235 487.183 88.8312 487.811 88.6094 488.291C88.3692 488.771 87.8889 489.27 87.1867 489.307V493.187H88.8496V490.97H94.2818V493.187H95.9447V489.307H94.7622V483.192H88.9235ZM92.9514 489.307H89.755C90.2354 488.938 90.6603 488.273 90.6603 486.924V484.854H92.9514V489.307ZM97.2487 495.201H99.2811L105.471 483.192H103.438L101.184 487.737L98.967 483.192H96.7868L100.113 489.751L97.2487 495.201ZM107.312 490.97H109.123V487.737H112.338V490.97H114.149V483.192H112.338V486.074H109.123V483.192H107.312V490.97ZM122.711 484.097C121.972 483.136 120.974 482.988 120.401 482.988C118.35 482.988 116.613 484.54 116.613 487.072C116.613 489.215 117.981 491.21 120.383 491.21C120.937 491.21 121.916 491.081 122.711 490.157V490.97H124.521V483.192H122.711V484.097ZM120.623 484.614C121.768 484.614 122.821 485.427 122.821 487.127C122.821 488.753 121.768 489.584 120.623 489.584C119.311 489.584 118.461 488.457 118.461 487.109C118.461 485.723 119.311 484.614 120.623 484.614ZM129.206 490.065C130.019 491.063 131.109 491.21 131.534 491.21C133.381 491.21 135.303 489.658 135.303 487.035C135.303 484.559 133.566 482.988 131.515 482.988C130.739 482.988 129.871 483.247 129.206 484.041V483.192H127.395V495.201H129.206V490.065ZM131.293 484.614C132.605 484.614 133.455 485.723 133.455 487.109C133.455 488.457 132.605 489.584 131.293 489.584C130.148 489.584 129.095 488.753 129.095 487.127C129.095 485.427 130.148 484.614 131.293 484.614ZM141.521 482.988C139.174 482.988 137.363 484.688 137.363 487.09C137.363 489.474 139.174 491.21 141.521 491.21C143.867 491.21 145.678 489.474 145.678 487.09C145.678 484.688 143.867 482.988 141.521 482.988ZM141.521 489.584C140.098 489.584 139.211 488.605 139.211 487.109C139.211 485.335 140.375 484.614 141.521 484.614C142.666 484.614 143.83 485.335 143.83 487.109C143.83 488.605 142.943 489.584 141.521 489.584ZM148.81 483.192V486.24C148.81 487.183 148.718 487.811 148.496 488.291C148.256 488.771 147.775 489.27 147.073 489.307V493.187H148.736V490.97H154.168V493.187H155.831V489.307H154.649V483.192H148.81ZM152.838 489.307H149.642C150.122 488.938 150.547 488.273 150.547 486.924V484.854H152.838V489.307ZM157.708 490.97H159.519V487.737H162.734V490.97H164.544V483.192H162.734V486.074H159.519V483.192H157.708V490.97ZM171.166 482.988C168.82 482.988 167.009 484.688 167.009 487.09C167.009 489.474 168.82 491.21 171.166 491.21C173.513 491.21 175.323 489.474 175.323 487.09C175.323 484.688 173.513 482.988 171.166 482.988ZM171.166 489.584C169.743 489.584 168.857 488.605 168.857 487.109C168.857 485.335 170.021 484.614 171.166 484.614C172.312 484.614 173.476 485.335 173.476 487.109C173.476 488.605 172.589 489.584 171.166 489.584ZM177.79 483.192V491.561L183.112 486.443V490.97H184.922V482.489L179.601 487.607V483.192H177.79ZM178.382 479.829C178.807 481.362 180.322 482.009 181.375 482.009C182.428 482.009 183.943 481.362 184.368 479.829L182.89 479.404C182.631 480.235 182.169 480.605 181.375 480.605C180.932 480.605 180.174 480.476 179.86 479.404L178.382 479.829ZM78.4698 505.192V512.97H80.2805V510.069L80.5761 509.774L83.1628 512.97H85.4539L81.8694 508.591L85.2691 505.192H82.8672L80.2805 507.963V505.192H78.4698ZM90.7912 504.988C88.4447 504.988 86.634 506.688 86.634 509.09C86.634 511.474 88.4447 513.21 90.7912 513.21C93.1377 513.21 94.9484 511.474 94.9484 509.09C94.9484 506.688 93.1377 504.988 90.7912 504.988ZM90.7912 511.584C89.3685 511.584 88.4816 510.605 88.4816 509.109C88.4816 507.335 89.6456 506.614 90.7912 506.614C91.9367 506.614 93.1008 507.335 93.1008 509.109C93.1008 510.605 92.2139 511.584 90.7912 511.584ZM96.5286 512.97H98.3763L99.1523 509.072L101.628 513.561L104.104 509.072L104.88 512.97H106.728L104.843 504.489L101.628 510.42L98.4132 504.489L96.5286 512.97ZM108.711 505.192V513.561L114.032 508.443V512.97H115.843V504.489L110.521 509.607V505.192H108.711ZM124.73 505.543C123.899 505.081 123.197 504.988 122.605 504.988C121.072 504.988 120.093 505.524 119.483 506.134C118.91 506.707 118.3 507.686 118.3 509.146C118.3 510.568 118.855 511.492 119.409 512.065C120.148 512.841 121.072 513.21 122.365 513.21C123.566 513.21 124.287 512.878 124.73 512.601V510.587C124.102 511.289 123.234 511.584 122.495 511.584C121.829 511.584 121.257 511.344 120.85 510.956C120.499 510.605 120.148 509.995 120.148 509.09C120.148 508.222 120.481 507.63 120.813 507.298C121.146 506.965 121.682 506.614 122.532 506.614C123.086 506.614 123.899 506.762 124.73 507.575V505.543ZM133.066 505.543C132.235 505.081 131.533 504.988 130.942 504.988C129.408 504.988 128.429 505.524 127.819 506.134C127.246 506.707 126.637 507.686 126.637 509.146C126.637 510.568 127.191 511.492 127.745 512.065C128.484 512.841 129.408 513.21 130.701 513.21C131.902 513.21 132.623 512.878 133.066 512.601V510.587C132.438 511.289 131.57 511.584 130.831 511.584C130.166 511.584 129.593 511.344 129.186 510.956C128.835 510.605 128.484 509.995 128.484 509.09C128.484 508.222 128.817 507.63 129.149 507.298C129.482 506.965 130.018 506.614 130.868 506.614C131.422 506.614 132.235 506.762 133.066 507.575V505.543ZM135.379 505.192V513.561L140.7 508.443V512.97H142.511V504.489L137.19 509.607V505.192H135.379ZM150.826 510.347C150.66 510.642 150.419 510.956 150.105 511.196C149.736 511.474 149.366 511.584 148.867 511.584C148.424 511.584 147.907 511.511 147.482 511.086C147.094 510.698 146.853 510.069 146.816 509.515H152.396V509.293C152.396 508.48 152.304 507.039 151.306 506.005C150.844 505.524 150.05 504.988 148.812 504.988C147.703 504.988 146.853 505.395 146.207 506.041C145.394 506.873 144.969 508.037 144.969 509.238C144.969 510.402 145.375 511.474 146.114 512.213C146.853 512.952 147.703 513.21 148.738 513.21C149.569 513.21 150.401 513.026 151.029 512.619C151.528 512.305 152.008 511.788 152.341 511.196L150.826 510.347ZM146.946 508.037C147.038 507.649 147.241 507.279 147.5 507.039C147.74 506.799 148.147 506.54 148.775 506.54C149.366 506.54 149.754 506.762 149.994 506.984C150.272 507.242 150.475 507.612 150.549 508.037H146.946ZM154.866 505.192V513.561L160.187 508.443V512.97H161.998V504.489L156.677 509.607V505.192H154.866ZM155.457 501.829C155.882 503.362 157.397 504.009 158.451 504.009C159.504 504.009 161.019 503.362 161.444 501.829L159.966 501.404C159.707 502.235 159.245 502.605 158.451 502.605C158.007 502.605 157.25 502.476 156.936 501.404L155.457 501.829ZM66.2862 519.716C66.009 520.45 65.6764 521.489 65.4686 522.376C65.1499 523.762 65.0806 525.051 65.0806 525.979C65.0806 527.005 65.1776 528.169 65.3716 529.194C65.4131 529.416 65.6764 530.732 66.2862 532.326L67.1592 531.924C66.8682 531.12 66.6187 530.289 66.4386 529.388C66.1753 528.141 66.106 527.143 66.106 526.007C66.106 524.801 66.203 523.721 66.4525 522.515C66.6465 521.573 66.9097 520.769 67.1592 520.118L66.2862 519.716ZM72.3088 529.97H73.3342V520.727H71.2972L70.7567 521.697H72.3088V529.97ZM81.9816 520.727H78.3094L76.9652 525.189C77.7967 524.607 78.4203 524.552 78.7529 524.552C80.0693 524.552 81.0255 525.494 81.0255 526.825C81.0255 528.127 80.0555 529.194 78.7529 529.194C78.1154 529.194 77.6443 528.959 77.2562 528.64C76.9791 528.418 76.7851 528.196 76.6327 527.892L75.8151 528.474C76.0368 528.848 76.3278 529.166 76.6188 529.416C77.2424 529.929 77.9353 530.137 78.6836 530.137C80.4989 530.137 82.0509 528.875 82.0509 526.811C82.0509 525.009 80.8592 523.61 79.0023 523.61C78.7806 523.61 78.6004 523.624 78.4203 523.665L79.0161 521.67H81.9816V520.727ZM89.5491 529.166C89.9786 529.721 90.6299 530.137 91.5584 530.137C93.3044 530.137 94.316 528.709 94.316 527.129C94.316 525.577 93.3183 524.081 91.5168 524.081C91.1011 524.081 90.2281 524.178 89.5491 525.023V524.219H88.5513V533.157H89.5491V529.166ZM91.4198 529.25C90.2419 529.25 89.4936 528.293 89.4936 527.116C89.4936 525.73 90.4775 524.968 91.406 524.968C92.3344 524.968 93.2906 525.716 93.2906 527.129C93.2906 528.28 92.5838 529.25 91.4198 529.25ZM100.83 525.037C100.566 524.691 99.9703 524.081 98.8617 524.081C97.3929 524.081 96.0625 525.106 96.0625 527.088C96.0625 529.111 97.4067 530.137 98.8617 530.137C99.8733 530.137 100.497 529.596 100.83 529.166V529.97H101.827V524.219H100.83V525.037ZM98.9726 524.968C99.8595 524.968 100.885 525.619 100.885 527.102C100.885 528.238 100.192 529.25 98.9726 529.25C97.7809 529.25 97.088 528.321 97.088 527.088C97.088 525.688 97.9887 524.968 98.9726 524.968ZM108.729 520.27C108.604 520.589 108.355 520.824 107.579 521.004C106.913 521.157 106.193 521.282 105.569 521.711C103.976 522.806 103.934 525.425 103.934 526.45C103.934 527.462 104.031 528.612 104.904 529.416C105.278 529.762 105.916 530.137 106.886 530.137C108.77 530.137 110.031 528.834 110.031 527.116C110.031 525.397 108.756 524.081 107.038 524.081C106.013 524.081 105.32 524.497 104.946 525.134H104.918C104.959 524.081 105.403 523.041 106.124 522.501C106.678 522.099 107.412 521.974 107.953 521.836C108.562 521.683 109.505 521.379 109.837 520.27H108.729ZM106.983 524.968C108.036 524.968 109.006 525.702 109.006 527.116C109.006 528.515 108.022 529.25 106.983 529.25C105.957 529.25 104.959 528.529 104.959 527.116C104.959 525.716 105.93 524.968 106.983 524.968ZM114.827 530.137C116.573 530.137 117.876 528.862 117.876 527.116C117.876 525.37 116.587 524.081 114.827 524.081C113.067 524.081 111.778 525.37 111.778 527.116C111.778 528.862 113.081 530.137 114.827 530.137ZM114.827 524.968C115.88 524.968 116.85 525.702 116.85 527.116C116.85 528.515 115.866 529.25 114.827 529.25C113.802 529.25 112.804 528.529 112.804 527.116C112.804 525.716 113.774 524.968 114.827 524.968ZM123.06 529.97H124.057V524.219H123.06V526.797C122.63 526.88 122.187 526.922 121.812 526.922C121.508 526.922 121.12 526.894 120.939 526.547C120.842 526.381 120.815 526.076 120.815 525.868V524.219H119.817V526.007C119.817 526.561 119.914 527.074 120.302 527.42C120.745 527.822 121.411 527.836 121.702 527.836C122.103 527.836 122.699 527.767 123.06 527.711V529.97ZM126.515 524.219V530.372L130.45 526.132V529.97H131.448V523.776L127.513 528.016V524.219H126.515ZM133.081 529.97H134.301L136.116 527.628L137.931 529.97H139.151L136.767 526.908L138.874 524.219H137.654L136.144 526.173L134.661 524.219H133.442L135.534 526.894L133.081 529.97ZM145.01 524.219V526.783C145.01 527.365 144.969 527.905 144.775 528.307C144.581 528.709 144.207 529.042 143.708 529.056V531.495H144.622V529.97H149.001V531.495H149.916V529.056H149.057V524.219H145.01ZM148.059 529.056H145.315C145.856 528.584 146.008 527.961 146.008 527.296V525.134H148.059V529.056ZM151.546 529.97H152.544V527.49H155.26V529.97H156.257V524.219H155.26V526.575H152.544V524.219H151.546V529.97ZM162.982 528.044C162.857 528.321 162.649 528.612 162.386 528.834C162.053 529.111 161.679 529.25 161.208 529.25C160.21 529.25 159.393 528.487 159.379 527.296H163.855C163.883 526.534 163.675 525.647 163.314 525.134C162.968 524.635 162.261 524.081 161.139 524.081C159.407 524.081 158.353 525.411 158.353 527.129C158.353 529.263 159.808 530.137 161.194 530.137C161.929 530.137 162.58 529.901 163.107 529.43C163.398 529.166 163.647 528.82 163.813 528.501L162.982 528.044ZM159.448 526.464C159.601 525.605 160.293 524.968 161.139 524.968C161.984 524.968 162.663 525.564 162.829 526.464H159.448ZM165.963 524.219V530.372L169.898 526.132V529.97H170.896V523.776L166.96 528.016V524.219H165.963ZM166.462 521.739C166.753 522.556 167.501 523.083 168.471 523.083C169.441 523.083 170.189 522.556 170.48 521.739L169.649 521.42C169.51 521.891 169.122 522.252 168.471 522.252C167.82 522.252 167.432 521.891 167.293 521.42L166.462 521.739ZM173.305 520.118C173.555 520.769 173.818 521.573 174.012 522.515C174.261 523.721 174.358 524.801 174.358 526.007C174.358 527.143 174.289 528.141 174.026 529.388C173.846 530.289 173.596 531.12 173.305 531.924L174.178 532.326C174.788 530.732 175.051 529.416 175.093 529.194C175.287 528.169 175.384 527.005 175.384 525.979C175.384 525.051 175.314 523.762 174.996 522.376C174.788 521.489 174.455 520.45 174.178 519.716L173.305 520.118Z" fill="black"/>
<path opacity="0.2" d="M133.511 401.233L125.012 412.262C128.169 413.171 130.678 414.771 132.538 417.063C134.441 419.356 135.393 422.081 135.393 425.238C135.393 429.91 133.814 433.565 130.656 436.203C127.585 438.842 123.757 440.161 119.173 440.161C115.583 440.161 112.403 439.339 109.635 437.695C106.867 436.008 104.856 433.629 103.601 430.558L111.257 426.147C112.339 429.65 114.977 431.402 119.173 431.402C121.465 431.402 123.238 430.861 124.493 429.78C125.79 428.655 126.439 427.141 126.439 425.238C126.439 423.378 125.79 421.886 124.493 420.762C123.238 419.637 121.465 419.075 119.173 419.075H117.226L113.787 413.884L122.741 402.206H104.964V393.836H133.511V401.233Z" fill="black"/>
</svg>
