<svg width="460" height="952" viewBox="0 0 460 952" fill="none" xmlns="http://www.w3.org/2000/svg">
<rect y="-0.000366211" width="238.464" height="238.464" rx="119.232" fill="white"/>
<path d="M71.8381 88.598H69.9534V100.922H71.8381V95.8223L72.2076 95.4528L76.605 100.922H79.1178L73.5194 94.1779L79.0809 88.598H76.605L71.8381 93.5128V88.598ZM84.1978 92.94C81.8512 92.94 80.0405 94.6398 80.0405 97.0418C80.0405 99.4253 81.8512 101.162 84.1978 101.162C86.5443 101.162 88.355 99.4253 88.355 97.0418C88.355 94.6398 86.5443 92.94 84.1978 92.94ZM84.1978 99.5361C82.7751 99.5361 81.8882 98.5569 81.8882 97.0603C81.8882 95.2865 83.0522 94.5659 84.1978 94.5659C85.3433 94.5659 86.5073 95.2865 86.5073 97.0603C86.5073 98.5569 85.6204 99.5361 84.1978 99.5361ZM89.9352 100.922H91.7828L92.5588 97.0233L95.0347 101.513L97.5106 97.0233L98.2866 100.922H100.134L98.2496 92.4411L95.0347 98.3721L91.8198 92.4411L89.9352 100.922ZM102.117 93.1432V100.922H103.928V94.8061H107.069V100.922H108.88V93.1432H102.117ZM117.443 94.0486C116.704 93.0878 115.707 92.94 115.134 92.94C113.083 92.94 111.346 94.492 111.346 97.0233C111.346 99.1666 112.713 101.162 115.115 101.162C115.67 101.162 116.649 101.033 117.443 100.109V100.922H119.254V93.1432H117.443V94.0486ZM115.356 94.5659C116.501 94.5659 117.554 95.3789 117.554 97.0787C117.554 98.7047 116.501 99.5361 115.356 99.5361C114.044 99.5361 113.194 98.4091 113.194 97.0603C113.194 95.6745 114.044 94.5659 115.356 94.5659ZM122.128 100.922H123.938V97.6885H127.153V100.922H128.964V93.1432H127.153V96.0256H123.938V93.1432H122.128V100.922ZM131.835 93.1432V101.513L137.156 96.3951V100.922H138.967V92.4411L133.646 97.5591V93.1432H131.835ZM140.833 100.922H142.958L145.083 98.058H145.453V100.922H147.263V93.1432H144.362C143.568 93.1432 142.773 93.2171 142.108 93.8453C141.499 94.4181 141.388 95.1387 141.388 95.6376C141.388 96.1919 141.536 96.7646 142.034 97.245C142.33 97.5222 142.755 97.7624 143.272 97.8363L140.833 100.922ZM145.453 96.5799H144.381C143.938 96.5799 143.605 96.5429 143.383 96.3951C143.198 96.2658 143.014 96.0256 143.014 95.6376C143.014 95.2865 143.217 95.0094 143.457 94.8616C143.716 94.7137 144.048 94.6953 144.399 94.6953H145.453V96.5799ZM150.131 100.922H151.942V97.6885H155.157V100.922H156.968V93.1432H155.157V96.0256H151.942V93.1432H150.131V100.922ZM159.839 100.922H162.666C163.442 100.922 164.255 100.922 164.938 100.257C165.289 99.9057 165.64 99.2959 165.64 98.3906C165.64 97.9287 165.548 97.2635 165.031 96.6907C164.328 95.9147 163.442 95.8962 162.684 95.8962H161.649V93.1432H159.839V100.922ZM161.649 99.3698V97.4483H162.499C162.776 97.4483 163.146 97.4483 163.442 97.633C163.663 97.7809 163.83 98.021 163.83 98.4091C163.83 98.8894 163.552 99.1112 163.423 99.2036C163.183 99.3514 162.832 99.3698 162.481 99.3698H161.649ZM166.453 100.922H168.264V93.1432H166.453V100.922ZM41.2371 110.598V122.922H43.1217V117.822L43.4913 117.453L47.8887 122.922H48.6278V125.693H50.4015V121.148H48.9234L44.8031 116.178L50.3646 110.598H47.8887L43.1217 115.513V110.598H41.2371ZM57.3132 116.049C56.5742 115.088 55.5764 114.94 55.0036 114.94C52.9527 114.94 51.2159 116.492 51.2159 119.023C51.2159 121.167 52.5832 123.162 54.9852 123.162C55.5395 123.162 56.5187 123.033 57.3132 122.109V122.922H59.1239V115.143H57.3132V116.049ZM55.2254 116.566C56.3709 116.566 57.4241 117.379 57.4241 119.079C57.4241 120.705 56.3709 121.536 55.2254 121.536C53.9135 121.536 53.0636 120.409 53.0636 119.06C53.0636 117.675 53.9135 116.566 55.2254 116.566ZM63.0506 117.157C63.2724 116.917 63.5125 116.751 63.7343 116.64C64.0853 116.474 64.3809 116.418 64.7505 116.418C64.9907 116.418 65.3602 116.437 65.6189 116.621C65.7852 116.732 65.9515 116.954 65.9515 117.287C65.9515 117.675 65.7667 117.859 65.6189 117.97C65.3972 118.118 64.9907 118.173 64.732 118.173H64.0484V119.652H64.8613C65.3048 119.652 65.8406 119.652 66.1547 119.984C66.3025 120.132 66.3949 120.354 66.3949 120.612C66.3949 120.871 66.284 121.111 66.1177 121.296C65.7852 121.629 65.1939 121.684 64.8798 121.684C64.4549 121.684 64.0299 121.592 63.7158 121.388C63.4202 121.204 63.18 120.889 63.0322 120.575L61.591 121.314C61.8866 121.998 62.367 122.441 62.8104 122.7C63.5125 123.107 64.2886 123.162 64.8429 123.162C66.0993 123.162 66.9677 122.885 67.5774 122.275C68.0208 121.832 68.2426 121.277 68.2426 120.557C68.2426 120.169 68.1502 119.67 67.7437 119.264C67.4665 118.986 67.0416 118.783 66.6166 118.691C66.8383 118.598 67.1155 118.451 67.3557 118.136C67.6328 117.785 67.6883 117.453 67.6883 117.065C67.6883 116.4 67.4665 115.901 66.8753 115.476C66.2471 115.032 65.5635 114.94 64.8983 114.94C64.3994 114.94 63.7158 114.995 63.0691 115.273C62.5333 115.513 62.1453 115.827 61.8866 116.141L63.0506 117.157ZM76.4033 116.049C75.6642 115.088 74.6665 114.94 74.0937 114.94C72.0428 114.94 70.306 116.492 70.306 119.023C70.306 121.167 71.6733 123.162 74.0752 123.162C74.6295 123.162 75.6088 123.033 76.4033 122.109V122.922H78.214V115.143H76.4033V116.049ZM74.3154 116.566C75.461 116.566 76.5142 117.379 76.5142 119.079C76.5142 120.705 75.461 121.536 74.3154 121.536C73.0036 121.536 72.1537 120.409 72.1537 119.06C72.1537 117.675 73.0036 116.566 74.3154 116.566ZM81.0875 115.143V122.922H82.8983V120.021L83.1939 119.725L85.7806 122.922H86.4088V125.139H88.0717V121.259H86.7229L84.4872 118.543L87.8869 115.143H85.485L82.8983 117.915V115.143H81.0875ZM95.9703 115.494C95.1389 115.032 94.4367 114.94 93.8455 114.94C92.3119 114.94 91.3327 115.476 90.7229 116.086C90.1502 116.658 89.5404 117.638 89.5404 119.097C89.5404 120.52 90.0947 121.444 90.649 122.017C91.3881 122.793 92.3119 123.162 93.6053 123.162C94.8063 123.162 95.5269 122.829 95.9703 122.552V120.538C95.3421 121.241 94.4737 121.536 93.7346 121.536C93.0695 121.536 92.4967 121.296 92.0902 120.908C91.7392 120.557 91.3881 119.947 91.3881 119.042C91.3881 118.173 91.7207 117.582 92.0533 117.25C92.3858 116.917 92.9217 116.566 93.7716 116.566C94.3259 116.566 95.1389 116.714 95.9703 117.527V115.494ZM103.822 116.806V115.143H97.4658V116.806H99.7384V122.922H101.549V116.806H103.822ZM111.191 116.049C110.452 115.088 109.454 114.94 108.882 114.94C106.831 114.94 105.094 116.492 105.094 119.023C105.094 121.167 106.461 123.162 108.863 123.162C109.418 123.162 110.397 123.033 111.191 122.109V122.922H113.002V115.143H111.191V116.049ZM109.103 116.566C110.249 116.566 111.302 117.379 111.302 119.079C111.302 120.705 110.249 121.536 109.103 121.536C107.792 121.536 106.942 120.409 106.942 119.06C106.942 117.675 107.792 116.566 109.103 116.566ZM115.876 122.922H117.686V119.688H120.901V122.922H122.712V115.143H120.901V118.026H117.686V115.143H115.876V122.922ZM126.248 115.143V118.192C126.248 119.134 126.156 119.762 125.934 120.243C125.694 120.723 125.213 121.222 124.511 121.259V125.139H126.174V122.922H131.606V125.139H133.269V121.259H132.087V115.143H126.248ZM130.276 121.259H127.08C127.56 120.889 127.985 120.224 127.985 118.875V116.806H130.276V121.259ZM140.837 116.049C140.098 115.088 139.1 114.94 138.527 114.94C136.476 114.94 134.74 116.492 134.74 119.023C134.74 121.167 136.107 123.162 138.509 123.162C139.063 123.162 140.042 123.033 140.837 122.109V122.922H142.648V115.143H140.837V116.049ZM138.749 116.566C139.895 116.566 140.948 117.379 140.948 119.079C140.948 120.705 139.895 121.536 138.749 121.536C137.437 121.536 136.587 120.409 136.587 119.06C136.587 117.675 137.437 116.566 138.749 116.566ZM155.769 116.806V115.143H149.413V116.806H151.686V122.922H153.496V116.806H155.769ZM157.646 115.143V122.922H159.457V115.143H157.646ZM157.388 111.928C157.388 112.593 157.887 113.092 158.552 113.092C159.217 113.092 159.716 112.593 159.716 111.928C159.716 111.263 159.217 110.764 158.552 110.764C157.887 110.764 157.388 111.263 157.388 111.928ZM164.13 122.017C164.943 123.014 166.033 123.162 166.458 123.162C168.306 123.162 170.228 121.61 170.228 118.986C170.228 116.51 168.491 114.94 166.44 114.94C165.664 114.94 164.795 115.199 164.13 115.993V115.143H162.32V127.153H164.13V122.017ZM166.218 116.566C167.53 116.566 168.38 117.675 168.38 119.06C168.38 120.409 167.53 121.536 166.218 121.536C165.073 121.536 164.019 120.705 164.019 119.079C164.019 117.379 165.073 116.566 166.218 116.566ZM172.695 115.143V122.922H174.505V120.021L174.801 119.725L177.388 122.922H179.679L176.094 118.543L179.494 115.143H177.092L174.505 117.915V115.143H172.695ZM186.896 120.298C186.73 120.594 186.49 120.908 186.176 121.148C185.806 121.425 185.437 121.536 184.938 121.536C184.494 121.536 183.977 121.462 183.552 121.037C183.164 120.649 182.924 120.021 182.887 119.467H188.467V119.245C188.467 118.432 188.375 116.991 187.377 115.956C186.915 115.476 186.12 114.94 184.882 114.94C183.774 114.94 182.924 115.346 182.277 115.993C181.464 116.825 181.039 117.989 181.039 119.19C181.039 120.354 181.446 121.425 182.185 122.164C182.924 122.903 183.774 123.162 184.809 123.162C185.64 123.162 186.471 122.977 187.1 122.571C187.599 122.257 188.079 121.739 188.411 121.148L186.896 120.298ZM183.016 117.989C183.109 117.601 183.312 117.231 183.571 116.991C183.811 116.751 184.217 116.492 184.845 116.492C185.437 116.492 185.825 116.714 186.065 116.935C186.342 117.194 186.545 117.564 186.619 117.989H183.016ZM190.364 127.153H192.396L198.586 115.143H196.554L194.299 119.688L192.082 115.143H189.902L193.228 121.702L190.364 127.153Z" fill="black"/>
<path opacity="0.8" d="M85.722 152.165C85.2601 151.075 84.8351 149.763 84.5949 148.728C84.3917 147.804 84.17 146.382 84.17 144.368C84.17 142.816 84.3178 141.19 84.6134 139.859C84.8351 138.843 85.2416 137.605 85.722 136.515L84.0591 135.868C83.4863 137.069 83.1353 138.141 82.8396 139.471C82.4332 141.282 82.3223 142.649 82.3223 144.368C82.3223 146.03 82.4147 147.342 82.8027 149.079C83.0983 150.391 83.4679 151.555 84.0591 152.811L85.722 152.165ZM94.7103 136.995C91.015 136.995 88.2989 139.767 88.2989 143.388C88.2989 147.01 91.015 149.781 94.7103 149.781C98.4056 149.781 101.122 147.01 101.122 143.388C101.122 139.767 98.4056 136.995 94.7103 136.995ZM94.7103 148.044C92.0681 148.044 90.1835 146.123 90.1835 143.388C90.1835 140.654 92.0681 138.732 94.7103 138.732C97.3524 138.732 99.237 140.654 99.237 143.388C99.237 146.123 97.3524 148.044 94.7103 148.044ZM103.732 149.541H105.543V146.308H108.758V149.541H110.569V141.762H108.758V144.645H105.543V141.762H103.732V149.541ZM119.833 141.762H113.994V146.511C113.994 146.806 113.957 147.231 113.717 147.527C113.477 147.804 112.978 148.007 112.442 147.878V149.541C113.273 149.67 114.29 149.523 114.992 148.747C115.638 148.044 115.731 147.176 115.731 146.511V143.425H118.022V149.541H119.833V141.762ZM128.387 142.668C127.648 141.707 126.65 141.559 126.077 141.559C124.026 141.559 122.289 143.111 122.289 145.642C122.289 147.786 123.657 149.781 126.059 149.781C126.613 149.781 127.592 149.652 128.387 148.728V149.541H130.197V141.762H128.387V142.668ZM126.299 143.185C127.444 143.185 128.498 143.998 128.498 145.698C128.498 147.324 127.444 148.155 126.299 148.155C124.987 148.155 124.137 147.028 124.137 145.679C124.137 144.294 124.987 143.185 126.299 143.185ZM133.071 141.762V150.132L138.392 145.014V149.541H140.203V141.06L134.882 146.178V141.762H133.071ZM133.662 138.4C134.087 139.933 135.602 140.58 136.655 140.58C137.709 140.58 139.224 139.933 139.649 138.4L138.171 137.975C137.912 138.806 137.45 139.176 136.655 139.176C136.212 139.176 135.455 139.046 135.14 137.975L133.662 138.4ZM143.067 149.541H144.878V146.308H148.093V149.541H149.903V141.762H148.093V144.645H144.878V141.762H143.067V149.541ZM154.401 152.811C154.992 151.555 155.361 150.391 155.657 149.079C156.045 147.342 156.137 146.03 156.137 144.368C156.137 142.649 156.026 141.282 155.62 139.471C155.324 138.141 154.973 137.069 154.401 135.868L152.738 136.515C153.218 137.605 153.625 138.843 153.846 139.859C154.142 141.19 154.29 142.816 154.29 144.368C154.29 146.382 154.068 147.804 153.865 148.728C153.625 149.763 153.2 151.075 152.738 152.165L154.401 152.811Z" fill="black"/>
<rect x="192.272" y="179.57" width="238.464" height="238.464" rx="119.232" fill="white"/>
<path d="M215.349 279.716V292.04H217.233V281.49H222.517V292.04H224.402V279.716H215.349ZM234.003 284.261H228.165V289.01C228.165 289.305 228.128 289.73 227.887 290.026C227.647 290.303 227.148 290.506 226.613 290.377V292.04C227.444 292.169 228.46 292.021 229.162 291.245C229.809 290.543 229.901 289.675 229.901 289.01V285.924H232.193V292.04H234.003V284.261ZM242.557 285.166C241.818 284.206 240.821 284.058 240.248 284.058C238.197 284.058 236.46 285.61 236.46 288.141C236.46 290.284 237.827 292.28 240.229 292.28C240.784 292.28 241.763 292.151 242.557 291.227V292.04H244.368V284.261H242.557V285.166ZM240.47 285.684C241.615 285.684 242.668 286.497 242.668 288.197C242.668 289.822 241.615 290.654 240.47 290.654C239.158 290.654 238.308 289.527 238.308 288.178C238.308 286.792 239.158 285.684 240.47 285.684ZM252.6 285.924V284.261H246.244V285.924H248.517V292.04H250.327V285.924H252.6ZM258.417 296.271H260.228V292.169C261.688 292.187 262.741 291.744 263.425 291.153C264.127 290.562 264.736 289.638 264.736 288.141C264.736 286.515 263.96 285.591 263.443 285.148C262.501 284.335 261.244 284.132 260.228 284.132V279.716H258.417V284.132C257.401 284.132 256.145 284.335 255.203 285.148C254.685 285.591 253.909 286.515 253.909 288.141C253.909 289.638 254.519 290.562 255.221 291.153C255.905 291.744 256.958 292.187 258.417 292.169V296.271ZM258.417 290.543C257.789 290.562 257.106 290.395 256.662 290.081C256.311 289.841 255.757 289.287 255.757 288.141C255.757 286.885 256.44 286.33 256.718 286.164C257.198 285.85 257.937 285.758 258.417 285.758V290.543ZM260.228 285.758C260.709 285.758 261.448 285.85 261.928 286.164C262.205 286.33 262.889 286.885 262.889 288.141C262.889 289.287 262.335 289.841 261.983 290.081C261.54 290.395 260.856 290.562 260.228 290.543V285.758ZM270.985 284.058C268.638 284.058 266.827 285.758 266.827 288.16C266.827 290.543 268.638 292.28 270.985 292.28C273.331 292.28 275.142 290.543 275.142 288.16C275.142 285.758 273.331 284.058 270.985 284.058ZM270.985 290.654C269.562 290.654 268.675 289.675 268.675 288.178C268.675 286.404 269.839 285.684 270.985 285.684C272.13 285.684 273.294 286.404 273.294 288.178C273.294 289.675 272.407 290.654 270.985 290.654ZM279.42 291.134C280.233 292.132 281.323 292.28 281.748 292.28C283.595 292.28 285.517 290.728 285.517 288.104C285.517 285.628 283.78 284.058 281.729 284.058C280.953 284.058 280.085 284.316 279.42 285.111V284.261H277.609V296.271H279.42V291.134ZM281.508 285.684C282.819 285.684 283.669 286.792 283.669 288.178C283.669 289.527 282.819 290.654 281.508 290.654C280.362 290.654 279.309 289.822 279.309 288.197C279.309 286.497 280.362 285.684 281.508 285.684ZM287.097 292.04H288.945L289.721 288.141L292.197 292.631L294.673 288.141L295.449 292.04H297.296L295.412 283.559L292.197 289.49L288.982 283.559L287.097 292.04ZM304.97 285.166C304.231 284.206 303.233 284.058 302.661 284.058C300.61 284.058 298.873 285.61 298.873 288.141C298.873 290.284 300.24 292.28 302.642 292.28C303.196 292.28 304.176 292.151 304.97 291.227V292.04H306.781V284.261H304.97V285.166ZM302.882 285.684C304.028 285.684 305.081 286.497 305.081 288.197C305.081 289.822 304.028 290.654 302.882 290.654C301.57 290.654 300.721 289.527 300.721 288.178C300.721 286.792 301.57 285.684 302.882 285.684ZM310.32 284.261V287.31C310.32 288.252 310.227 288.88 310.005 289.361C309.765 289.841 309.285 290.34 308.583 290.377V294.257H310.246V292.04H315.678V294.257H317.341V290.377H316.158V284.261H310.32ZM314.347 290.377H311.151C311.631 290.007 312.056 289.342 312.056 287.993V285.924H314.347V290.377ZM324.908 285.166C324.169 284.206 323.171 284.058 322.599 284.058C320.548 284.058 318.811 285.61 318.811 288.141C318.811 290.284 320.178 292.28 322.58 292.28C323.134 292.28 324.114 292.151 324.908 291.227V292.04H326.719V284.261H324.908V285.166ZM322.82 285.684C323.966 285.684 325.019 286.497 325.019 288.197C325.019 289.822 323.966 290.654 322.82 290.654C321.509 290.654 320.659 289.527 320.659 288.178C320.659 286.792 321.509 285.684 322.82 285.684ZM334.482 284.261V292.04H336.293V289.139L336.589 288.843L339.175 292.04H339.804V294.257H341.466V290.377H340.118L337.882 287.661L341.282 284.261H338.88L336.293 287.033V284.261H334.482ZM342.307 284.261L345.43 290.728V291.67H343.028V293.259H345.43V296.271H347.24V293.259H349.642V291.67H347.24V290.728L350.363 284.261H348.33L346.335 288.64L344.339 284.261H342.307ZM355.915 284.261V287.143L353.568 284.261H351.388L354.4 287.809L351.092 292.04H353.347L355.693 288.917L355.915 289.176V292.04H357.726V289.176L357.947 288.917L360.294 292.04H362.548L359.241 287.809L362.252 284.261H360.072L357.726 287.143V284.261H355.915ZM369.999 285.166C369.26 284.206 368.262 284.058 367.69 284.058C365.639 284.058 363.902 285.61 363.902 288.141C363.902 290.284 365.269 292.28 367.671 292.28C368.225 292.28 369.205 292.151 369.999 291.227V292.04H371.81V284.261H369.999V285.166ZM367.911 285.684C369.057 285.684 370.11 286.497 370.11 288.197C370.11 289.822 369.057 290.654 367.911 290.654C366.599 290.654 365.749 289.527 365.749 288.178C365.749 286.792 366.599 285.684 367.911 285.684ZM380.042 285.924V284.261H373.686V285.924H375.958V292.04H377.769V285.924H380.042ZM387.854 285.924V284.261H381.498V285.924H383.771V292.04H385.582V285.924H387.854ZM395.224 285.166C394.485 284.206 393.487 284.058 392.914 284.058C390.863 284.058 389.127 285.61 389.127 288.141C389.127 290.284 390.494 292.28 392.896 292.28C393.45 292.28 394.429 292.151 395.224 291.227V292.04H397.035V284.261H395.224V285.166ZM393.136 285.684C394.282 285.684 395.335 286.497 395.335 288.197C395.335 289.822 394.282 290.654 393.136 290.654C391.824 290.654 390.974 289.527 390.974 288.178C390.974 286.792 391.824 285.684 393.136 285.684ZM401.719 291.134C402.532 292.132 403.622 292.28 404.047 292.28C405.895 292.28 407.816 290.728 407.816 288.104C407.816 285.628 406.079 284.058 404.028 284.058C403.252 284.058 402.384 284.316 401.719 285.111V284.261H399.908V296.271H401.719V291.134ZM403.807 285.684C405.119 285.684 405.969 286.792 405.969 288.178C405.969 289.527 405.119 290.654 403.807 290.654C402.661 290.654 401.608 289.822 401.608 288.197C401.608 286.497 402.661 285.684 403.807 285.684ZM223.587 306.261V314.04H225.397V307.924H228.538V314.04H230.349V306.261H223.587ZM238.913 307.166C238.174 306.206 237.176 306.058 236.603 306.058C234.552 306.058 232.815 307.61 232.815 310.141C232.815 312.284 234.183 314.28 236.585 314.28C237.139 314.28 238.118 314.151 238.913 313.227V314.04H240.723V306.261H238.913V307.166ZM236.825 307.684C237.97 307.684 239.024 308.497 239.024 310.197C239.024 311.822 237.97 312.654 236.825 312.654C235.513 312.654 234.663 311.527 234.663 310.178C234.663 308.792 235.513 307.684 236.825 307.684ZM243.597 306.261V314.04H245.408V311.139L245.703 310.843L248.29 314.04H250.581L246.997 309.661L250.396 306.261H247.994L245.408 309.033V306.261H243.597ZM257.799 311.416C257.632 311.712 257.392 312.026 257.078 312.266C256.709 312.543 256.339 312.654 255.84 312.654C255.397 312.654 254.879 312.58 254.454 312.155C254.066 311.767 253.826 311.139 253.789 310.585H259.369V310.363C259.369 309.55 259.277 308.109 258.279 307.074C257.817 306.594 257.023 306.058 255.785 306.058C254.676 306.058 253.826 306.464 253.179 307.111C252.367 307.942 251.942 309.106 251.942 310.307C251.942 311.471 252.348 312.543 253.087 313.282C253.826 314.021 254.676 314.28 255.711 314.28C256.542 314.28 257.374 314.095 258.002 313.689C258.501 313.375 258.981 312.857 259.314 312.266L257.799 311.416ZM253.919 309.106C254.011 308.718 254.214 308.349 254.473 308.109C254.713 307.868 255.12 307.61 255.748 307.61C256.339 307.61 256.727 307.832 256.967 308.053C257.244 308.312 257.448 308.681 257.521 309.106H253.919ZM267.197 307.924V306.261H260.841V307.924H263.114V314.04H264.925V307.924H267.197ZM269.074 306.261V314.04H270.885V306.261H269.074ZM268.816 303.046C268.816 303.711 269.315 304.21 269.98 304.21C270.645 304.21 271.144 303.711 271.144 303.046C271.144 302.381 270.645 301.882 269.98 301.882C269.315 301.882 268.816 302.381 268.816 303.046ZM272.861 314.04H274.708L275.484 310.141L277.96 314.631L280.436 310.141L281.212 314.04H283.06L281.175 305.559L277.96 311.49L274.745 305.559L272.861 314.04ZM290.494 311.416C290.327 311.712 290.087 312.026 289.773 312.266C289.403 312.543 289.034 312.654 288.535 312.654C288.092 312.654 287.574 312.58 287.149 312.155C286.761 311.767 286.521 311.139 286.484 310.585H292.064V310.363C292.064 309.55 291.972 308.109 290.974 307.074C290.512 306.594 289.718 306.058 288.48 306.058C287.371 306.058 286.521 306.464 285.874 307.111C285.061 307.942 284.636 309.106 284.636 310.307C284.636 311.471 285.043 312.543 285.782 313.282C286.521 314.021 287.371 314.28 288.406 314.28C289.237 314.28 290.069 314.095 290.697 313.689C291.196 313.375 291.676 312.857 292.009 312.266L290.494 311.416ZM286.613 309.106C286.706 308.718 286.909 308.349 287.168 308.109C287.408 307.868 287.814 307.61 288.443 307.61C289.034 307.61 289.422 307.832 289.662 308.053C289.939 308.312 290.143 308.681 290.216 309.106H286.613ZM294.534 314.04H296.345V310.806H299.56V314.04H301.37V306.261H299.56V309.143H296.345V306.261H294.534V314.04ZM312.882 306.058C310.535 306.058 308.725 307.758 308.725 310.16C308.725 312.543 310.535 314.28 312.882 314.28C315.228 314.28 317.039 312.543 317.039 310.16C317.039 307.758 315.228 306.058 312.882 306.058ZM315.118 310.843C314.914 312.044 313.972 312.654 312.882 312.654C311.792 312.654 310.849 312.044 310.646 310.843H315.118ZM310.646 309.365C310.868 308.404 311.644 307.684 312.882 307.684C314.12 307.684 314.896 308.404 315.118 309.365H310.646ZM324.864 307.924V306.261H318.508V307.924H320.781V314.04H322.592V307.924H324.864ZM326.742 306.261V314.04H328.552V306.261H326.742ZM326.483 303.046C326.483 303.711 326.982 304.21 327.647 304.21C328.312 304.21 328.811 303.711 328.811 303.046C328.811 302.381 328.312 301.882 327.647 301.882C326.982 301.882 326.483 302.381 326.483 303.046ZM331.415 314.04H333.226V310.806H336.441V314.04H338.251V306.261H336.441V309.143H333.226V306.261H331.415V314.04ZM341.122 306.261V314.04H342.933V306.261H341.122ZM340.864 303.046C340.864 303.711 341.363 304.21 342.028 304.21C342.693 304.21 343.192 303.711 343.192 303.046C343.192 302.381 342.693 301.882 342.028 301.882C341.363 301.882 340.864 302.381 340.864 303.046ZM344.909 314.04H346.756L347.532 310.141L350.008 314.631L352.484 310.141L353.26 314.04H355.108L353.223 305.559L350.008 311.49L346.793 305.559L344.909 314.04ZM367.856 300.921C367.764 301.235 367.505 301.66 366.378 301.938L365.085 302.252C364.032 302.51 363.329 303.065 362.757 303.914C361.87 305.208 361.574 306.926 361.574 309.254C361.574 310.326 361.611 312.044 362.886 313.245C363.422 313.763 364.364 314.28 365.731 314.28C368.078 314.28 369.889 312.562 369.889 310.123C369.889 308.866 369.427 307.85 368.762 307.166C368.115 306.501 367.228 306.058 366.046 306.058C365.288 306.058 364.087 306.224 363.403 307.148H363.385C363.403 306.52 363.607 305.614 364.032 305.042C364.586 304.284 365.325 304.081 366.046 303.878L367.265 303.545C368.521 303.194 369.445 302.196 369.704 300.921H367.856ZM365.731 312.654C364.309 312.654 363.422 311.675 363.422 310.178C363.422 308.404 364.586 307.684 365.731 307.684C366.877 307.684 368.041 308.404 368.041 310.178C368.041 311.675 367.154 312.654 365.731 312.654ZM377.806 311.416C377.64 311.712 377.4 312.026 377.086 312.266C376.716 312.543 376.347 312.654 375.848 312.654C375.404 312.654 374.887 312.58 374.462 312.155C374.074 311.767 373.834 311.139 373.797 310.585H379.377V310.363C379.377 309.55 379.284 308.109 378.287 307.074C377.825 306.594 377.03 306.058 375.792 306.058C374.684 306.058 373.834 306.464 373.187 307.111C372.374 307.942 371.949 309.106 371.949 310.307C371.949 311.471 372.356 312.543 373.095 313.282C373.834 314.021 374.684 314.28 375.718 314.28C376.55 314.28 377.381 314.095 378.01 313.689C378.508 313.375 378.989 312.857 379.321 312.266L377.806 311.416ZM373.926 309.106C374.019 308.718 374.222 308.349 374.481 308.109C374.721 307.868 375.127 307.61 375.755 307.61C376.347 307.61 376.735 307.832 376.975 308.053C377.252 308.312 377.455 308.681 377.529 309.106H373.926ZM383.657 313.134C384.47 314.132 385.56 314.28 385.985 314.28C387.833 314.28 389.755 312.728 389.755 310.104C389.755 307.628 388.018 306.058 385.967 306.058C385.191 306.058 384.322 306.316 383.657 307.111V306.261H381.847V318.271H383.657V313.134ZM385.745 307.684C387.057 307.684 387.907 308.792 387.907 310.178C387.907 311.527 387.057 312.654 385.745 312.654C384.6 312.654 383.546 311.822 383.546 310.197C383.546 308.497 384.6 307.684 385.745 307.684ZM391.649 318.271H393.681L399.871 306.261H397.839L395.584 310.806L393.367 306.261H391.187L394.513 312.82L391.649 318.271ZM258.77 329.166C258.031 328.206 257.033 328.058 256.46 328.058C254.409 328.058 252.672 329.61 252.672 332.141C252.672 334.284 254.04 336.28 256.442 336.28C256.996 336.28 257.975 336.151 258.77 335.227V336.04H260.58V328.261H258.77V329.166ZM256.682 329.684C257.827 329.684 258.88 330.497 258.88 332.197C258.88 333.822 257.827 334.654 256.682 334.654C255.37 334.654 254.52 333.527 254.52 332.178C254.52 330.792 255.37 329.684 256.682 329.684ZM268.202 329.425C267.925 328.926 267.574 328.631 267.315 328.464C266.872 328.169 266.429 328.058 265.874 328.058C264.914 328.058 264.322 328.427 263.971 328.797C263.565 329.222 263.325 329.832 263.325 330.46C263.325 330.959 263.472 331.384 263.879 331.772C264.174 332.067 264.599 332.27 264.95 332.437L265.616 332.751C265.911 332.88 266.17 333.01 266.392 333.231C266.558 333.416 266.632 333.601 266.632 333.822C266.632 334.044 266.521 334.284 266.373 334.432C266.207 334.598 265.911 334.691 265.634 334.691C265.209 334.691 264.95 334.506 264.84 334.395C264.673 334.247 264.507 333.915 264.415 333.656L262.937 334.358C263.121 334.913 263.491 335.448 263.934 335.781C264.489 336.206 265.117 336.28 265.616 336.28C266.429 336.28 267.186 336.077 267.796 335.411C268.221 334.95 268.479 334.34 268.479 333.638C268.479 333.102 268.332 332.622 267.907 332.197C267.611 331.882 267.223 331.679 266.817 331.476L265.893 331.014C265.505 330.811 265.394 330.774 265.283 330.7C265.117 330.589 265.024 330.46 265.024 330.256C265.024 330.09 265.098 329.942 265.191 329.85C265.302 329.739 265.486 329.647 265.745 329.647C266.318 329.647 266.669 330.016 266.854 330.312L268.202 329.425ZM273.941 329.924V328.261H272.555V325.416H270.745V328.261H269.987V329.924H270.745V336.04H272.555V329.924H273.941ZM281.432 329.166C280.693 328.206 279.696 328.058 279.123 328.058C277.072 328.058 275.335 329.61 275.335 332.141C275.335 334.284 276.702 336.28 279.104 336.28C279.659 336.28 280.638 336.151 281.432 335.227V336.04H283.243V328.261H281.432V329.166ZM279.344 329.684C280.49 329.684 281.543 330.497 281.543 332.197C281.543 333.822 280.49 334.654 279.344 334.654C278.033 334.654 277.183 333.527 277.183 332.178C277.183 330.792 278.033 329.684 279.344 329.684ZM286.098 336.04H287.909V332.307C287.909 329.795 288.74 329.684 289.553 329.684C290.237 329.684 290.976 329.739 290.976 331.716V336.04H292.787V331.273C292.787 330.072 292.602 329.536 292.306 329.111C292.066 328.778 291.456 328.058 290.015 328.058C289.572 328.058 288.685 328.113 287.909 328.982V328.261H286.098V336.04ZM301.352 329.166C300.613 328.206 299.616 328.058 299.043 328.058C296.992 328.058 295.255 329.61 295.255 332.141C295.255 334.284 296.622 336.28 299.024 336.28C299.579 336.28 300.558 336.151 301.352 335.227V336.04H303.163V328.261H301.352V329.166ZM299.265 329.684C300.41 329.684 301.463 330.497 301.463 332.197C301.463 333.822 300.41 334.654 299.265 334.654C297.953 334.654 297.103 333.527 297.103 332.178C297.103 330.792 297.953 329.684 299.265 329.684ZM306.037 336.04H307.847V332.289C307.847 331.291 307.958 330.7 308.217 330.33C308.457 329.979 308.937 329.684 309.547 329.684C310.009 329.684 310.36 329.868 310.563 330.09C310.914 330.478 310.914 330.977 310.914 331.439V336.04H312.725V331.273C312.725 330.718 312.707 329.813 312.226 329.111C312.005 328.797 311.358 328.058 309.935 328.058C309.473 328.058 308.623 328.132 307.847 328.926V322.57H306.037V336.04ZM315.401 328.261V332.769C315.401 333.767 315.512 334.598 316.233 335.319C316.935 336.04 317.896 336.28 318.69 336.28C319.558 336.28 320.519 336.021 321.221 335.319C321.942 334.598 322.053 333.767 322.053 332.769V328.261H320.242V332.714C320.242 333.176 320.224 333.712 319.91 334.118C319.669 334.432 319.244 334.654 318.727 334.654C318.21 334.654 317.785 334.432 317.545 334.118C317.23 333.712 317.212 333.176 317.212 332.714V328.261H315.401ZM326.739 322.57H324.928V336.04H326.739V335.227C327.533 336.151 328.513 336.28 329.067 336.28C331.469 336.28 332.836 334.284 332.836 332.141C332.836 329.61 331.099 328.058 329.049 328.058C328.476 328.058 327.478 328.206 326.739 329.166V322.57ZM328.827 329.684C330.139 329.684 330.989 330.792 330.989 332.178C330.989 333.527 330.139 334.654 328.827 334.654C327.681 334.654 326.628 333.822 326.628 332.197C326.628 330.497 327.681 329.684 328.827 329.684ZM335.377 335.153C335.377 335.763 335.876 336.261 336.486 336.261C337.096 336.261 337.594 335.763 337.594 335.153C337.594 334.543 337.096 334.044 336.486 334.044C335.876 334.044 335.377 334.543 335.377 335.153ZM346.559 328.612C345.728 328.15 345.026 328.058 344.434 328.058C342.901 328.058 341.922 328.594 341.312 329.203C340.739 329.776 340.129 330.755 340.129 332.215C340.129 333.638 340.684 334.562 341.238 335.134C341.977 335.91 342.901 336.28 344.194 336.28C345.395 336.28 346.116 335.947 346.559 335.67V333.656C345.931 334.358 345.063 334.654 344.324 334.654C343.658 334.654 343.086 334.414 342.679 334.026C342.328 333.675 341.977 333.065 341.977 332.16C341.977 331.291 342.31 330.7 342.642 330.367C342.975 330.035 343.511 329.684 344.361 329.684C344.915 329.684 345.728 329.832 346.559 330.645V328.612ZM352.623 328.058C350.276 328.058 348.466 329.758 348.466 332.16C348.466 334.543 350.276 336.28 352.623 336.28C354.969 336.28 356.78 334.543 356.78 332.16C356.78 329.758 354.969 328.058 352.623 328.058ZM352.623 334.654C351.2 334.654 350.313 333.675 350.313 332.178C350.313 330.404 351.477 329.684 352.623 329.684C353.768 329.684 354.932 330.404 354.932 332.178C354.932 333.675 354.045 334.654 352.623 334.654ZM359.247 336.04H361.058V332.03C361.058 331.365 361.095 330.7 361.409 330.256C361.649 329.924 362.037 329.684 362.48 329.684C363.127 329.684 363.404 330.072 363.515 330.367C363.589 330.534 363.681 330.885 363.681 331.753V336.04H365.492V332.03C365.492 331.365 365.529 330.7 365.843 330.256C366.083 329.924 366.471 329.684 366.915 329.684C367.562 329.684 367.839 330.072 367.95 330.367C368.023 330.534 368.116 330.885 368.116 331.753V336.04H369.927V331.236C369.927 330.109 369.668 329.536 369.52 329.277C369.077 328.501 368.245 328.058 367.303 328.058C366.619 328.058 365.64 328.28 364.993 329.203C364.55 328.446 363.792 328.058 362.979 328.058C362.388 328.058 361.668 328.243 361.058 328.982V328.261H359.247V336.04Z" fill="black"/>
<path opacity="0.2" d="M106.986 32.0533L118.924 27.836H126.71V73.2522H117.757V37.3086L109.192 39.7091L106.986 32.0533Z" fill="black"/>
<path opacity="0.2" d="M326.795 255.252H296.431V248.57L311.937 232.609C315.398 228.932 317.128 225.905 317.128 223.526C317.128 221.752 316.565 220.325 315.441 219.244C314.36 218.162 312.954 217.622 311.224 217.622C307.763 217.622 305.233 219.395 303.633 222.942L296.107 218.53C297.491 215.459 299.502 213.102 302.14 211.458C304.822 209.771 307.807 208.928 311.094 208.928C315.203 208.928 318.728 210.225 321.669 212.821C324.611 215.372 326.081 218.833 326.081 223.201C326.081 227.916 323.594 232.76 318.62 237.735L309.731 246.623H326.795V255.252Z" fill="black"/>
<path d="M227.822 215.945L222.821 207.284L217.821 215.945L227.822 215.945ZM203.387 202.837L220.638 212.797L221.504 211.297L204.253 201.337L203.387 202.837Z" fill="#1A1919"/>
<path d="M198.622 394.356L207.805 390.396L199.784 384.423L198.622 394.356ZM214.481 371.61L202.583 387.587L203.972 388.621L215.87 372.645L214.481 371.61Z" fill="#1A1919"/>
<rect x="1" y="713" width="238.464" height="238.464" rx="119.232" fill="#91BC55"/>
<path d="M83.9103 824.97H85.9427L80.1041 811.926L73.9699 824.97H76.0023L77.3511 821.995H82.6169L83.9103 824.97ZM78.1271 820.222L80.0302 816.046L81.8594 820.222H78.1271ZM92.4927 818.356C92.2155 817.857 91.8645 817.561 91.6058 817.395C91.1624 817.099 90.7189 816.988 90.1646 816.988C89.2038 816.988 88.6126 817.358 88.2615 817.727C87.8551 818.152 87.6149 818.762 87.6149 819.39C87.6149 819.889 87.7627 820.314 88.1692 820.702C88.4648 820.998 88.8897 821.201 89.2408 821.367L89.906 821.681C90.2016 821.811 90.4603 821.94 90.682 822.162C90.8483 822.347 90.9222 822.531 90.9222 822.753C90.9222 822.975 90.8113 823.215 90.6635 823.363C90.4972 823.529 90.2016 823.621 89.9244 823.621C89.4995 823.621 89.2408 823.437 89.1299 823.326C88.9637 823.178 88.7974 822.845 88.705 822.587L87.2269 823.289C87.4116 823.843 87.7812 824.379 88.2246 824.712C88.7789 825.137 89.4071 825.21 89.906 825.21C90.7189 825.21 91.4765 825.007 92.0862 824.342C92.5112 823.88 92.7698 823.27 92.7698 822.568C92.7698 822.032 92.622 821.552 92.1971 821.127C91.9014 820.813 91.5134 820.61 91.1069 820.406L90.1831 819.945C89.7951 819.741 89.6842 819.704 89.5734 819.63C89.4071 819.52 89.3147 819.39 89.3147 819.187C89.3147 819.021 89.3886 818.873 89.481 818.781C89.5919 818.67 89.7766 818.577 90.0353 818.577C90.6081 818.577 90.9591 818.947 91.1439 819.242L92.4927 818.356ZM98.2315 818.854V817.192H96.8458V814.346H95.0351V817.192H94.2776V818.854H95.0351V824.97H96.8458V818.854H98.2315ZM105.723 818.097C104.984 817.136 103.986 816.988 103.413 816.988C101.362 816.988 99.6254 818.54 99.6254 821.072C99.6254 823.215 100.993 825.21 103.395 825.21C103.949 825.21 104.928 825.081 105.723 824.157V824.97H107.533V817.192H105.723V818.097ZM103.635 818.614C104.78 818.614 105.834 819.427 105.834 821.127C105.834 822.753 104.78 823.584 103.635 823.584C102.323 823.584 101.473 822.457 101.473 821.109C101.473 819.723 102.323 818.614 103.635 818.614ZM110.388 824.97H112.199V821.238C112.199 818.725 113.031 818.614 113.844 818.614C114.527 818.614 115.266 818.67 115.266 820.647V824.97H117.077V820.203C117.077 819.002 116.892 818.466 116.597 818.041C116.356 817.709 115.747 816.988 114.305 816.988C113.862 816.988 112.975 817.044 112.199 817.912V817.192H110.388V824.97ZM125.643 818.097C124.904 817.136 123.906 816.988 123.333 816.988C121.282 816.988 119.545 818.54 119.545 821.072C119.545 823.215 120.913 825.21 123.315 825.21C123.869 825.21 124.848 825.081 125.643 824.157V824.97H127.453V817.192H125.643V818.097ZM123.555 818.614C124.7 818.614 125.754 819.427 125.754 821.127C125.754 822.753 124.7 823.584 123.555 823.584C122.243 823.584 121.393 822.457 121.393 821.109C121.393 819.723 122.243 818.614 123.555 818.614ZM137.434 812.646H135.549V824.97H137.434V819.298H142.718V824.97H144.603V812.646H142.718V817.524H137.434V812.646ZM147.811 817.192V821.7C147.811 822.698 147.922 823.529 148.643 824.25C149.345 824.97 150.306 825.21 151.1 825.21C151.968 825.21 152.929 824.952 153.631 824.25C154.352 823.529 154.463 822.698 154.463 821.7V817.192H152.652V821.644C152.652 822.106 152.634 822.642 152.319 823.049C152.079 823.363 151.654 823.584 151.137 823.584C150.62 823.584 150.195 823.363 149.954 823.049C149.64 822.642 149.622 822.106 149.622 821.644V817.192H147.811ZM159.149 811.501H157.338V824.97H159.149V824.157C159.943 825.081 160.923 825.21 161.477 825.21C163.879 825.21 165.246 823.215 165.246 821.072C165.246 818.54 163.509 816.988 161.458 816.988C160.886 816.988 159.888 817.136 159.149 818.097V811.501ZM161.237 818.614C162.549 818.614 163.399 819.723 163.399 821.109C163.399 822.457 162.549 823.584 161.237 823.584C160.091 823.584 159.038 822.753 159.038 821.127C159.038 819.427 160.091 818.614 161.237 818.614ZM22.2371 839.192V846.97H24.0478V844.069L24.3434 843.774L26.9301 846.97H27.5583V849.187H29.2212V845.307H27.8724L25.6368 842.591L29.0365 839.192H26.6345L24.0478 841.963V839.192H22.2371ZM36.7873 840.097C36.0482 839.136 35.0505 838.988 34.4777 838.988C32.4268 838.988 30.69 840.54 30.69 843.072C30.69 845.215 32.0572 847.21 34.4592 847.21C35.0135 847.21 35.9928 847.081 36.7873 846.157V846.97H38.598V839.192H36.7873V840.097ZM34.6994 840.614C35.8449 840.614 36.8981 841.427 36.8981 843.127C36.8981 844.753 35.8449 845.584 34.6994 845.584C33.3876 845.584 32.5376 844.457 32.5376 843.109C32.5376 841.723 33.3876 840.614 34.6994 840.614ZM46.8297 840.854V839.192H40.4738V840.854H42.7464V846.97H44.5571V840.854H46.8297ZM48.707 846.97H51.5339C52.3099 846.97 53.1229 846.97 53.8065 846.305C54.1576 845.954 54.5086 845.344 54.5086 844.439C54.5086 843.977 54.4162 843.312 53.8989 842.739C53.1968 841.963 52.3099 841.945 51.5524 841.945H50.5177V839.192H48.707V846.97ZM50.5177 845.418V843.497H51.3676C51.6448 843.497 52.0143 843.497 52.3099 843.681C52.5316 843.829 52.6979 844.069 52.6979 844.457C52.6979 844.938 52.4208 845.16 52.2914 845.252C52.0512 845.4 51.7002 845.418 51.3491 845.418H50.5177ZM55.3216 846.97H57.1323V839.192H55.3216V846.97ZM66.0256 839.543C65.1942 839.081 64.492 838.988 63.9008 838.988C62.3672 838.988 61.388 839.524 60.7783 840.134C60.2055 840.707 59.5957 841.686 59.5957 843.146C59.5957 844.568 60.15 845.492 60.7043 846.065C61.4434 846.841 62.3672 847.21 63.6606 847.21C64.8616 847.21 65.5822 846.878 66.0256 846.601V844.587C65.3974 845.289 64.529 845.584 63.7899 845.584C63.1248 845.584 62.552 845.344 62.1455 844.956C61.7945 844.605 61.4434 843.995 61.4434 843.09C61.4434 842.222 61.776 841.63 62.1086 841.298C62.4411 840.965 62.977 840.614 63.8269 840.614C64.3812 840.614 65.1942 840.762 66.0256 841.575V839.543ZM67.7656 851.201H69.798L75.9877 839.192H73.9552L71.7011 843.737L69.4839 839.192H67.3037L70.6295 845.751L67.7656 851.201ZM77.8293 846.97H88.4348V839.192H86.6241V845.307H84.0374V839.192H82.2267V845.307H79.64V839.192H77.8293V846.97ZM91.3078 846.97H94.1347C94.9107 846.97 95.7237 846.97 96.4073 846.305C96.7584 845.954 97.1095 845.344 97.1095 844.439C97.1095 843.977 97.0171 843.312 96.4997 842.739C95.7976 841.963 94.9107 841.945 94.1532 841.945H93.1185V839.192H91.3078V846.97ZM93.1185 845.418V843.497H93.9684C94.2456 843.497 94.6151 843.497 94.9107 843.681C95.1325 843.829 95.2987 844.069 95.2987 844.457C95.2987 844.938 95.0216 845.16 94.8923 845.252C94.6521 845.4 94.301 845.418 93.95 845.418H93.1185ZM97.9224 846.97H99.7331V839.192H97.9224V846.97ZM108.626 839.543C107.795 839.081 107.093 838.988 106.502 838.988C104.968 838.988 103.989 839.524 103.379 840.134C102.806 840.707 102.197 841.686 102.197 843.146C102.197 844.568 102.751 845.492 103.305 846.065C104.044 846.841 104.968 847.21 106.261 847.21C107.462 847.21 108.183 846.878 108.626 846.601V844.587C107.998 845.289 107.13 845.584 106.391 845.584C105.726 845.584 105.153 845.344 104.746 844.956C104.395 844.605 104.044 843.995 104.044 843.09C104.044 842.222 104.377 841.63 104.709 841.298C105.042 840.965 105.578 840.614 106.428 840.614C106.982 840.614 107.795 840.762 108.626 841.575V839.543ZM110.939 846.97H113.766C114.542 846.97 115.355 846.97 116.039 846.305C116.39 845.954 116.741 845.344 116.741 844.439C116.741 843.977 116.648 843.312 116.131 842.739C115.429 841.963 114.542 841.945 113.785 841.945H112.75V839.192H110.939V846.97ZM112.75 845.418V843.497H113.6C113.877 843.497 114.247 843.497 114.542 843.681C114.764 843.829 114.93 844.069 114.93 844.457C114.93 844.938 114.653 845.16 114.524 845.252C114.283 845.4 113.932 845.418 113.581 845.418H112.75ZM117.554 846.97H119.365V839.192H117.554V846.97ZM122.234 846.97H124.045V843.737H127.26V846.97H129.071V839.192H127.26V842.074H124.045V839.192H122.234V846.97ZM131.942 846.97H134.769C135.545 846.97 136.358 846.97 137.041 846.305C137.392 845.954 137.744 845.344 137.744 844.439C137.744 843.977 137.651 843.312 137.134 842.739C136.432 841.963 135.545 841.945 134.787 841.945H133.753V839.192H131.942V846.97ZM133.753 845.418V843.497H134.603C134.88 843.497 135.249 843.497 135.545 843.681C135.767 843.829 135.933 844.069 135.933 844.457C135.933 844.938 135.656 845.16 135.526 845.252C135.286 845.4 134.935 845.418 134.584 845.418H133.753ZM138.557 846.97H140.367V839.192H138.557V846.97ZM143.237 846.97H145.048V843.737H148.263V846.97H149.704V849.187H151.367V845.307H150.073V839.192H148.263V842.074H145.048V839.192H143.237V846.97ZM158.123 839.192V846.97H159.934V844.069L160.229 843.774L162.816 846.97H165.107L161.523 842.591L164.922 839.192H162.521L159.934 841.963V839.192H158.123ZM166.301 851.201H168.334L174.524 839.192H172.491L170.237 843.737L168.02 839.192H165.84L169.165 845.751L166.301 851.201ZM177.28 841.575C177.465 841.316 177.705 841.058 177.964 840.91C178.222 840.744 178.61 840.614 179.128 840.614C179.756 840.614 180.255 840.799 180.569 841.095C180.901 841.39 181.16 841.945 181.216 842.499H175.562V842.961C175.562 844.383 176.079 845.584 176.8 846.287C177.557 847.026 178.444 847.21 179.294 847.21C180.273 847.21 181.142 846.989 181.918 846.231C182.638 845.529 183.1 844.531 183.1 843.164C183.1 841.704 182.583 840.596 181.899 839.949C181.345 839.432 180.476 838.988 179.146 838.988C178.389 838.988 177.668 839.136 176.984 839.543C176.282 839.968 175.876 840.522 175.636 841.021L177.28 841.575ZM181.086 843.977C181.031 844.476 180.791 844.901 180.513 845.178C180.273 845.418 179.885 845.658 179.257 845.658C178.777 845.658 178.315 845.511 178.038 845.233C177.742 844.956 177.539 844.42 177.483 843.977H181.086ZM191.96 839.192H186.122V843.94C186.122 844.236 186.085 844.661 185.844 844.956C185.604 845.233 185.105 845.437 184.57 845.307V846.97C185.401 847.1 186.417 846.952 187.119 846.176C187.766 845.474 187.858 844.605 187.858 843.94V840.854H190.15V846.97H191.96V839.192ZM194.824 839.192V846.97H196.634V839.192H194.824ZM194.565 835.977C194.565 836.642 195.064 837.141 195.729 837.141C196.394 837.141 196.893 836.642 196.893 835.977C196.893 835.311 196.394 834.813 195.729 834.813C195.064 834.813 194.565 835.311 194.565 835.977ZM199.497 846.97H201.308V840.854H204.264V839.192H199.497V846.97ZM206.137 839.192V846.97H207.948V839.192H206.137ZM205.878 835.977C205.878 836.642 206.377 837.141 207.042 837.141C207.707 837.141 208.206 836.642 208.206 835.977C208.206 835.311 207.707 834.813 207.042 834.813C206.377 834.813 205.878 835.311 205.878 835.977ZM210.81 846.97H212.621V843.737H215.836V846.97H217.647V839.192H215.836V842.074H212.621V839.192H210.81V846.97ZM112.796 862.097C112.057 861.136 111.059 860.988 110.486 860.988C108.435 860.988 106.698 862.54 106.698 865.072C106.698 867.215 108.066 869.21 110.468 869.21C111.022 869.21 112.001 869.081 112.796 868.157V868.97H114.606V861.192H112.796V862.097ZM110.708 862.614C111.853 862.614 112.907 863.427 112.907 865.127C112.907 866.753 111.853 867.584 110.708 867.584C109.396 867.584 108.546 866.457 108.546 865.109C108.546 863.723 109.396 862.614 110.708 862.614ZM123.873 861.192H118.034V865.94C118.034 866.236 117.997 866.661 117.757 866.956C117.517 867.233 117.018 867.437 116.482 867.307V868.97C117.314 869.1 118.33 868.952 119.032 868.176C119.679 867.474 119.771 866.605 119.771 865.94V862.854H122.062V868.97H123.873V861.192ZM126.164 873.201H128.196L134.386 861.192H132.353L130.099 865.737L127.882 861.192H125.702L129.027 867.751L126.164 873.201Z" fill="black"/>
<path opacity="0.2" d="M116.261 756.381H120.932C125.344 756.381 129.02 757.7 131.962 760.338C134.946 762.934 136.438 766.567 136.438 771.238C136.438 775.91 134.86 779.565 131.702 782.203C128.631 784.842 124.803 786.161 120.218 786.161C116.499 786.161 113.233 785.339 110.421 783.695C107.653 782.008 105.642 779.586 104.388 776.429L112.043 771.952C113.125 775.585 115.85 777.402 120.218 777.402C122.511 777.402 124.284 776.861 125.539 775.78C126.836 774.655 127.485 773.141 127.485 771.238C127.485 769.378 126.858 767.886 125.603 766.762C124.349 765.637 122.641 765.075 120.478 765.075H106.723L108.54 739.836H134.297V748.206H116.845L116.261 756.381Z" fill="black"/>
<path d="M199 743.228L208.183 739.268L200.163 733.295L199 743.228ZM214.859 720.483L202.961 736.459L204.35 737.494L216.248 721.517L214.859 720.483Z" fill="#1A1919"/>
<rect x="196" y="546" width="238.464" height="238.464" rx="119.232" fill="white"/>
<path d="M262.092 661.661H276.467V649.337H274.582V659.887H270.222V649.337H268.337V659.887H263.977V649.337H262.092V661.661ZM285.368 654.787C284.629 653.827 283.631 653.679 283.058 653.679C281.007 653.679 279.27 655.231 279.27 657.762C279.27 659.905 280.638 661.901 283.04 661.901C283.594 661.901 284.573 661.772 285.368 660.848V661.661H287.178V653.882H285.368V654.787ZM283.28 655.305C284.425 655.305 285.478 656.118 285.478 657.818C285.478 659.443 284.425 660.275 283.28 660.275C281.968 660.275 281.118 659.148 281.118 657.799C281.118 656.413 281.968 655.305 283.28 655.305ZM291.863 660.755C292.676 661.753 293.766 661.901 294.191 661.901C296.038 661.901 297.96 660.349 297.96 657.725C297.96 655.249 296.223 653.679 294.172 653.679C293.396 653.679 292.528 653.937 291.863 654.732V653.882H290.052V665.892H291.863V660.755ZM293.95 655.305C295.262 655.305 296.112 656.413 296.112 657.799C296.112 659.148 295.262 660.275 293.95 660.275C292.805 660.275 291.752 659.443 291.752 657.818C291.752 656.118 292.805 655.305 293.95 655.305ZM305.785 655.545V653.882H299.429V655.545H301.702V661.661H303.512V655.545H305.785ZM316.266 653.882V656.764L313.919 653.882H311.739L314.751 657.43L311.444 661.661H313.698L316.044 658.538L316.266 658.797V661.661H318.077V658.797L318.298 658.538L320.645 661.661H322.899L319.592 657.43L322.603 653.882H320.423L318.077 656.764V653.882H316.266ZM330.35 654.787C329.611 653.827 328.613 653.679 328.041 653.679C325.99 653.679 324.253 655.231 324.253 657.762C324.253 659.905 325.62 661.901 328.022 661.901C328.576 661.901 329.556 661.772 330.35 660.848V661.661H332.161V653.882H330.35V654.787ZM328.262 655.305C329.408 655.305 330.461 656.118 330.461 657.818C330.461 659.443 329.408 660.275 328.262 660.275C326.95 660.275 326.101 659.148 326.101 657.799C326.101 656.413 326.95 655.305 328.262 655.305ZM341.058 654.233C340.226 653.771 339.524 653.679 338.933 653.679C337.399 653.679 336.42 654.215 335.81 654.824C335.238 655.397 334.628 656.376 334.628 657.836C334.628 659.259 335.182 660.183 335.737 660.755C336.476 661.531 337.399 661.901 338.693 661.901C339.894 661.901 340.614 661.568 341.058 661.291V659.277C340.43 659.979 339.561 660.275 338.822 660.275C338.157 660.275 337.584 660.035 337.178 659.647C336.827 659.296 336.476 658.686 336.476 657.781C336.476 656.912 336.808 656.321 337.141 655.988C337.473 655.656 338.009 655.305 338.859 655.305C339.413 655.305 340.226 655.453 341.058 656.265V654.233ZM349.061 654.787C348.322 653.827 347.325 653.679 346.752 653.679C344.701 653.679 342.964 655.231 342.964 657.762C342.964 659.905 344.331 661.901 346.733 661.901C347.288 661.901 348.267 661.772 349.061 660.848V661.661H350.872V653.882H349.061V654.787ZM346.973 655.305C348.119 655.305 349.172 656.118 349.172 657.818C349.172 659.443 348.119 660.275 346.973 660.275C345.662 660.275 344.812 659.148 344.812 657.799C344.812 656.413 345.662 655.305 346.973 655.305ZM359.769 654.233C358.938 653.771 358.235 653.679 357.644 653.679C356.111 653.679 355.131 654.215 354.522 654.824C353.949 655.397 353.339 656.376 353.339 657.836C353.339 659.259 353.893 660.183 354.448 660.755C355.187 661.531 356.111 661.901 357.404 661.901C358.605 661.901 359.326 661.568 359.769 661.291V659.277C359.141 659.979 358.272 660.275 357.533 660.275C356.868 660.275 356.295 660.035 355.889 659.647C355.538 659.296 355.187 658.686 355.187 657.781C355.187 656.912 355.519 656.321 355.852 655.988C356.184 655.656 356.72 655.305 357.57 655.305C358.125 655.305 358.938 655.453 359.769 656.265V654.233ZM361.509 665.892H363.541L369.731 653.882H367.699L365.444 658.427L363.227 653.882H361.047L364.373 660.441L361.509 665.892Z" fill="black"/>
<path opacity="0.8" d="M281.722 701.903C281.26 700.813 280.835 699.502 280.595 698.467C280.392 697.543 280.17 696.12 280.17 694.106C280.17 692.554 280.318 690.928 280.613 689.598C280.835 688.582 281.242 687.344 281.722 686.254L280.059 685.607C279.486 686.808 279.135 687.88 278.84 689.21C278.433 691.021 278.322 692.388 278.322 694.106C278.322 695.769 278.415 697.081 278.803 698.818C279.098 700.13 279.468 701.294 280.059 702.55L281.722 701.903ZM290.71 686.734C287.015 686.734 284.299 689.506 284.299 693.127C284.299 696.748 287.015 699.52 290.71 699.52C294.406 699.52 297.122 696.748 297.122 693.127C297.122 689.506 294.406 686.734 290.71 686.734ZM290.71 697.783C288.068 697.783 286.184 695.862 286.184 693.127C286.184 690.393 288.068 688.471 290.71 688.471C293.352 688.471 295.237 690.393 295.237 693.127C295.237 695.862 293.352 697.783 290.71 697.783ZM299.732 699.28H301.543V696.046H304.758V699.28H306.569V691.501H304.758V694.383H301.543V691.501H299.732V699.28ZM315.833 691.501H309.994V696.25C309.994 696.545 309.957 696.97 309.717 697.266C309.477 697.543 308.978 697.746 308.442 697.617V699.28C309.273 699.409 310.29 699.261 310.992 698.485C311.638 697.783 311.731 696.915 311.731 696.25V693.164H314.022V699.28H315.833V691.501ZM324.387 692.406C323.648 691.446 322.65 691.298 322.077 691.298C320.026 691.298 318.289 692.85 318.289 695.381C318.289 697.525 319.657 699.52 322.059 699.52C322.613 699.52 323.592 699.391 324.387 698.467V699.28H326.197V691.501H324.387V692.406ZM322.299 692.924C323.444 692.924 324.498 693.737 324.498 695.437C324.498 697.063 323.444 697.894 322.299 697.894C320.987 697.894 320.137 696.767 320.137 695.418C320.137 694.032 320.987 692.924 322.299 692.924ZM329.071 691.501V699.871L334.392 694.753V699.28H336.203V690.799L330.882 695.917V691.501H329.071ZM329.662 688.138C330.087 689.672 331.602 690.319 332.655 690.319C333.709 690.319 335.224 689.672 335.649 688.138L334.171 687.713C333.912 688.545 333.45 688.914 332.655 688.914C332.212 688.914 331.455 688.785 331.14 687.713L329.662 688.138ZM339.067 699.28H340.878V696.046H344.093V699.28H345.903V691.501H344.093V694.383H340.878V691.501H339.067V699.28ZM350.401 702.55C350.992 701.294 351.361 700.13 351.657 698.818C352.045 697.081 352.137 695.769 352.137 694.106C352.137 692.388 352.026 691.021 351.62 689.21C351.324 687.88 350.973 686.808 350.401 685.607L348.738 686.254C349.218 687.344 349.625 688.582 349.846 689.598C350.142 690.928 350.29 692.554 350.29 694.106C350.29 696.12 350.068 697.543 349.865 698.467C349.625 699.502 349.2 700.813 348.738 701.903L350.401 702.55Z" fill="black"/>
<path opacity="0.2" d="M328.387 606.657H333.253V614.962H328.387V622.683H319.368V614.962H297.893V606.657L313.01 577.266H322.612L307.56 606.657H319.368V595.887H328.387V606.657Z" fill="black"/>
<path d="M228.2 582.857L223.2 574.197L218.199 582.857L228.2 582.857ZM203.765 569.75L221.016 579.71L221.882 578.21L204.631 568.25L203.765 569.75Z" fill="#1A1919"/>
<rect x="1" y="365" width="238.464" height="238.464" rx="119.232" fill="white"/>
<path d="M64.9236 468.97H67.03L69.8384 464.259L72.536 468.97H74.6423L70.9285 462.54L74.4761 456.646H72.3697L69.9123 460.822L67.5104 456.646H65.404L68.8037 462.54L64.9236 468.97ZM82.239 462.097C81.4999 461.136 80.5022 460.988 79.9294 460.988C77.8785 460.988 76.1417 462.54 76.1417 465.072C76.1417 467.215 77.509 469.21 79.9109 469.21C80.4652 469.21 81.4445 469.081 82.239 468.157V468.97H84.0497V461.192H82.239V462.097ZM80.1511 462.614C81.2967 462.614 82.3498 463.427 82.3498 465.127C82.3498 466.753 81.2967 467.584 80.1511 467.584C78.8393 467.584 77.9893 466.457 77.9893 465.109C77.9893 463.723 78.8393 462.614 80.1511 462.614ZM93.3161 461.192H87.4775V465.94C87.4775 466.236 87.4406 466.661 87.2004 466.956C86.9602 467.233 86.4613 467.437 85.9255 467.307V468.97C86.7569 469.1 87.7731 468.952 88.4752 468.176C89.1219 467.474 89.2143 466.605 89.2143 465.94V462.854H91.5054V468.97H93.3161V461.192ZM96.1796 468.97H99.0065C99.7825 468.97 100.595 468.97 101.279 468.305C101.63 467.954 101.981 467.344 101.981 466.439C101.981 465.977 101.889 465.312 101.371 464.739C100.669 463.963 99.7825 463.945 99.025 463.945H97.9903V461.192H96.1796V468.97ZM97.9903 467.418V465.497H98.8402C99.1173 465.497 99.4869 465.497 99.7825 465.681C100.004 465.829 100.171 466.069 100.171 466.457C100.171 466.938 99.8934 467.16 99.764 467.252C99.5238 467.4 99.1728 467.418 98.8217 467.418H97.9903ZM102.794 468.97H104.605V461.192H102.794V468.97ZM107.475 461.192V468.97H109.286V466.069L109.581 465.774L112.168 468.97H112.796V471.187H114.459V467.307H113.11L110.875 464.591L114.274 461.192H111.872L109.286 463.963V461.192H107.475ZM122.025 462.097C121.286 461.136 120.288 460.988 119.715 460.988C117.665 460.988 115.928 462.54 115.928 465.072C115.928 467.215 117.295 469.21 119.697 469.21C120.251 469.21 121.231 469.081 122.025 468.157V468.97H123.836V461.192H122.025V462.097ZM119.937 462.614C121.083 462.614 122.136 463.427 122.136 465.127C122.136 466.753 121.083 467.584 119.937 467.584C118.625 467.584 117.775 466.457 117.775 465.109C117.775 463.723 118.625 462.614 119.937 462.614ZM128.52 468.065C129.333 469.063 130.423 469.21 130.848 469.21C132.696 469.21 134.617 467.658 134.617 465.035C134.617 462.559 132.88 460.988 130.83 460.988C130.054 460.988 129.185 461.247 128.52 462.041V461.192H126.709V473.201H128.52V468.065ZM130.608 462.614C131.92 462.614 132.77 463.723 132.77 465.109C132.77 466.457 131.92 467.584 130.608 467.584C129.462 467.584 128.409 466.753 128.409 465.127C128.409 463.427 129.462 462.614 130.608 462.614ZM142.775 462.097C142.036 461.136 141.038 460.988 140.466 460.988C138.415 460.988 136.678 462.54 136.678 465.072C136.678 467.215 138.045 469.21 140.447 469.21C141.001 469.21 141.981 469.081 142.775 468.157V468.97H144.586V461.192H142.775V462.097ZM140.687 462.614C141.833 462.614 142.886 463.427 142.886 465.127C142.886 466.753 141.833 467.584 140.687 467.584C139.375 467.584 138.525 466.457 138.525 465.109C138.525 463.723 139.375 462.614 140.687 462.614ZM153.852 461.192H148.014V465.94C148.014 466.236 147.977 466.661 147.736 466.956C147.496 467.233 146.997 467.437 146.462 467.307V468.97C147.293 469.1 148.309 468.952 149.011 468.176C149.658 467.474 149.75 466.605 149.75 465.94V462.854H152.042V468.97H153.852V461.192ZM156.716 468.97H159.543C160.319 468.97 161.132 468.97 161.815 468.305C162.166 467.954 162.517 467.344 162.517 466.439C162.517 465.977 162.425 465.312 161.908 464.739C161.205 463.963 160.319 463.945 159.561 463.945H158.526V461.192H156.716V468.97ZM158.526 467.418V465.497H159.376C159.653 465.497 160.023 465.497 160.319 465.681C160.54 465.829 160.707 466.069 160.707 466.457C160.707 466.938 160.429 467.16 160.3 467.252C160.06 467.4 159.709 467.418 159.358 467.418H158.526ZM163.33 468.97H165.141V461.192H163.33V468.97ZM168.011 461.192V468.97H169.822V466.069L170.117 465.774L172.704 468.97H173.332V471.187H174.995V467.307H173.646L171.411 464.591L174.81 461.192H172.408L169.822 463.963V461.192H168.011ZM34.633 483.192V490.97H36.4437V488.069L36.7393 487.774L39.3261 490.97H41.6172L38.0327 486.591L41.4324 483.192H39.0304L36.4437 485.963V483.192H34.633ZM46.9544 482.988C44.6079 482.988 42.7972 484.688 42.7972 487.09C42.7972 489.474 44.6079 491.21 46.9544 491.21C49.301 491.21 51.1117 489.474 51.1117 487.09C51.1117 484.688 49.301 482.988 46.9544 482.988ZM46.9544 489.584C45.5317 489.584 44.6449 488.605 44.6449 487.109C44.6449 485.335 45.8089 484.614 46.9544 484.614C48.1 484.614 49.264 485.335 49.264 487.109C49.264 488.605 48.3771 489.584 46.9544 489.584ZM52.6919 490.97H54.5395L55.3155 487.072L57.7914 491.561L60.2673 487.072L61.0433 490.97H62.8909L61.0063 482.489L57.7914 488.42L54.5765 482.489L52.6919 490.97ZM64.874 483.192V491.561L70.1953 486.443V490.97H72.006V482.489L66.6847 487.607V483.192H64.874ZM80.8935 483.543C80.062 483.081 79.3599 482.988 78.7687 482.988C77.2351 482.988 76.2559 483.524 75.6461 484.134C75.0734 484.707 74.4636 485.686 74.4636 487.146C74.4636 488.568 75.0179 489.492 75.5722 490.065C76.3113 490.841 77.2351 491.21 78.5285 491.21C79.7295 491.21 80.4501 490.878 80.8935 490.601V488.587C80.2653 489.289 79.3969 489.584 78.6578 489.584C77.9927 489.584 77.4199 489.344 77.0134 488.956C76.6624 488.605 76.3113 487.995 76.3113 487.09C76.3113 486.222 76.6439 485.63 76.9765 485.298C77.309 484.965 77.8449 484.614 78.6948 484.614C79.2491 484.614 80.062 484.762 80.8935 485.575V483.543ZM89.2296 483.543C88.3982 483.081 87.6961 482.988 87.1048 482.988C85.5712 482.988 84.592 483.524 83.9823 484.134C83.4095 484.707 82.7998 485.686 82.7998 487.146C82.7998 488.568 83.3541 489.492 83.9084 490.065C84.6474 490.841 85.5712 491.21 86.8646 491.21C88.0656 491.21 88.7862 490.878 89.2296 490.601V488.587C88.6014 489.289 87.733 489.584 86.9939 489.584C86.3288 489.584 85.756 489.344 85.3495 488.956C84.9985 488.605 84.6474 487.995 84.6474 487.09C84.6474 486.222 84.98 485.63 85.3126 485.298C85.6452 484.965 86.181 484.614 87.0309 484.614C87.5852 484.614 88.3982 484.762 89.2296 485.575V483.543ZM91.5424 483.192V491.561L96.8636 486.443V490.97H98.6743V482.489L93.3531 487.607V483.192H91.5424ZM100.541 490.97H102.666L104.79 488.106H105.16V490.97H106.971V483.192H104.07C103.275 483.192 102.481 483.265 101.816 483.894C101.206 484.466 101.095 485.187 101.095 485.686C101.095 486.24 101.243 486.813 101.742 487.293C102.037 487.571 102.462 487.811 102.98 487.885L100.541 490.97ZM105.16 486.628H104.088C103.645 486.628 103.312 486.591 103.091 486.443C102.906 486.314 102.721 486.074 102.721 485.686C102.721 485.335 102.924 485.058 103.164 484.91C103.423 484.762 103.756 484.744 104.107 484.744H105.16V486.628ZM109.839 490.97H111.649V487.737H114.864V490.97H116.675V483.192H114.864V486.074H111.649V483.192H109.839V490.97ZM119.546 490.97H122.373C123.149 490.97 123.962 490.97 124.646 490.305C124.997 489.954 125.348 489.344 125.348 488.439C125.348 487.977 125.255 487.312 124.738 486.739C124.036 485.963 123.149 485.945 122.391 485.945H121.357V483.192H119.546V490.97ZM121.357 489.418V487.497H122.207C122.484 487.497 122.853 487.497 123.149 487.681C123.371 487.829 123.537 488.069 123.537 488.457C123.537 488.938 123.26 489.16 123.13 489.252C122.89 489.4 122.539 489.418 122.188 489.418H121.357ZM126.161 490.97H127.971V483.192H126.161V490.97ZM130.841 490.97H132.652V487.737H135.867V490.97H137.308V493.187H138.971V489.307H137.678V483.192H135.867V486.074H132.652V483.192H130.841V490.97ZM149.478 482.988C147.131 482.988 145.321 484.688 145.321 487.09C145.321 489.474 147.131 491.21 149.478 491.21C151.824 491.21 153.635 489.474 153.635 487.09C153.635 484.688 151.824 482.988 149.478 482.988ZM151.714 487.774C151.51 488.975 150.568 489.584 149.478 489.584C148.388 489.584 147.445 488.975 147.242 487.774H151.714ZM147.242 486.296C147.464 485.335 148.24 484.614 149.478 484.614C150.716 484.614 151.492 485.335 151.714 486.296H147.242ZM161.46 484.854V483.192H155.104V484.854H157.377V490.97H159.188V484.854H161.46ZM163.338 483.192V490.97H165.148V483.192H163.338ZM163.079 479.977C163.079 480.642 163.578 481.141 164.243 481.141C164.908 481.141 165.407 480.642 165.407 479.977C165.407 479.311 164.908 478.813 164.243 478.813C163.578 478.813 163.079 479.311 163.079 479.977ZM168.011 490.97H169.822V487.737H173.037V490.97H174.847V483.192H173.037V486.074H169.822V483.192H168.011V490.97ZM177.718 483.192V490.97H179.529V483.192H177.718ZM177.46 479.977C177.46 480.642 177.959 481.141 178.624 481.141C179.289 481.141 179.788 480.642 179.788 479.977C179.788 479.311 179.289 478.813 178.624 478.813C177.959 478.813 177.46 479.311 177.46 479.977ZM181.505 490.97H183.352L184.128 487.072L186.604 491.561L189.08 487.072L189.856 490.97H191.704L189.819 482.489L186.604 488.42L183.389 482.489L181.505 490.97ZM194.551 483.192V486.24C194.551 487.183 194.458 487.811 194.236 488.291C193.996 488.771 193.516 489.27 192.814 489.307V493.187H194.477V490.97H199.909V493.187H201.572V489.307H200.389V483.192H194.551ZM198.578 489.307H195.382C195.862 488.938 196.287 488.273 196.287 486.924V484.854H198.578V489.307ZM203.448 483.192V490.97H205.259V483.192H203.448ZM203.19 479.977C203.19 480.642 203.689 481.141 204.354 481.141C205.019 481.141 205.518 480.642 205.518 479.977C205.518 479.311 205.019 478.813 204.354 478.813C203.689 478.813 203.19 479.311 203.19 479.977ZM91.2807 505.192V512.97H93.0914V510.069L93.3871 509.774L95.9738 512.97H96.602V515.187H98.2649V511.307H96.9161L94.6804 508.591L98.0801 505.192H95.6782L93.0914 507.963V505.192H91.2807ZM105.831 506.097C105.092 505.136 104.094 504.988 103.521 504.988C101.47 504.988 99.7336 506.54 99.7336 509.072C99.7336 511.215 101.101 513.21 103.503 513.21C104.057 513.21 105.036 513.081 105.831 512.157V512.97H107.642V505.192H105.831V506.097ZM103.743 506.614C104.889 506.614 105.942 507.427 105.942 509.127C105.942 510.753 104.889 511.584 103.743 511.584C102.431 511.584 101.581 510.457 101.581 509.109C101.581 507.723 102.431 506.614 103.743 506.614ZM112.326 512.065C113.139 513.063 114.229 513.21 114.654 513.21C116.502 513.21 118.423 511.658 118.423 509.035C118.423 506.559 116.686 504.988 114.635 504.988C113.859 504.988 112.991 505.247 112.326 506.041V505.192H110.515V517.201H112.326V512.065ZM114.414 506.614C115.726 506.614 116.575 507.723 116.575 509.109C116.575 510.457 115.726 511.584 114.414 511.584C113.268 511.584 112.215 510.753 112.215 509.127C112.215 507.427 113.268 506.614 114.414 506.614ZM126.581 506.097C125.842 505.136 124.844 504.988 124.271 504.988C122.221 504.988 120.484 506.54 120.484 509.072C120.484 511.215 121.851 513.21 124.253 513.21C124.807 513.21 125.787 513.081 126.581 512.157V512.97H128.392V505.192H126.581V506.097ZM124.493 506.614C125.639 506.614 126.692 507.427 126.692 509.127C126.692 510.753 125.639 511.584 124.493 511.584C123.181 511.584 122.331 510.457 122.331 509.109C122.331 507.723 123.181 506.614 124.493 506.614ZM130.692 517.201H132.725L138.915 505.192H136.882L134.628 509.737L132.411 505.192H130.231L133.556 511.751L130.692 517.201ZM140.756 512.97H143.583C144.359 512.97 145.172 512.97 145.856 512.305C146.207 511.954 146.558 511.344 146.558 510.439C146.558 509.977 146.465 509.312 145.948 508.739C145.246 507.963 144.359 507.945 143.602 507.945H142.567V505.192H140.756V512.97ZM142.567 511.418V509.497H143.417C143.694 509.497 144.063 509.497 144.359 509.681C144.581 509.829 144.747 510.069 144.747 510.457C144.747 510.938 144.47 511.16 144.341 511.252C144.1 511.4 143.749 511.418 143.398 511.418H142.567ZM147.371 512.97H149.181V505.192H147.371V512.97ZM75.5787 519.716C75.3015 520.45 74.9689 521.489 74.7611 522.376C74.4423 523.762 74.3731 525.051 74.3731 525.979C74.3731 527.005 74.4701 528.169 74.6641 529.194C74.7056 529.416 74.9689 530.732 75.5787 532.326L76.4517 531.924C76.1607 531.12 75.9112 530.289 75.7311 529.388C75.4678 528.141 75.3985 527.143 75.3985 526.007C75.3985 524.801 75.4955 523.721 75.7449 522.515C75.9389 521.573 76.2022 520.769 76.4517 520.118L75.5787 519.716ZM81.6013 529.97H82.6267V520.727H80.5897L80.0492 521.697H81.6013V529.97ZM91.2741 520.727H87.6019L86.2577 525.189C87.0892 524.607 87.7128 524.552 88.0453 524.552C89.3618 524.552 90.318 525.494 90.318 526.825C90.318 528.127 89.3479 529.194 88.0453 529.194C87.4079 529.194 86.9368 528.959 86.5487 528.64C86.2716 528.418 86.0776 528.196 85.9252 527.892L85.1076 528.474C85.3293 528.848 85.6203 529.166 85.9113 529.416C86.5349 529.929 87.2278 530.137 87.9761 530.137C89.7914 530.137 91.3434 528.875 91.3434 526.811C91.3434 525.009 90.1517 523.61 88.2948 523.61C88.0731 523.61 87.8929 523.624 87.7128 523.665L88.3086 521.67H91.2741V520.727ZM100.532 524.219V526.575L98.3704 524.219H97.2064L99.7007 526.88L96.9569 529.97H98.2041L100.338 527.545L100.532 527.739V529.97H101.53V527.739L101.724 527.545L103.858 529.97H105.105L102.361 526.88L104.856 524.219H103.692L101.53 526.575V524.219H100.532ZM105.845 524.219L108.173 529.263V529.97H106.51V530.885H108.173V533.157H109.17V530.885H110.833V529.97H109.17V529.263L111.499 524.219H110.39L108.672 528.099L106.953 524.219H105.845ZM112.462 529.97H113.487L114.221 526.409L116.203 530.372L118.157 526.409L118.919 529.97H119.945L118.559 523.776L116.231 528.46L113.847 523.776L112.462 529.97ZM121.743 529.97H123.752C124.32 529.97 124.944 529.956 125.442 529.485C125.692 529.25 125.955 528.82 125.955 528.196C125.955 527.614 125.733 527.213 125.512 526.991C124.999 526.464 124.278 526.423 123.766 526.423H122.74V524.219H121.743V529.97ZM122.74 529.083V527.31H123.683C124.001 527.31 124.32 527.31 124.569 527.476C124.86 527.656 124.93 527.947 124.93 528.196C124.93 528.64 124.68 528.848 124.556 528.931C124.32 529.069 124.001 529.083 123.669 529.083H122.74ZM126.648 529.97H127.646V524.219H126.648V529.97ZM134.605 524.635C134.328 524.441 133.732 524.081 132.817 524.081C131.043 524.081 129.741 525.37 129.741 527.129C129.741 528.862 131.03 530.137 132.817 530.137C133.358 530.137 134.023 529.998 134.646 529.541V528.349C134.12 528.986 133.385 529.25 132.79 529.25C131.764 529.25 130.766 528.515 130.766 527.116C130.766 525.716 131.736 524.968 132.803 524.968C133.316 524.968 134.078 525.162 134.605 525.827V524.635ZM140.566 524.219V529.97H141.564V527.739L141.869 527.448L144.114 529.97H145.417L142.617 526.783L145.112 524.219H143.892L141.564 526.575V524.219H140.566ZM146.159 524.219L148.487 529.263V533.157H149.484V529.263L151.812 524.219H150.704L148.985 528.099L147.267 524.219H146.159ZM153.441 529.97H154.438V527.49H157.154V529.97H158.152V524.219H157.154V526.575H154.438V524.219H153.441V529.97ZM160.608 524.219V529.97H161.606V524.219H160.608ZM160.4 522.044C160.4 522.432 160.719 522.75 161.107 522.75C161.495 522.75 161.814 522.432 161.814 522.044C161.814 521.656 161.495 521.337 161.107 521.337C160.719 521.337 160.4 521.656 160.4 522.044ZM164.013 520.118C164.262 520.769 164.525 521.573 164.719 522.515C164.969 523.721 165.066 524.801 165.066 526.007C165.066 527.143 164.997 528.141 164.733 529.388C164.553 530.289 164.304 531.12 164.013 531.924L164.886 532.326C165.495 530.732 165.759 529.416 165.8 529.194C165.994 528.169 166.091 527.005 166.091 525.979C166.091 525.051 166.022 523.762 165.703 522.376C165.495 521.489 165.163 520.45 164.886 519.716L164.013 520.118Z" fill="black"/>
<path opacity="0.2" d="M133.511 401.233L125.012 412.262C128.169 413.171 130.678 414.771 132.538 417.063C134.441 419.356 135.393 422.081 135.393 425.238C135.393 429.91 133.814 433.565 130.656 436.203C127.585 438.842 123.757 440.161 119.173 440.161C115.583 440.161 112.403 439.339 109.635 437.695C106.867 436.008 104.856 433.629 103.601 430.558L111.257 426.147C112.339 429.65 114.977 431.402 119.173 431.402C121.465 431.402 123.238 430.861 124.493 429.78C125.79 428.655 126.439 427.141 126.439 425.238C126.439 423.378 125.79 421.886 124.493 420.762C123.238 419.637 121.465 419.075 119.173 419.075H117.226L113.787 413.884L122.741 402.206H104.964V393.836H133.511V401.233Z" fill="black"/>
</svg>
