<svg width="25" height="24" viewBox="0 0 25 24" fill="none" xmlns="http://www.w3.org/2000/svg">
<path fill-rule="evenodd" clip-rule="evenodd" d="M18.3636 5.76205C16.7176 4.11505 14.5286 3.20705 12.1966 3.20605C7.38956 3.20605 3.47856 7.11505 3.47756 11.9201C3.47556 13.4491 3.87656 14.9521 4.64056 16.2771L3.40356 20.7931L8.02556 19.5811C9.30456 20.2771 10.7366 20.6421 12.1926 20.6421H12.1966C17.0016 20.6421 20.9126 16.7321 20.9146 11.9271C20.9156 9.59905 20.0096 7.41005 18.3636 5.76205Z" stroke="white" stroke-width="1.5" stroke-linecap="round" stroke-linejoin="round"/>
<path d="M13.2546 13.5599L13.6606 13.1569C14.0336 12.7869 14.6236 12.7399 15.0536 13.0419C15.4696 13.3339 15.8456 13.5959 16.1956 13.8399C16.7516 14.2259 16.8186 15.0179 16.3396 15.4959L15.9806 15.8549" stroke="white" stroke-width="1.5" stroke-linecap="round" stroke-linejoin="round"/>
<path d="M8.30469 8.1789L8.66369 7.8199C9.14169 7.3419 9.93369 7.4089 10.3197 7.9639C10.5627 8.3139 10.8247 8.6899 11.1177 9.1059C11.4197 9.5359 11.3737 10.1259 11.0027 10.4989L10.5997 10.9049" stroke="white" stroke-width="1.5" stroke-linecap="round" stroke-linejoin="round"/>
<path d="M15.9807 15.8548C14.4997 17.3288 12.0107 16.0768 10.0457 14.1108" stroke="white" stroke-width="1.5" stroke-linecap="round" stroke-linejoin="round"/>
<path d="M10.0477 14.1137C8.08273 12.1477 6.83073 9.65971 8.30473 8.17871" stroke="white" stroke-width="1.5" stroke-linecap="round" stroke-linejoin="round"/>
<path d="M10.5999 10.9048C10.9189 11.4078 11.3279 11.9058 11.7899 12.3678L11.7919 12.3698C12.2539 12.8318 12.7519 13.2408 13.2549 13.5598" stroke="white" stroke-width="1.5" stroke-linecap="round" stroke-linejoin="round"/>
</svg>
